<?xml version="1.0" standalone="no"?>
<!DOCTYPE svg PUBLIC "-//W3C//DTD SVG 1.1//EN" "http://www.w3.org/Graphics/SVG/1.1/DTD/svg11.dtd" >
<svg xmlns="http://www.w3.org/2000/svg" xmlns:xlink="http://www.w3.org/1999/xlink" version="1.1">
<metadata>
Created by FontForge 20170731 at Fri Jun 25 19:00:15 2021
 By Aleksey,,,
Copyright (c) 2007 Monotype Imaging Inc. Soho is designed by Sebastian Lester. All rights reserved.
</metadata>
<defs>
<font id="SohoGothicPro-Light" horiz-adv-x="1187" >
  <font-face 
    font-family="Soho Gothic Pro Light"
    font-weight="300"
    font-stretch="normal"
    units-per-em="2048"
    panose-1="2 11 3 3 3 5 4 2 2 4"
    ascent="1602"
    descent="-446"
    x-height="1112"
    cap-height="1522"
    bbox="-156 -598 2781 2351"
    underline-thickness="102"
    underline-position="-307"
    unicode-range="U+0020-FE6A"
  />
<missing-glyph horiz-adv-x="1024" 
d="M25 0v1362h972v-1362h-972zM180 1266l332 -498l330 498h-662zM123 1178v-992q0 -1 82.5 123t164.5 249l83 124zM901 1178l-332 -496l332 -498v994zM842 98l-330 496l-332 -496h662z" />
    <glyph glyph-name="f_f" unicode="ff" horiz-adv-x="1449" 
d="M1042 0h-133v999h-514v-999h-135v999l-219 13v100h219v152q0 65 5.5 111t22.5 92t47 74t82 45.5t124 17.5q96 0 202 -23v-94q-88 10 -188 10q-53 0 -84.5 -12t-48.5 -42.5t-22 -70t-5 -108.5v-152h514v152q0 65 5.5 111t22.5 92t46.5 74t81 45.5t123.5 17.5q97 0 203 -23
v-94q-88 10 -189 10q-53 0 -84.5 -11.5t-48.5 -41.5t-22 -70t-5 -110v-152h340v-113h-340v-999z" />
    <glyph glyph-name="f_i" unicode="fi" horiz-adv-x="1202" 
d="M393 0h-133v999l-221 13v100h221v152q0 67 5.5 114t22.5 92.5t47 73t81.5 44t124.5 16.5q94 0 200 -23v-94q-87 10 -188 10q-53 0 -84.5 -11.5t-48.5 -41.5t-22 -70t-5 -110v-152h633v-1112h-133v999h-500v-999zM1028 1329h-137v254h137v-254z" />
    <glyph glyph-name="f_l" unicode="fl" horiz-adv-x="1228" 
d="M393 0h-133v999l-221 13v100h221v152q0 102 19 167.5t63 104.5t107.5 54.5t160.5 15.5q107 0 310 -23h135v-1583h-135v1483q-119 14 -295 14q-72 0 -111.5 -7t-69.5 -32t-40.5 -70.5t-10.5 -123.5v-152h342v-113h-342v-999z" />
    <glyph glyph-name="f_f_i" unicode="ffi" horiz-adv-x="1867" 
d="M1694 0h-135v999h-517v-999h-133v999h-514v-999h-135v999l-219 13v100h219v152q0 66 5.5 112.5t22.5 92.5t47 73.5t81.5 44.5t124.5 17q96 0 202 -23v-94q-88 10 -188 10t-130 -48.5t-30 -184.5v-152h514v152q0 55 3.5 95t14 81t30 69t49.5 50.5t76 33.5t106 11
q97 0 203 -23v-94q-88 10 -189 10q-100 0 -130 -48.5t-30 -184.5v-152h652v-1112zM1696 1329h-137v254h137v-254z" />
    <glyph glyph-name="f_f_l" unicode="ffl" horiz-adv-x="1875" 
d="M1702 0h-135v1483q-150 14 -291 14q-74 0 -115 -7.5t-70 -33t-39 -70t-10 -122.5v-152h342v-113h-342v-999h-133v999h-514v-999h-135v999l-219 13v100h219v152q0 67 5.5 114t23 92.5t48.5 73t82.5 44t123.5 16.5q105 0 200 -23v-94q-88 10 -186 10q-102 0 -132 -47.5
t-30 -185.5v-152h514v152q0 101 18.5 166t61.5 104.5t107.5 55.5t163.5 16q50 0 111.5 -4.5t127 -11.5t68.5 -7h135v-1583z" />
    <glyph glyph-name="f_b" unicode="fb" horiz-adv-x="1869" 
d="M393 0h-133v999l-221 13v100h221v152q0 191 75 266.5t249 75.5q69 0 305 -23h131v-508q144 68 307 68q223 0 326.5 -120.5t103.5 -379.5v-143q0 -277 -117 -402t-368 -125q-158 0 -383 25v1485q-158 14 -291 14q-62 0 -97.5 -8t-62 -32.5t-36 -70t-9.5 -122.5v-152h338
v-113h-338v-999zM1022 104q123 -12 254 -12q184 0 265 91t81 317v143q0 208 -71 294.5t-238 86.5q-61 0 -144 -13.5t-147 -43.5v-863z" />
    <glyph glyph-name="f_f_b" unicode="ffb" horiz-adv-x="2521" 
d="M1044 0h-133v999h-516v-999h-135v999l-225 11v102h225v152q0 65 5 111t22 92t47 74t82 45.5t125 17.5q90 0 198 -23v-94q-113 10 -182 10q-103 0 -132.5 -48t-29.5 -185v-152h516v152q0 191 75 266.5t249 75.5q69 0 305 -23h133v-508q139 68 307 68q223 0 326.5 -120.5
t103.5 -379.5v-143q0 -277 -117.5 -402t-367.5 -125q-157 0 -385 25v1485q-168 14 -291 14q-62 0 -97.5 -8t-62 -32.5t-36 -70t-9.5 -122.5v-152h340v-113h-340v-999zM2275 500v143q0 208 -71.5 294.5t-239.5 86.5q-60 0 -143 -13.5t-146 -43.5v-863q114 -12 254 -12
q184 0 265 91t81 317z" />
    <glyph glyph-name="f_h" unicode="fh" horiz-adv-x="1918" 
d="M1761 0h-133v700q0 184 -56 254t-192 70q-166 0 -354 -94v-930h-133v1483q-163 14 -287 14q-65 0 -102 -7.5t-63.5 -33t-36 -70.5t-9.5 -122v-152h338v-113h-338v-999h-135v999l-225 13v100h225v152q0 194 77.5 268t256.5 74q104 0 299 -23h133v-545q201 103 379 103
q188 0 272 -105t84 -331v-705z" />
    <glyph glyph-name="f_f_h" unicode="ffh" horiz-adv-x="2562" 
d="M2406 0h-135v700q0 184 -55 254t-191 70q-166 0 -354 -94v-930h-133v1483q-154 14 -287 14q-65 0 -102 -7.5t-63.5 -33t-36 -70.5t-9.5 -122v-152h338v-113h-338v-999h-133v999h-512v-999h-135v999l-225 13v100h225v152q0 65 5 111t22 92t47 74t82 45.5t125 17.5
q92 0 198 -23v-94q-83 10 -184 10q-53 0 -84.5 -11.5t-48.5 -41.5t-22 -70t-5 -110v-152h512v152q0 194 76.5 268t255.5 74q98 0 299 -23h133v-545q201 103 379 103q188 0 272 -105t84 -331v-705z" />
    <glyph glyph-name="f_j" unicode="fj" horiz-adv-x="1226" 
d="M395 0h-135v999l-225 13v100h225v152q0 65 5.5 111t23 92t47.5 74t81.5 45.5t123.5 17.5q92 0 198 -23v-94q-83 10 -184 10q-53 0 -84.5 -11.5t-48.5 -41.5t-22 -70t-5 -110v-152h656v-1264q0 -159 -54.5 -228t-193.5 -69q-59 0 -135 13v98q58 -6 118 -6q81 0 106.5 40.5
t25.5 151.5v1151h-523v-999zM1053 1327h-140v256h140v-256z" />
    <glyph glyph-name="f_f_j" unicode="ffj" horiz-adv-x="1878" 
d="M1047 0h-134v999h-520v-999h-133v999l-225 13v100h225v152q0 65 5.5 111t22.5 92t47 74t81.5 45.5t122.5 17.5q96 0 202 -23v-94q-87 10 -188 10q-99 0 -129.5 -50t-30.5 -183v-152h520v152q0 65 5.5 111t22.5 92t47 74t82 45.5t124 17.5q91 0 197 -23v-94
q-83 10 -185 10q-43 0 -71 -8.5t-46 -23.5t-27 -45t-12 -65t-3 -91v-152h657v-1264q0 -159 -55 -228t-193 -69q-66 0 -137 13v98q59 -6 121 -6q78 0 103.5 41t25.5 151v1151h-522v-999zM1704 1327h-137v256h137v-256z" />
    <glyph glyph-name="f_k" unicode="fk" horiz-adv-x="1744" 
d="M1716 0h-178l-494 563v-563h-133v1483q-177 14 -305 14q-65 0 -102 -7.5t-63.5 -33t-36 -70.5t-9.5 -122v-152h338v-113h-338v-999h-135v999l-225 13v100h225v152q0 194 77.5 268t256.5 74q87 0 317 -23h133v-979l492 508h176l-518 -526z" />
    <glyph glyph-name="f_f_k" unicode="ffk" horiz-adv-x="2392" 
d="M2365 0h-180l-493 563v-563h-133v1483q-177 14 -302 14q-65 0 -101.5 -7.5t-63 -33t-36 -70.5t-9.5 -122v-152h339v-113h-339v-999h-134v999h-518v-999h-135v999l-225 13v100h225v152q0 65 5.5 111t22.5 92t47 74t82 45.5t124 17.5q92 0 198 -23v-94q-83 10 -184 10
q-53 0 -84.5 -11.5t-48.5 -41.5t-22 -70t-5 -110v-152h518v152q0 194 77 268t253 74q92 0 316 -23h133v-979l491 508h176l-516 -526z" />
    <glyph glyph-name=".notdef" horiz-adv-x="1024" 
d="M25 0v1362h972v-1362h-972zM180 1266l332 -498l330 498h-662zM123 1178v-992q0 -1 82.5 123t164.5 249l83 124zM901 1178l-332 -496l332 -498v994zM842 98l-330 496l-332 -496h662z" />
    <glyph glyph-name=".null" horiz-adv-x="0" 
 />
    <glyph glyph-name="nonmarkingreturn" horiz-adv-x="682" 
 />
    <glyph glyph-name="space" unicode=" " horiz-adv-x="411" 
 />
    <glyph glyph-name="exclam" unicode="!" horiz-adv-x="473" 
d="M305 0h-137v260h137v-260zM309 1567l-12 -1176h-119l-14 1176h145z" />
    <glyph glyph-name="quotedbl" unicode="&#x22;" horiz-adv-x="643" 
d="M41 1063l39 491h135l-72 -491h-102zM602 1554l-72 -491h-102l39 491h135z" />
    <glyph glyph-name="numbersign" unicode="#" horiz-adv-x="1492" 
d="M1333 420h-313l-47 -420h-121l45 420h-387l-45 -420h-123l47 420h-219v117h231l48 434h-279v116h291l49 435h121l-47 -435h387l49 435h121l-47 -435h239v-116h-252l-47 -434h299v-117zM958 971h-387l-47 -434h387z" />
    <glyph glyph-name="dollar" unicode="$" horiz-adv-x="1212" 
d="M541 -244v217q-209 5 -371 37v109q230 -27 422 -27q174 0 263 66.5t89 216.5q0 111 -58 177t-212 138l-207 96q-167 76 -248.5 168.5t-81.5 239.5q0 320 404 348v209h131v-207q175 -2 360 -35v-110q-229 26 -407 26q-173 0 -262 -52.5t-89 -178.5q0 -102 58.5 -166.5
t195.5 -126.5l207 -94q187 -85 267.5 -180t80.5 -252q0 -183 -104 -283t-307 -115v-221h-131z" />
    <glyph glyph-name="percent" unicode="%" horiz-adv-x="2078" 
d="M1964 387q0 -205 -89 -307.5t-251 -102.5q-163 0 -252.5 102.5t-89.5 307.5v119q0 205 89 306t253 101q162 0 251 -101.5t89 -305.5v-119zM1843 387v119q0 87 -16.5 148.5t-47.5 94.5t-68.5 47.5t-86.5 14.5q-104 0 -162.5 -68.5t-58.5 -236.5v-119q0 -168 58.5 -236.5
t162.5 -68.5q49 0 86.5 14.5t68.5 47.5t47.5 94.5t16.5 148.5zM1595 1522l-970 -1522h-138l971 1522h137zM801 1018q0 -412 -340 -412q-172 0 -256 107.5t-84 304.5v115q0 198 83.5 304.5t256.5 106.5q340 0 340 -411v-115zM680 1018v115q0 168 -55 238.5t-164 70.5
t-164 -72t-55 -237v-115q0 -168 54.5 -237.5t164.5 -69.5t164.5 69.5t54.5 237.5z" />
    <glyph glyph-name="ampersand" unicode="&#x26;" horiz-adv-x="1490" 
d="M1350 0h-160l-131 131q-161 -158 -451 -158q-104 0 -189 21.5t-153 66.5t-105.5 122.5t-37.5 181.5v12q2 131 68.5 225t220.5 178l-13 15q-60 61 -94 100.5t-68 92t-48.5 108.5t-14.5 123q0 327 436 327q224 0 416 -37v-108q-226 24 -410 24q-70 0 -120.5 -8.5t-94.5 -31
t-66 -65.5t-22 -108q0 -66 23 -121.5t61 -101.5t117 -127l543 -547q88 149 88 463l-127 8v105h381v-105l-127 -8q0 -355 -127 -549l205 -204v-25zM977 213l-479 483q-131 -67 -183.5 -136.5t-52.5 -182.5v-12q0 -73 26.5 -127t74 -85.5t109 -47t136.5 -15.5q243 0 369 123z
" />
    <glyph glyph-name="quotesingle" unicode="'" horiz-adv-x="256" 
d="M215 1554l-72 -491h-102l39 491h135z" />
    <glyph glyph-name="parenleft" unicode="(" horiz-adv-x="677" 
d="M598 -424h-129q-62 72 -116.5 163.5t-106 212t-81.5 274t-30 315.5v14q0 162 30 315.5t81.5 274.5t106 212.5t116.5 164.5h129q-155 -201 -241.5 -434t-86.5 -533v-14q0 -300 86.5 -531.5t241.5 -433.5z" />
    <glyph glyph-name="parenright" unicode=")" horiz-adv-x="677" 
d="M541 541q0 -162 -30 -315.5t-80.5 -274t-105.5 -212t-116 -163.5h-133q157 202 244.5 434t87.5 531v14q0 300 -87.5 532.5t-244.5 434.5h133q62 -73 116.5 -164.5t105 -212.5t80.5 -274.5t30 -315.5v-14z" />
    <glyph glyph-name="asterisk" unicode="*" horiz-adv-x="1054" 
d="M924 1251l-179 -57q-102 -31 -135 -37q36 -36 90 -106l109 -150l-96 -70l-109 150q-32 41 -78 117q-43 -73 -73 -115l-109 -152l-96 70l108 152q43 60 86 106q-44 8 -131 35l-176 57l35 113l176 -55q22 -6 131 -49q-8 86 -8 135v188h119v-188q0 -77 -8 -140q95 40 129 52
l178 59z" />
    <glyph glyph-name="plus" unicode="+" horiz-adv-x="1425" 
d="M1225 745h-455v-456h-113v456h-458v113h458v457h113v-457h455v-113z" />
    <glyph glyph-name="comma" unicode="," horiz-adv-x="497" 
d="M387 279l-201 -457h-123l168 457h156z" />
    <glyph glyph-name="hyphen" unicode="-" horiz-adv-x="808" 
d="M655 537h-501v114h501v-114z" />
    <glyph glyph-name="period" unicode="." horiz-adv-x="436" 
d="M285 0h-133v279h133v-279z" />
    <glyph glyph-name="slash" unicode="/" horiz-adv-x="829" 
d="M782 1522l-612 -1522h-129l612 1522h129z" />
    <glyph glyph-name="zero" unicode="0" horiz-adv-x="1284" 
d="M1161 641q0 -339 -134 -503.5t-384 -164.5q-251 0 -384.5 164.5t-133.5 503.5v238q0 339 133.5 503t384.5 164q250 0 384 -164t134 -503v-238zM1024 641v238q0 548 -381 548t-381 -548v-238q0 -551 381 -551t381 551z" />
    <glyph glyph-name="one" unicode="1" horiz-adv-x="1019" 
d="M905 0h-784v113l325 8v1270l-327 -111v121l360 131h103v-1411l323 -8v-113z" />
    <glyph glyph-name="two" unicode="2" horiz-adv-x="1196" 
d="M1057 0h-922v147q0 91 10 161t35.5 129.5t58.5 105t90 92t119 86t156 90.5q139 77 208.5 132.5t96.5 110.5t27 136q0 129 -89.5 183t-295.5 54q-187 0 -387 -32v108q209 43 393 43q264 0 390 -85.5t126 -270.5q0 -149 -82.5 -253.5t-310.5 -227.5q-108 -58 -173 -101
t-115.5 -89t-74.5 -99t-35.5 -116t-11.5 -154v-29h787v-121z" />
    <glyph glyph-name="three" unicode="3" horiz-adv-x="1196" 
d="M1069 401q0 -224 -127.5 -326t-392.5 -102q-104 0 -220.5 14t-181.5 27v105q33 -3 116.5 -11.5t150.5 -13t133 -4.5q206 0 295.5 70.5t89.5 240.5v60q0 47 -4.5 81.5t-21.5 72.5t-46 62t-81.5 40t-125.5 16h-450v117h450q72 0 124.5 16t82 40t46 62.5t21.5 74t5 83.5v29
q0 102 -34 159.5t-117.5 85t-233.5 27.5q-156 0 -395 -26v106q46 10 170 24.5t227 14.5q276 0 398 -90t122 -301v-29q0 -261 -205 -335q205 -72 205 -330v-60z" />
    <glyph glyph-name="four" unicode="4" horiz-adv-x="1306" 
d="M1210 424h-243v-424h-138v424h-737v139l717 961h158v-981h243v-119zM829 543v798l-598 -798h598z" />
    <glyph glyph-name="five" unicode="5" horiz-adv-x="1189" 
d="M1065 422q0 -233 -129.5 -341t-407.5 -108q-121 0 -236 15t-177 30v109q11 -1 57 -7t79 -10t82 -8.5t98 -7t95 -2.5q226 0 315 76.5t89 253.5v55q0 175 -93.5 241t-326.5 66h-363l66 738h793v-123h-676l-45 -496h231q284 0 416.5 -98t132.5 -328v-55z" />
    <glyph glyph-name="six" unicode="6" horiz-adv-x="1282" 
d="M1155 453q0 -111 -32 -198t-82 -139t-118.5 -85t-134.5 -45.5t-137 -12.5q-92 0 -164 14t-142.5 54t-116.5 106t-74.5 176.5t-28.5 258.5v393q0 143 27.5 245t90.5 177t171.5 112t265.5 37q111 0 229.5 -14.5t184.5 -28.5v-106q-240 30 -412 30q-107 0 -183 -21
t-121.5 -57t-71.5 -95.5t-35 -123t-9 -153.5v-96q88 24 198.5 38.5t192.5 14.5t149 -9t135 -35.5t114 -70t75 -118.5t29 -175v-73zM1018 453v69q0 75 -19 129.5t-49.5 86.5t-80 51t-100.5 25.5t-120 6.5q-210 0 -387 -47v-203q0 -137 27 -232.5t80 -148.5t121 -75.5
t161 -22.5q166 0 266.5 89.5t100.5 271.5z" />
    <glyph glyph-name="seven" unicode="7" horiz-adv-x="1150" 
d="M1065 1376l-672 -1376h-153l696 1399h-825v123h954v-146z" />
    <glyph glyph-name="eight" unicode="8" horiz-adv-x="1318" 
d="M1188 432q0 -84 -14 -151.5t-38 -115t-62 -82.5t-79.5 -56t-98 -33t-110 -16.5t-122.5 -4.5h-11q-68 0 -122 4.5t-110.5 17t-98 33.5t-79.5 56t-62 83t-38 115.5t-14 151.5v15q0 134 47 218.5t146 125.5q-187 75 -187 327v21q0 94 26.5 165t71 116t112 72.5t141.5 38.5
t167 11h11q93 0 167 -11t141.5 -38.5t112 -72.5t71 -116t26.5 -165v-21q0 -252 -187 -327q99 -41 146 -125t47 -217v-19zM1051 432v19q-1 70 -12.5 119t-38.5 87.5t-75.5 57t-119.5 18.5h-293q-137 0 -191.5 -71t-54.5 -213v-15q0 -85 17 -146t47.5 -99t80.5 -60.5
t106.5 -30.5t135.5 -8h11q65 0 114.5 5.5t95 19.5t76.5 39t55 62.5t35 91.5t11 124zM1047 1120v21q0 84 -25 141t-76.5 88.5t-118.5 44t-163 12.5h-11q-96 0 -163 -12.5t-118.5 -44t-76.5 -88.5t-25 -141v-21q0 -61 11 -106.5t37 -83.5t75 -58t119 -20h293q135 0 188.5 70
t53.5 198z" />
    <glyph glyph-name="nine" unicode="9" horiz-adv-x="1282" 
d="M1155 543q0 -143 -27.5 -245t-90.5 -177.5t-171.5 -112.5t-265.5 -37q-111 0 -229.5 14.5t-184.5 28.5v109q264 -33 410 -33q90 0 158 13.5t114 42.5t76 65.5t46 90.5t22 109t6 130v96q-87 -24 -197 -37.5t-196 -13.5q-83 0 -149 8.5t-134 34.5t-113.5 69.5t-74.5 118
t-29 174.5v76q0 111 32 197.5t82 138t118.5 85t134.5 46t137 12.5q64 0 118 -7t109 -24.5t98.5 -47t82 -76.5t64 -109.5t40 -149.5t14.5 -194v-395zM1018 743v203q0 111 -18 194t-50.5 137.5t-82 88t-107 47.5t-131.5 14q-108 0 -189 -36t-130.5 -118.5t-49.5 -205.5v-72
q0 -75 19 -129.5t50 -86.5t80.5 -51t101 -25.5t120.5 -6.5q198 0 387 47z" />
    <glyph glyph-name="colon" unicode=":" horiz-adv-x="444" 
d="M293 0h-135v279h135v-279zM293 840h-135v278h135v-278z" />
    <glyph glyph-name="semicolon" unicode=";" horiz-adv-x="483" 
d="M344 279l-203 -457h-121l168 457h156zM328 840h-135v278h135v-278z" />
    <glyph glyph-name="less" unicode="&#x3c;" horiz-adv-x="1425" 
d="M1098 285h-187l-585 516l585 514h187l-588 -514z" />
    <glyph glyph-name="equal" unicode="=" horiz-adv-x="1425" 
d="M1169 629v-113h-915v113h915zM1169 977h-915v113h915v-113z" />
    <glyph glyph-name="greater" unicode="&#x3e;" horiz-adv-x="1425" 
d="M1096 801l-586 -516h-184l585 516l-585 514h184z" />
    <glyph glyph-name="question" unicode="?" horiz-adv-x="927" 
d="M385 0h-135v264h135v-264zM799 1262q0 -107 -44.5 -193t-166.5 -207q-73 -72 -113 -119t-61.5 -92.5t-27 -81.5t-5.5 -96v-80h-131v80q0 69 6.5 114.5t28.5 99t66 108t116 123.5q118 113 156.5 183t38.5 161v12q0 122 -71 166.5t-216 44.5q-120 0 -309 -25v105
q166 39 319 39q201 0 307.5 -75.5t106.5 -254.5v-12z" />
    <glyph glyph-name="at" unicode="@" horiz-adv-x="1685" 
d="M1579 772q0 -653 -715 -653q-208 0 -301.5 74.5t-93.5 238.5q0 131 18.5 228t51.5 159t84.5 100t110.5 53t136 15q153 0 299 -35l-71 -702q375 75 375 524q0 471 -549 471q-300 0 -464 -147.5t-216 -470.5q-21 -140 -21 -262q0 -244 134.5 -371t422.5 -127q96 0 200 7
t142 13v-77q-170 -31 -342 -31q-334 0 -498.5 151t-164.5 435q0 125 22 272q58 358 246 529t539 171q330 0 492.5 -148t162.5 -417zM1032 864q-89 13 -160 13q-53 0 -92.5 -9.5t-76.5 -37.5t-60 -76.5t-37 -129t-14 -192.5q0 -117 61.5 -163t208.5 -46q37 0 107 4z" />
    <glyph glyph-name="A" unicode="A" horiz-adv-x="1316" 
d="M1268 0h-146l-178 539h-577l-181 -539h-139l516 1522h191zM901 664l-172 510q-38 111 -65 235h-15q-30 -125 -65 -235l-176 -510h493z" />
    <glyph glyph-name="B" unicode="B" horiz-adv-x="1277" 
d="M1165 414q0 -99 -28 -172.5t-77.5 -121t-127 -76.5t-166.5 -40.5t-205 -11.5q-93 0 -387 8v1522l112.5 2.5t132 2.5t146.5 1q119 0 207.5 -10t164 -36t122 -69t72.5 -110.5t26 -159.5v-19q0 -53 -12.5 -101.5t-39 -94.5t-75.5 -82t-115 -55q89 -25 146.5 -80.5
t80.5 -121.5t23 -147v-28zM1028 414v28q-1 51 -10 91t-33.5 78.5t-65 64.5t-107.5 41.5t-157 15.5h-344v-612q156 -8 250 -8q122 0 204.5 13.5t144 47t90 92.5t28.5 148zM1020 1124v19q0 56 -12.5 97.5t-39.5 70.5t-62 47.5t-89.5 28.5t-112.5 14t-139 4q-86 0 -254 -4v-549
h344q89 0 155 15t105.5 39t63.5 60.5t32.5 74t8.5 83.5z" />
    <glyph glyph-name="C" unicode="C" horiz-adv-x="1126" 
d="M1065 4q-198 -31 -354 -31q-113 0 -202 21t-164.5 71t-125.5 130t-78 200.5t-28 278.5v174q0 158 28 278t78 199t125.5 129t164.5 71t202 21q159 0 354 -33v-112q-181 22 -354 22q-240 0 -350.5 -131.5t-110.5 -443.5v-174q0 -312 110.5 -445t350.5 -133q186 0 354 23
v-115z" />
    <glyph glyph-name="D" unicode="D" horiz-adv-x="1349" 
d="M1237 672q0 -339 -155.5 -509.5t-497.5 -170.5q-110 0 -410 8v1522q246 6 410 6q337 0 495 -170t158 -506v-180zM1100 672v180q0 153 -33 260t-101 171.5t-164 93t-229 28.5q-102 0 -262 -4v-1280q156 -8 262 -8q268 0 397.5 129t129.5 430z" />
    <glyph glyph-name="E" unicode="E" horiz-adv-x="1163" 
d="M1051 0h-877v1522h877v-123h-740v-543h690v-125h-690v-610h740v-121z" />
    <glyph glyph-name="F" unicode="F" horiz-adv-x="1142" 
d="M1051 1399h-740v-543h690v-125h-690v-731h-137v1522h877v-123z" />
    <glyph glyph-name="G" unicode="G" horiz-adv-x="1267" 
d="M1135 10q-238 -37 -422 -37q-600 0 -600 695v186q0 133 21.5 240t62 182t94 128t122.5 84t142 44.5t158 13.5q171 0 422 -35v-112q-264 24 -404 24q-92 0 -162.5 -15t-132 -53.5t-101.5 -102t-62.5 -163.5t-22.5 -235v-186q0 -161 31.5 -273t95.5 -176.5t149.5 -92.5
t202.5 -28q158 0 268 11v675h138v-774z" />
    <glyph glyph-name="H" unicode="H" horiz-adv-x="1449" 
d="M1276 0h-137v748h-828v-748h-137v1522h137v-650h828v650h137v-1522z" />
    <glyph glyph-name="I" unicode="I" horiz-adv-x="491" 
d="M315 0h-137v1522h137v-1522z" />
    <glyph glyph-name="J" unicode="J" horiz-adv-x="491" 
d="M313 -115q0 -82 -12.5 -138t-43.5 -99t-87 -63.5t-141 -20.5q-74 0 -142 14v105q45 -2 133 -2q54 0 86 11.5t47.5 40.5t20 61.5t4.5 90.5v1637h135v-1637z" />
    <glyph glyph-name="K" unicode="K" horiz-adv-x="1230" 
d="M1200 0h-188l-690 745v-745h-138v1522h138v-723l698 723h178l-723 -748z" />
    <glyph glyph-name="L" unicode="L" horiz-adv-x="1087" 
d="M1036 0h-862v1522h137v-1401h725v-121z" />
    <glyph glyph-name="M" unicode="M" horiz-adv-x="1619" 
d="M1446 0h-135v1104q0 65 8 237h-4q-8 -17 -103 -202l-317 -598h-172l-313 598q-16 33 -103 202h-4q6 -129 6 -237v-1104h-135v1522h180l363 -699q8 -16 90 -182h4q13 27 90 184l367 697h178v-1522z" />
    <glyph glyph-name="N" unicode="N" horiz-adv-x="1417" 
d="M1243 -2h-194l-641 1182q-76 144 -109 213h-2q6 -126 6 -263v-1130h-129v1522h195l643 -1170q25 -46 104 -209h2q-6 144 -6 267v1112h131v-1524z" />
    <glyph glyph-name="O" unicode="O" horiz-adv-x="1374" 
d="M1262 680q0 -354 -148.5 -530.5t-425.5 -176.5q-279 0 -427 176t-148 531v160q0 355 148 530.5t427 175.5q277 0 425.5 -176t148.5 -530v-160zM1124 680v160q0 161 -31.5 276t-91.5 181t-137 96t-176 30q-79 0 -144 -18t-120.5 -60.5t-93.5 -109t-59 -166.5t-21 -229
v-160q0 -584 438 -584q99 0 176 30t136.5 96t91.5 181.5t32 276.5z" />
    <glyph glyph-name="P" unicode="P" horiz-adv-x="1208" 
d="M1126 1065q0 -103 -27.5 -180t-77 -127.5t-125 -82t-164 -44.5t-200.5 -13q-105 0 -225 3v-621h-137v1524q41 1 114.5 2.5t134.5 2.5t118 1q113 0 199.5 -12t161.5 -42t123.5 -79.5t76 -125.5t28.5 -179v-27zM989 1065v27q-1 94 -27.5 155.5t-85 96.5t-138.5 49t-201 14
q-41 0 -230 -6v-660q82 -2 225 -2q241 0 349 71.5t108 254.5z" />
    <glyph glyph-name="Q" unicode="Q" horiz-adv-x="1374" 
d="M1262 680q0 -332 -131 -506.5t-375 -196.5v-118q0 -82 28 -112t123 -30h174v-94q-88 -16 -209 -16q-133 0 -192 55.5t-59 196.5v118q-246 22 -377 196t-131 507v160q0 355 148 530.5t427 175.5q277 0 425.5 -176t148.5 -530v-160zM1124 680v160q0 161 -31.5 276
t-91.5 181t-137 96t-176 30q-79 0 -144 -18t-120.5 -60.5t-93.5 -109t-59 -166.5t-21 -229v-160q0 -584 438 -584q99 0 176 30t136.5 96t91.5 181.5t32 276.5z" />
    <glyph glyph-name="R" unicode="R" horiz-adv-x="1273" 
d="M1219 0h-162l-379 621q-68 -3 -143 -3q-133 0 -224 3v-621h-137v1522q193 8 356 8q112 0 200.5 -12.5t165 -43t127 -80t79 -126t28.5 -178.5v-17q0 -180 -76.5 -280.5t-230.5 -143.5zM991 1073v17q0 93 -27.5 155t-87.5 97.5t-142.5 50t-203.5 14.5q-9 0 -219 -6v-660
q68 -2 224 -2q240 0 348 75t108 259z" />
    <glyph glyph-name="S" unicode="S" horiz-adv-x="1171" 
d="M1059 375q0 -198 -124 -300t-368 -102q-120 0 -239 12t-183 25v109q230 -27 422 -27q174 0 263.5 66.5t89.5 216.5q0 110 -58.5 176.5t-212.5 138.5l-207 96q-166 76 -247.5 168.5t-81.5 239.5q0 180 121.5 266t361.5 86q222 0 412 -37v-110q-229 26 -408 26
q-173 0 -261.5 -52.5t-88.5 -178.5q0 -101 58.5 -166t195.5 -127l207 -94q187 -85 267.5 -180t80.5 -252z" />
    <glyph glyph-name="T" unicode="T" horiz-adv-x="1245" 
d="M1184 1399h-494v-1399h-137v1399h-492v123h1123v-123z" />
    <glyph glyph-name="U" unicode="U" horiz-adv-x="1398" 
d="M1235 653q0 -341 -130.5 -509.5t-404.5 -168.5q-277 0 -406.5 168t-129.5 510v869h137v-854q0 -308 87.5 -439t311.5 -131q222 0 311 132.5t89 437.5v854h135v-869z" />
    <glyph glyph-name="V" unicode="V" horiz-adv-x="1345" 
d="M1284 1522l-520 -1522h-184l-519 1522h146l407 -1205q11 -31 21 -66.5t22 -82.5t17 -64h4q33 140 59 213l406 1205h141z" />
    <glyph glyph-name="W" unicode="W" horiz-adv-x="1810" 
d="M1718 1522l-299 -1522h-219l-252 1008q-6 29 -19.5 84t-19.5 84h-6q-7 -28 -20.5 -83.5t-20.5 -84.5l-250 -1008h-221l-299 1522h146l223 -1172q33 -184 43 -241h6q9 40 27.5 120.5t27.5 120.5l234 942h217l235 -948q52 -227 54 -235h8q13 89 41 241l223 1172h141z" />
    <glyph glyph-name="X" unicode="X" horiz-adv-x="1339" 
d="M1274 0h-168l-449 664l-438 -664h-153l516 772l-512 750h166l440 -652l434 652h154l-514 -756z" />
    <glyph glyph-name="Y" unicode="Y" horiz-adv-x="1230" 
d="M1176 1522l-492 -908v-614h-137v614l-492 908h150l307 -568q74 -141 102 -209h9q15 36 106 209l305 568h142z" />
    <glyph glyph-name="Z" unicode="Z" horiz-adv-x="1236" 
d="M1141 0h-1045v150l867 1249h-834v123h981v-150l-864 -1251h895v-121z" />
    <glyph glyph-name="bracketleft" unicode="[" horiz-adv-x="780" 
d="M672 -426h-447v1948h447v-117h-314v-1718h314v-113z" />
    <glyph glyph-name="backslash" unicode="\" horiz-adv-x="878" 
d="M813 0h-131l-623 1522h129z" />
    <glyph glyph-name="bracketright" unicode="]" horiz-adv-x="780" 
d="M553 -426h-447v113h314v1720h-314v115h447v-1948z" />
    <glyph glyph-name="asciicircum" unicode="^" horiz-adv-x="1425" 
d="M1202 831h-147l-344 566l-340 -566h-152l381 635h223z" />
    <glyph glyph-name="underscore" unicode="_" horiz-adv-x="1177" 
d="M1180 -203h-1198v92h1198v-92z" />
    <glyph glyph-name="grave" unicode="`" horiz-adv-x="882" 
d="M565 1262h-137l-303 315h164z" />
    <glyph glyph-name="a" unicode="a" horiz-adv-x="1087" 
d="M938 0h-129v80q-178 -107 -371 -107q-165 0 -248.5 78t-83.5 242v31q0 84 22.5 144t62 98t104.5 60t140 30t179 8h189v94q0 86 -10.5 134.5t-44.5 80.5t-89 42.5t-151 10.5q-130 0 -326 -22v98q13 2 58.5 10.5t66 11.5t59 8t75 7t77.5 2q132 0 215 -22t128 -72.5t61 -117
t16 -171.5v-758zM803 178v381h-189q-86 0 -142.5 -5.5t-104 -20t-73.5 -41t-40 -67.5t-14 -101v-39q0 -111 57.5 -159t167.5 -48q94 0 187 31.5t151 68.5z" />
    <glyph glyph-name="b" unicode="b" horiz-adv-x="1144" 
d="M1032 500q0 -281 -116.5 -404t-368.5 -123q-158 0 -383 25v1585h133v-508q144 68 305 68q223 0 326.5 -118.5t103.5 -381.5v-143zM897 500v143q0 214 -70.5 297.5t-238.5 83.5q-62 0 -145 -13.5t-146 -43.5v-863q120 -12 252 -12q187 0 267.5 89.5t80.5 318.5z" />
    <glyph glyph-name="c" unicode="c" horiz-adv-x="954" 
d="M862 8q-162 -35 -305 -35q-229 0 -336.5 126t-107.5 397v122q0 268 109 395.5t335 127.5q135 0 305 -35v-102q-193 20 -287 20q-83 0 -140.5 -18t-101.5 -62.5t-64.5 -125t-20.5 -200.5v-122q0 -123 20.5 -203.5t64 -125t100.5 -62t142 -17.5q87 0 287 23v-103z" />
    <glyph glyph-name="d" unicode="d" horiz-adv-x="1144" 
d="M981 0h-129v63q-163 -90 -330 -90q-205 0 -307 122t-102 384v137q0 148 31.5 251.5t94 162.5t144 85t192.5 26q119 0 273 -25v467h133v-1583zM848 170v834q-167 22 -264 22q-88 0 -146.5 -17.5t-103.5 -62.5t-65.5 -126t-20.5 -204v-137q0 -210 69.5 -300.5t227.5 -90.5
q135 0 303 82z" />
    <glyph glyph-name="e" unicode="e" horiz-adv-x="1144" 
d="M1036 510h-790v-25q0 -101 16 -170t56 -122t114 -78t186 -25q183 0 381 31v-107q-182 -41 -385 -41q-142 0 -238 31.5t-154.5 100.5t-83.5 167.5t-25 241.5v78q0 549 460 549q238 0 350.5 -141.5t112.5 -421.5v-68zM897 623v18q0 64 -7.5 116.5t-29.5 103.5t-57 86
t-93.5 56t-136.5 21t-137 -22t-94 -57t-57 -86.5t-29.5 -103t-7.5 -114.5l-2 -18h651z" />
    <glyph glyph-name="f" unicode="f" horiz-adv-x="802" 
d="M735 999h-340v-999h-135v999l-219 11v102h219v152q0 65 5.5 111t22.5 92t47 74t82 45.5t124 17.5q106 0 200 -23v-94q-118 10 -184 10q-103 0 -132.5 -48t-29.5 -185v-152h340v-113z" />
    <glyph glyph-name="g" unicode="g" horiz-adv-x="1146" 
d="M983 -41q0 -104 -19 -176t-66.5 -126t-132 -80t-210.5 -26q-181 0 -387 35v99q230 -19 387 -19q92 0 149 15.5t90 53t44.5 89t11.5 135.5v55q-144 -41 -266 -41q-239 0 -354 118.5t-115 393.5v144q0 265 116.5 388.5t376.5 123.5q148 0 375 -29v-1153zM850 127v881
q-119 18 -242 18q-198 0 -279 -92t-81 -305v-144q0 -221 77 -309t261 -88q133 0 264 39z" />
    <glyph glyph-name="h" unicode="h" 
d="M1032 0h-135v700q0 184 -55 254t-191 70q-166 0 -354 -94v-930h-133v1583h133v-545q201 103 379 103q186 0 271 -105t85 -331v-705z" />
    <glyph glyph-name="i" unicode="i" horiz-adv-x="483" 
d="M309 0h-135v1112h135v-1112zM311 1329h-137v254h137v-254z" />
    <glyph glyph-name="j" unicode="j" horiz-adv-x="483" 
d="M309 -152q0 -163 -54.5 -230t-197.5 -67q-59 0 -133 9v100q82 -4 121 -4q80 0 104.5 40t24.5 152v1264h135v-1264zM311 1327h-137v256h137v-256z" />
    <glyph glyph-name="k" unicode="k" horiz-adv-x="997" 
d="M969 0h-178l-494 563v-563h-133v1583h133v-979l491 508h177l-519 -526z" />
    <glyph glyph-name="l" unicode="l" horiz-adv-x="475" 
d="M305 0h-133v1583h133v-1583z" />
    <glyph glyph-name="m" unicode="m" horiz-adv-x="1710" 
d="M1554 0h-135v743q0 61 -3 98t-13.5 76t-31 59.5t-57 34t-89.5 13.5q-141 0 -314 -104q15 -76 15 -177v-743h-135v743q0 63 -2.5 99.5t-12.5 76t-29.5 59.5t-54.5 33t-86 13q-130 0 -309 -104v-920h-133v1112h133v-88q169 117 338 117q182 0 248 -125q186 125 358 125
q62 0 111 -13t81.5 -33t56 -53t35.5 -63.5t19 -75.5t8.5 -78.5t1.5 -81.5v-743z" />
    <glyph glyph-name="n" unicode="n" 
d="M1032 0h-135v705q0 181 -48.5 250t-180.5 69q-148 0 -371 -106v-918h-133v1112h133v-90q222 119 383 119q106 0 176 -27t108 -85t53 -134.5t15 -189.5v-705z" />
    <glyph glyph-name="o" unicode="o" horiz-adv-x="1155" 
d="M1040 498q0 -525 -462 -525q-463 0 -463 525v118q0 525 463 525q462 0 462 -525v-118zM907 498v118q0 214 -78 310t-251 96q-172 0 -251 -96.5t-79 -309.5v-118q0 -214 78.5 -311t251.5 -97t251 97t78 311z" />
    <glyph glyph-name="p" unicode="p" horiz-adv-x="1146" 
d="M1032 524q0 -123 -22 -217.5t-61 -157.5t-99 -102.5t-130.5 -56.5t-160.5 -17q-99 0 -264 27v-428h-131v1540h127v-80q75 48 166.5 78.5t179.5 30.5q203 0 299 -125.5t96 -409.5v-82zM899 524v82q0 230 -65 323t-216 93q-130 0 -323 -94v-815q170 -25 264 -25
q86 0 146 20t105.5 68t67 134t21.5 214z" />
    <glyph glyph-name="q" unicode="q" horiz-adv-x="1144" 
d="M981 -428h-133v471q-155 -70 -330 -70q-213 0 -309 122.5t-96 412.5v82q0 161 28.5 267.5t92 169.5t152 88.5t220.5 25.5q171 0 375 -27v-1542zM848 154v858q-130 10 -244 10q-79 0 -132.5 -10t-99 -37t-72 -75.5t-40.5 -124.5t-14 -185v-82q0 -234 65.5 -325t227.5 -91
q151 0 309 62z" />
    <glyph glyph-name="r" unicode="r" horiz-adv-x="739" 
d="M713 1020q-103 0 -217.5 -25t-200.5 -77v-918h-131v1112h131v-90q166 119 418 119v-121z" />
    <glyph glyph-name="s" unicode="s" horiz-adv-x="966" 
d="M877 274q0 -63 -20 -114.5t-64 -95t-125.5 -67.5t-194.5 -24q-100 0 -202 13.5t-154 27.5v105q10 -1 63.5 -8t90.5 -11t94.5 -8t103.5 -4q149 0 211.5 47t62.5 137q0 83 -48.5 128.5t-200.5 107.5l-80 31q-165 67 -238.5 141.5t-73.5 189.5q0 138 98.5 204.5t299.5 66.5
q94 0 186 -12.5t139 -26.5v-103q-186 25 -319 25q-143 0 -205.5 -33t-62.5 -121q0 -76 48 -120.5t181 -98.5l80 -33q191 -80 260.5 -150.5t69.5 -193.5z" />
    <glyph glyph-name="t" unicode="t" horiz-adv-x="798" 
d="M741 -2q-113 -25 -200 -25q-141 0 -196.5 61.5t-55.5 215.5v749l-242 11v102h242v299h133v-299h319v-113h-319v-743q0 -108 24 -141t109 -33q104 0 186 10v-94z" />
    <glyph glyph-name="u" unicode="u" 
d="M1024 0h-133v90q-226 -117 -395 -117q-100 0 -167.5 30t-104 89.5t-51.5 135t-15 180.5v704h131v-704q0 -180 49.5 -250t181.5 -70q145 0 371 109v915h133v-1112z" />
    <glyph glyph-name="v" unicode="v" horiz-adv-x="1034" 
d="M993 1112l-383 -1112h-186l-383 1112h145l250 -752q28 -85 80 -268h4q10 32 36 123t44 145l248 752h145z" />
    <glyph glyph-name="w" unicode="w" horiz-adv-x="1658" 
d="M1597 1112l-264 -1112h-192l-248 733q-36 106 -59 197h-7q-56 -189 -59 -197l-248 -733h-192l-267 1112h138l176 -756q33 -155 45 -252h8q10 32 35.5 120t40.5 132l223 672h207l223 -672q15 -44 40.5 -132t35.5 -120h8q12 97 45 252l174 756h137z" />
    <glyph glyph-name="x" unicode="x" horiz-adv-x="1050" 
d="M1001 0h-161l-324 457l-317 -457h-158l399 569l-379 543h158l322 -455l307 455h153l-391 -559z" />
    <glyph glyph-name="y" unicode="y" horiz-adv-x="1064" 
d="M1014 1112l-424 -1200q-29 -81 -51 -132t-53.5 -99.5t-67.5 -74t-86.5 -40.5t-116.5 -15q-83 0 -195 15v106q107 -8 191 -8q51 0 84 11t61.5 44.5t49 77.5t51.5 129l26 76l-430 1110h148l266 -713q2 -5 84 -249q34 124 76 251l243 711h144z" />
    <glyph glyph-name="z" unicode="z" horiz-adv-x="980" 
d="M887 0h-801v147l653 852h-628v113h774v-137l-662 -864h664v-111z" />
    <glyph glyph-name="braceleft" unicode="{" horiz-adv-x="821" 
d="M711 -428h-113q-102 0 -168 18.5t-100 57t-46 85.5t-12 117v373q0 107 -28 161t-115 114v98q87 60 115 113.5t28 160.5v373q0 72 12 119t46 85.5t100 56.5t168 18h111v-115h-111q-53 0 -87.5 -6t-56 -17t-32 -32.5t-13.5 -45t-3 -63.5v-373q0 -119 -34.5 -192
t-119.5 -131q85 -60 119.5 -133.5t34.5 -190.5v-373q0 -51 5 -78t25 -49t58 -30t104 -8h113v-113z" />
    <glyph glyph-name="bar" unicode="|" horiz-adv-x="577" 
d="M354 -428h-133v1950h133v-1950z" />
    <glyph glyph-name="braceright" unicode="}" horiz-adv-x="821" 
d="M692 498q-87 -60 -115 -114t-28 -161v-373q0 -70 -12 -117t-46 -85.5t-100 -57t-168 -18.5h-112v113h112q66 0 104.5 8t58 30t25 49t5.5 78v373q0 118 34.5 191t118.5 133q-84 58 -118.5 131t-34.5 192v373q0 50 -5.5 77t-25 49t-58 30t-104.5 8h-110v115h110
q102 0 168 -18t100 -56.5t46 -85.5t12 -119v-373q0 -107 28 -160.5t115 -113.5v-98z" />
    <glyph glyph-name="asciitilde" unicode="~" horiz-adv-x="1425" 
d="M1171 985q0 -68 -9 -117t-31 -88.5t-63.5 -59.5t-102.5 -20q-118 0 -232 99l-119 104q-48 46 -77.5 64t-69.5 18q-63 0 -84 -42.5t-21 -137.5v-86h-110v86q0 140 49 213.5t168 73.5q58 0 103 -24.5t108 -80.5l115 -98q89 -82 163 -82q65 0 84 42t19 136v88h110v-88z" />
    <glyph glyph-name="uni00A0" unicode="&#xa0;" horiz-adv-x="411" 
 />
    <glyph glyph-name="exclamdown" unicode="&#xa1;" horiz-adv-x="473" 
d="M309 -449h-145l14 1168h119zM305 850h-137v260h137v-260z" />
    <glyph glyph-name="cent" unicode="&#xa2;" horiz-adv-x="978" 
d="M868 1106v-102q-190 20 -286 20q-81 0 -139.5 -19t-102 -62.5t-65 -119t-21.5 -184.5v-164q0 -111 21 -187t64.5 -119.5t101.5 -62t141 -18.5q89 0 286 23v-103q-132 -28 -250 -35v-223h-122v227q-192 19 -284.5 142.5t-92.5 355.5v164q0 458 377 498v227h122v-225
q116 -5 250 -33z" />
    <glyph glyph-name="sterling" unicode="&#xa3;" horiz-adv-x="1267" 
d="M1130 1505v-108q-187 22 -362 22q-71 0 -121.5 -8t-87.5 -28t-59.5 -47t-35.5 -73t-17.5 -99t-4.5 -130v-182h533v-115h-533v-340q0 -163 -90 -280h778v-117h-929v106q104 112 104 291v340h-168v115h168v182q0 108 11.5 184.5t41 140.5t81 102t131 58.5t190.5 20.5
q185 0 370 -35z" />
    <glyph glyph-name="currency" unicode="&#xa4;" horiz-adv-x="1312" 
d="M1151 375l-94 -94l-156 155q-111 -82 -246 -82q-141 0 -245 82l-158 -153l-92 92l155 155q-82 108 -82 246q0 139 82 246l-155 156l94 92l156 -154q105 80 245 80t248 -80l154 154l94 -92l-156 -154q82 -116 82 -248q0 -136 -80 -248zM965 776q0 127 -90.5 220.5
t-219.5 93.5q-126 0 -216.5 -91.5t-90.5 -222.5q0 -128 90.5 -220.5t216.5 -92.5q125 0 217 91.5t93 221.5z" />
    <glyph glyph-name="yen" unicode="&#xa5;" horiz-adv-x="1331" 
d="M1194 530h-463v-530h-137v530h-465v109h451l-127 238h-324v108h262l-289 537h150l307 -568q79 -150 103 -209h8q15 36 106 209l305 568h142l-291 -537h262v-108h-322l-129 -238h451v-109z" />
    <glyph glyph-name="brokenbar" unicode="&#xa6;" horiz-adv-x="577" 
d="M354 -428h-133v803h133v-803zM354 1522v-803h-133v803h133z" />
    <glyph glyph-name="section" unicode="&#xa7;" horiz-adv-x="1288" 
d="M207 -420v115q243 -27 411 -27q180 0 266.5 69t86.5 208q0 78 -23 127t-83 95.5t-187 111.5l-207 104q-151 78 -225 168.5t-74 220.5q0 128 61 217q-63 92 -63 209q0 181 122 264.5t363 83.5q209 0 410 -37v-114q-260 26 -406 26q-183 0 -264.5 -51t-81.5 -172
q0 -101 55.5 -166t202.5 -137l199 -98q193 -94 269.5 -185.5t76.5 -228.5q0 -121 -59 -219q59 -98 59 -219q0 -186 -125 -294t-366 -108q-222 0 -418 37zM961 256q16 39 16 102q0 83 -22.5 133.5t-76 90.5t-167.5 96l-199 98q-115 58 -188 123q-25 -52 -25 -111
q0 -50 9.5 -87.5t24 -63.5t48 -52t65.5 -44t93 -49l200 -101q140 -68 222 -135z" />
    <glyph glyph-name="dieresis" unicode="&#xa8;" horiz-adv-x="903" 
d="M748 1315h-121v244h121v-244zM279 1559v-244h-123v244h123z" />
    <glyph glyph-name="copyright" unicode="&#xa9;" horiz-adv-x="1714" 
d="M1571 772q0 -231 -93.5 -401t-254.5 -256t-369 -86t-369.5 86t-255.5 256t-94 401q0 230 94 400.5t255.5 257t369.5 86.5q155 0 286.5 -50.5t227 -144t149.5 -235t54 -314.5zM1462 772q0 296 -168.5 468.5t-439.5 172.5q-270 0 -438 -172.5t-168 -468.5q0 -297 168 -470
t438 -173q178 0 315 76t215 222.5t78 344.5zM866 332q-180 0 -274 98t-94 285v112q0 190 93.5 286.5t274.5 96.5q145 0 224 -18v-98q-133 14 -220 14q-136 0 -192.5 -64.5t-56.5 -216.5v-112q0 -152 56.5 -216.5t192.5 -64.5q106 0 220 15v-99q-63 -18 -224 -18z" />
    <glyph glyph-name="ordfeminine" unicode="&#xaa;" horiz-adv-x="808" 
d="M655 895h-106v49q-108 -65 -234 -65q-100 0 -156.5 48t-56.5 144v21q0 52 16.5 89t43 59t71 34t89.5 16t110 4h113v45q0 93 -33.5 122.5t-146.5 29.5q-82 0 -211 -12v73q116 25 227 25t171 -25.5t81.5 -74.5t21.5 -138v-444zM545 1022v197h-113q-127 0 -174 -23.5
t-47 -101.5v-27q0 -59 33.5 -80.5t99.5 -21.5q56 0 112.5 18t88.5 39z" />
    <glyph glyph-name="guillemotleft" unicode="&#xab;" horiz-adv-x="1255" 
d="M440 160l-325 424l325 422h160l-319 -422l319 -424h-160zM651 584l330 422h160l-324 -422l324 -424h-160z" />
    <glyph glyph-name="logicalnot" unicode="&#xac;" horiz-adv-x="1425" 
d="M1169 516h-114v461h-801v113h915v-574z" />
    <glyph glyph-name="uni00AD" unicode="&#xad;" horiz-adv-x="808" 
d="M655 537h-501v114h501v-114z" />
    <glyph glyph-name="registered" unicode="&#xae;" horiz-adv-x="1380" 
d="M1235 979q0 -259 -151 -418.5t-398 -159.5t-397 159.5t-150 418.5q0 260 150 418.5t397 158.5t398 -158.5t151 -418.5zM1141 979q0 225 -122.5 357t-332.5 132t-332.5 -132t-122.5 -357q0 -226 122.5 -359t332.5 -133t332.5 133t122.5 359zM954 674h-114l-164 254h-105
v-254h-94v649q144 4 168 4q131 0 199.5 -43t68.5 -149v-7q0 -146 -137 -184zM815 1128v7q0 67 -40 89.5t-130 22.5h-74v-243h84q81 0 120.5 27.5t39.5 96.5z" />
    <glyph glyph-name="macron" unicode="&#xaf;" horiz-adv-x="923" 
d="M813 1360h-702v106h702v-106z" />
    <glyph glyph-name="degree" unicode="&#xb0;" horiz-adv-x="915" 
d="M815 1190q0 -149 -103 -250.5t-253 -101.5q-148 0 -251.5 101.5t-103.5 250.5t103.5 251.5t251.5 102.5q149 0 252.5 -102.5t103.5 -251.5zM700 1190q0 106 -70 175t-171 69t-171.5 -69t-70.5 -175q0 -104 70.5 -173t171.5 -69t171 69t70 173z" />
    <glyph glyph-name="plusminus" unicode="&#xb1;" horiz-adv-x="1425" 
d="M1214 0h-1007v113h1007v-113zM1225 786h-455v-456h-113v456h-458v113h458v457h113v-457h455v-113z" />
    <glyph glyph-name="two.superior" unicode="&#xb2;" horiz-adv-x="862" 
d="M133 1493v84q122 27 281 27q167 0 247 -51t80 -167q0 -92 -53.5 -155t-200.5 -135q-110 -54 -159 -92t-67.5 -83t-18.5 -126v-11h487v-98h-610v90q0 107 28 174.5t87.5 115.5t179.5 108q69 33 109 57.5t61.5 49.5t27.5 47t6 56q0 71 -50.5 99t-166.5 28q-97 0 -268 -18z
" />
    <glyph glyph-name="three.superior" unicode="&#xb3;" horiz-adv-x="854" 
d="M391 668q-144 0 -268 24v86q196 -16 258 -16q124 0 176.5 37.5t52.5 136.5v16q0 36 -5.5 60t-22.5 47.5t-52.5 35t-91.5 11.5h-276v92h276q45 0 77 9t50 23t28.5 36t13.5 42.5t3 47.5v10q0 80 -49.5 111.5t-179.5 31.5q-54 0 -258 -16v84q36 8 117 17.5t151 9.5
q177 0 259.5 -52.5t82.5 -179.5v-12q0 -159 -129 -209q129 -44 129 -201v-16q0 -140 -83 -203t-259 -63z" />
    <glyph glyph-name="acute" unicode="&#xb4;" horiz-adv-x="907" 
d="M760 1577l-303 -315h-135l274 315h164z" />
    <glyph glyph-name="mu" unicode="&#xb5;" horiz-adv-x="1284" 
d="M1075 0h-133v90q-226 -117 -397 -117q-145 0 -203 78v-479h-135v1540h133v-704q0 -180 49.5 -250t181.5 -70q145 0 371 109v915h133v-1112z" />
    <glyph glyph-name="paragraph" unicode="&#xb6;" horiz-adv-x="1458" 
d="M1300 -412h-124v1819h-154v-1819h-125v951h-117q-119 0 -211.5 12.5t-176 45t-138.5 86t-87 138.5t-32 199v20q0 86 16.5 155t46 119.5t75.5 87.5t99 60t122.5 37t140 19.5t158.5 5.5h507v-1936z" />
    <glyph glyph-name="periodcentered" unicode="&#xb7;" horiz-adv-x="436" 
d="M287 614h-137v283h137v-283z" />
    <glyph glyph-name="cedilla" unicode="&#xb8;" horiz-adv-x="890" 
d="M571 -139l-274 -289h-141l247 289h168z" />
    <glyph glyph-name="one.superior" unicode="&#xb9;" horiz-adv-x="792" 
d="M684 686h-559v90l217 4v697l-219 -70v100l250 86h92v-813l219 -4v-90z" />
    <glyph glyph-name="ordmasculine" unicode="&#xba;" horiz-adv-x="815" 
d="M713 1196q0 -154 -77 -238t-228 -84t-228.5 84t-77.5 238v64q0 153 77 235t229 82t228.5 -82t76.5 -235v-64zM602 1196v64q0 115 -46 170t-148 55q-101 0 -148 -55t-47 -170v-64q0 -115 46.5 -171t148.5 -56q101 0 147.5 55.5t46.5 171.5z" />
    <glyph glyph-name="guillemotright" unicode="&#xbb;" horiz-adv-x="1255" 
d="M1141 584l-326 -424h-160l320 424l-320 422h160zM274 1006l330 -422l-330 -424h-159l323 424l-323 422h159z" />
    <glyph glyph-name="onequarter" unicode="&#xbc;" horiz-adv-x="1818" 
d="M1526 1522l-971 -1522h-135l969 1522h137zM686 629h-559v90l217 4v696l-219 -69v100l250 86h92v-813l219 -4v-90zM1561 0h-123v240h-461v100l463 563h121v-571h147v-92h-147v-240zM1442 332v430l-348 -430h348z" />
    <glyph glyph-name="onehalf" unicode="&#xbd;" horiz-adv-x="1986" 
d="M1526 1522l-971 -1522h-135l969 1522h137zM686 629h-559v90l217 4v696l-219 -69v100l250 86h92v-813l219 -4v-90zM1280 807v84q122 27 281 27q167 0 247 -51t80 -167q0 -92 -53.5 -155t-200.5 -135q-110 -54 -159 -92t-67.5 -83t-18.5 -126v-11h487v-98h-610v90
q0 156 59.5 233t235.5 164q131 63 167.5 103.5t36.5 107.5q0 71 -50.5 99t-166.5 28q-97 0 -268 -18z" />
    <glyph glyph-name="threequarters" unicode="&#xbe;" horiz-adv-x="1878" 
d="M1532 1522l-969 -1522h-137l971 1522h135zM119 1436v84q34 8 115 17t151 9q178 0 261 -52t83 -179v-12q0 -159 -129 -209q129 -45 129 -201v-16q0 -140 -83 -203.5t-261 -63.5q-137 0 -266 25v86q196 -16 256 -16q125 0 178 37.5t53 136.5v16q0 36 -6 60.5t-23 47.5
t-53 34.5t-92 11.5h-276v92h278q55 0 91.5 12.5t53 37t22 48.5t5.5 59v11q0 80 -49.5 111.5t-179.5 31.5q-54 0 -258 -16zM1610 0h-123v240h-461v100l463 563h121v-571h147v-92h-147v-240zM1491 332v430l-348 -430h348z" />
    <glyph glyph-name="questiondown" unicode="&#xbf;" horiz-adv-x="927" 
d="M868 -436q-164 -41 -321 -41q-201 0 -307.5 72.5t-106.5 242.5v12q0 107 44.5 193t166.5 205q73 72 113 119t61.5 92.5t27 81.5t5.5 96v80h131v-80q0 -92 -13 -150t-60 -130.5t-142 -163.5q-119 -113 -158 -182.5t-39 -160.5v-12q0 -113 71 -154.5t216 -41.5q99 0 311 24
v-102zM682 846h-135v266h135v-266z" />
    <glyph glyph-name="Agrave" unicode="&#xc0;" horiz-adv-x="1316" 
d="M1268 0h-146l-178 539h-577l-181 -539h-139l516 1522h191zM901 664l-172 510q-38 111 -65 235h-15q-30 -125 -65 -235l-176 -510h493zM817 1616h-137l-301 315h164z" />
    <glyph glyph-name="Aacute" unicode="&#xc1;" horiz-adv-x="1316" 
d="M1268 0h-146l-178 539h-577l-181 -539h-139l516 1522h191zM901 664l-172 510q-38 111 -65 235h-15q-30 -125 -65 -235l-176 -510h493zM973 1931l-301 -315h-137l274 315h164z" />
    <glyph glyph-name="Acircumflex" unicode="&#xc2;" horiz-adv-x="1316" 
d="M1268 0h-146l-178 539h-577l-181 -539h-139l516 1522h191zM901 664l-172 510q-38 111 -65 235h-15q-30 -125 -65 -235l-176 -510h493zM1024 1616h-137l-232 237l-231 -237h-137l282 315h172z" />
    <glyph glyph-name="Atilde" unicode="&#xc3;" horiz-adv-x="1316" 
d="M1268 0h-146l-178 539h-577l-181 -539h-139l516 1522h191zM901 664l-172 510q-38 111 -65 235h-15q-30 -125 -65 -235l-176 -510h493zM1047 1860q0 -125 -42 -189.5t-143 -64.5q-53 0 -97.5 21.5t-98.5 68.5l-84 80q-39 38 -65.5 52.5t-61.5 14.5q-53 0 -70.5 -38.5
t-17.5 -116.5v-70h-99v70q0 122 43.5 186.5t143.5 64.5q55 0 94.5 -18.5t93.5 -65.5l86 -79q40 -39 68.5 -55.5t62.5 -16.5q53 0 70.5 39t17.5 117v69h99v-69z" />
    <glyph glyph-name="Adieresis" unicode="&#xc4;" horiz-adv-x="1316" 
d="M1268 0h-146l-178 539h-577l-181 -539h-139l516 1522h191zM901 664l-172 510q-38 111 -65 235h-15q-30 -125 -65 -235l-176 -510h493zM952 1657h-123v244h123v-244zM483 1901v-244h-123v244h123z" />
    <glyph glyph-name="Aring" unicode="&#xc5;" horiz-adv-x="1316" 
d="M1268 0h-146l-178 539h-577l-181 -539h-139l516 1522h191zM901 664l-172 510q-38 111 -65 235h-15q-30 -125 -65 -235l-176 -510h493zM893 1800q0 -111 -64 -166t-170 -55t-171.5 55.5t-65.5 165.5t65.5 165.5t171.5 55.5t170 -55t64 -166zM801 1800q0 72 -40 104.5
t-102 32.5q-141 0 -141 -137q0 -72 39 -104.5t102 -32.5q62 0 102 33t40 104z" />
    <glyph glyph-name="AE" unicode="&#xc6;" horiz-adv-x="1929" 
d="M1817 0h-875v539h-563l-178 -539h-140l510 1522h1246v-123h-740v-543h692v-125h-692v-610h740v-121zM942 662v739h-276q-46 -149 -70 -221l-176 -518h522z" />
    <glyph glyph-name="Ccedilla" unicode="&#xc7;" horiz-adv-x="1126" 
d="M1065 4q-198 -31 -354 -31q-113 0 -202 21t-164.5 71t-125.5 130t-78 200.5t-28 278.5v174q0 158 28 278t78 199t125.5 129t164.5 71t202 21q159 0 354 -33v-112q-231 22 -354 22q-240 0 -350.5 -131.5t-110.5 -443.5v-174q0 -312 110.5 -445t350.5 -133q112 0 354 23
v-115zM770 -139l-276 -289h-140l248 289h168z" />
    <glyph glyph-name="Egrave" unicode="&#xc8;" horiz-adv-x="1163" 
d="M1051 0h-877v1522h877v-123h-740v-543h690v-125h-690v-610h740v-121zM721 1616h-137l-301 315h161z" />
    <glyph glyph-name="Eacute" unicode="&#xc9;" horiz-adv-x="1163" 
d="M1051 0h-877v1522h877v-123h-740v-543h690v-125h-690v-610h740v-121zM954 1931l-303 -315h-135l275 315h163z" />
    <glyph glyph-name="Ecircumflex" unicode="&#xca;" horiz-adv-x="1163" 
d="M1051 0h-877v1522h877v-123h-740v-543h690v-125h-690v-610h740v-121zM985 1616h-137l-232 237l-231 -237h-137l282 315h172z" />
    <glyph glyph-name="Edieresis" unicode="&#xcb;" horiz-adv-x="1163" 
d="M1051 0h-877v1522h877v-123h-740v-543h690v-125h-690v-610h740v-121zM911 1655h-120v243h120v-243zM442 1898v-243h-123v243h123z" />
    <glyph glyph-name="Igrave" unicode="&#xcc;" horiz-adv-x="491" 
d="M315 0h-137v1522h137v-1522zM412 1616h-138l-303 315h164z" />
    <glyph glyph-name="Iacute" unicode="&#xcd;" horiz-adv-x="491" 
d="M315 0h-137v1522h137v-1522zM555 1929l-301 -315h-137l274 315h164z" />
    <glyph glyph-name="Icircumflex" unicode="&#xce;" horiz-adv-x="491" 
d="M315 0h-137v1522h137v-1522zM614 1616h-137l-231 237l-232 -237h-137l283 315h172z" />
    <glyph glyph-name="Idieresis" unicode="&#xcf;" horiz-adv-x="491" 
d="M315 0h-137v1522h137v-1522zM543 1657h-121v244h121v-244zM74 1901v-244h-123v244h123z" />
    <glyph glyph-name="Eth" unicode="&#xd0;" horiz-adv-x="1349" 
d="M1237 672q0 -339 -155.5 -509.5t-497.5 -170.5q-156 0 -410 8v731h-117v121h117v670q212 6 410 6q337 0 495 -170t158 -506v-180zM1100 672v180q0 153 -33 260t-101 171.5t-164 93t-229 28.5q-102 0 -262 -4v-549h340v-121h-340v-610q156 -8 262 -8q268 0 397.5 129
t129.5 430z" />
    <glyph glyph-name="Ntilde" unicode="&#xd1;" horiz-adv-x="1417" 
d="M1243 -2h-194l-641 1182q-76 144 -109 213h-2q6 -126 6 -263v-1130h-129v1522h195l643 -1170q25 -46 104 -209h2q-6 144 -6 267v1112h131v-1524zM1098 1858q0 -125 -41 -189.5t-142 -64.5q-54 0 -98.5 21t-97.5 69l-84 78q-40 39 -66.5 54t-60.5 15q-53 0 -70.5 -39
t-17.5 -119v-69h-101v69q0 123 44.5 188.5t144.5 65.5q55 0 95 -19t93 -67l86 -79q41 -38 69 -54t62 -16q53 0 69.5 38t16.5 118v67h99v-67z" />
    <glyph glyph-name="Ograve" unicode="&#xd2;" horiz-adv-x="1374" 
d="M1262 680q0 -354 -148.5 -530.5t-425.5 -176.5q-279 0 -427 176t-148 531v160q0 355 148 530.5t427 175.5q277 0 425.5 -176t148.5 -530v-160zM1124 680v160q0 161 -31.5 276t-91.5 181t-137 96t-176 30q-79 0 -144 -18t-120.5 -60.5t-93.5 -109t-59 -166.5t-21 -229
v-160q0 -584 438 -584q99 0 176 30t136.5 96t91.5 181.5t32 276.5zM825 1616h-137l-301 315h162z" />
    <glyph glyph-name="Oacute" unicode="&#xd3;" horiz-adv-x="1374" 
d="M1262 680q0 -354 -148.5 -530.5t-425.5 -176.5q-279 0 -427 176t-148 531v160q0 355 148 530.5t427 175.5q277 0 425.5 -176t148.5 -530v-160zM1124 680v160q0 161 -31.5 276t-91.5 181t-137 96t-176 30q-79 0 -144 -18t-120.5 -60.5t-93.5 -109t-59 -166.5t-21 -229
v-160q0 -584 438 -584q99 0 176 30t136.5 96t91.5 181.5t32 276.5zM993 1931l-301 -315h-137l276 315h162z" />
    <glyph glyph-name="Ocircumflex" unicode="&#xd4;" horiz-adv-x="1374" 
d="M1262 680q0 -354 -148.5 -530.5t-425.5 -176.5q-279 0 -427 176t-148 531v160q0 355 148 530.5t427 175.5q277 0 425.5 -176t148.5 -530v-160zM1124 680v160q0 161 -31.5 276t-91.5 181t-137 96t-176 30q-79 0 -144 -18t-120.5 -60.5t-93.5 -109t-59 -166.5t-21 -229
v-160q0 -584 438 -584q99 0 176 30t136.5 96t91.5 181.5t32 276.5zM1055 1614h-137l-232 239l-231 -239h-138l283 315h172z" />
    <glyph glyph-name="Otilde" unicode="&#xd5;" horiz-adv-x="1374" 
d="M1262 680q0 -354 -148.5 -530.5t-425.5 -176.5q-279 0 -427 176t-148 531v160q0 355 148 530.5t427 175.5q277 0 425.5 -176t148.5 -530v-160zM1124 680v160q0 161 -31.5 276t-91.5 181t-137 96t-176 30q-79 0 -144 -18t-120.5 -60.5t-93.5 -109t-59 -166.5t-21 -229
v-160q0 -584 438 -584q99 0 176 30t136.5 96t91.5 181.5t32 276.5zM1075 1860q0 -125 -41 -189.5t-141 -64.5q-54 0 -99 21.5t-98 68.5l-84 78q-40 39 -66.5 54t-60.5 15q-53 0 -70.5 -38.5t-17.5 -118.5v-70h-100v70q0 123 44 188t144 65q55 0 95.5 -19t93.5 -67l86 -79
q41 -38 69 -54t62 -16q53 0 69.5 38t16.5 118v67h98v-67z" />
    <glyph glyph-name="Odieresis" unicode="&#xd6;" horiz-adv-x="1374" 
d="M1262 680q0 -354 -148.5 -530.5t-425.5 -176.5q-279 0 -427 176t-148 531v160q0 355 148 530.5t427 175.5q277 0 425.5 -176t148.5 -530v-160zM1124 680v160q0 161 -31.5 276t-91.5 181t-137 96t-176 30q-79 0 -144 -18t-120.5 -60.5t-93.5 -109t-59 -166.5t-21 -229
v-160q0 -584 438 -584q99 0 176 30t136.5 96t91.5 181.5t32 276.5zM983 1659h-121v244h121v-244zM514 1903v-244h-123v244h123z" />
    <glyph glyph-name="multiply" unicode="&#xd7;" horiz-adv-x="1425" 
d="M1126 465l-79 -78l-334 334l-338 -338l-78 78l338 340l-340 338l78 78l340 -338l336 338l79 -80l-337 -338z" />
    <glyph glyph-name="Oslash" unicode="&#xd8;" horiz-adv-x="1374" 
d="M1262 680q0 -354 -148.5 -530.5t-425.5 -176.5q-245 0 -387 136l-76 -109h-143l141 201q-110 173 -110 479v160q0 355 148 530.5t427 175.5q248 0 389 -141l82 117h141l-145 -207q107 -176 107 -475v-160zM999 1296q-110 127 -311 127q-79 0 -144 -18t-120.5 -60.5
t-93.5 -109t-59 -166.5t-21 -229v-160q0 -227 65 -354zM1124 680v160q0 217 -61 348l-684 -971q107 -121 309 -121q99 0 176 30t136.5 96t91.5 181.5t32 276.5z" />
    <glyph glyph-name="Ugrave" unicode="&#xd9;" horiz-adv-x="1398" 
d="M1235 653q0 -341 -130.5 -509.5t-404.5 -168.5q-277 0 -406.5 168t-129.5 510v869h137v-854q0 -308 87.5 -439t311.5 -131q222 0 311 132.5t89 437.5v854h135v-869zM815 1616h-137l-301 315h162z" />
    <glyph glyph-name="Uacute" unicode="&#xda;" horiz-adv-x="1398" 
d="M1235 653q0 -341 -130.5 -509.5t-404.5 -168.5q-277 0 -406.5 168t-129.5 510v869h137v-854q0 -308 87.5 -439t311.5 -131q222 0 311 132.5t89 437.5v854h135v-869zM1030 1933l-301 -315h-137l274 315h164z" />
    <glyph glyph-name="Ucircumflex" unicode="&#xdb;" horiz-adv-x="1398" 
d="M1235 653q0 -341 -130.5 -509.5t-404.5 -168.5q-277 0 -406.5 168t-129.5 510v869h137v-854q0 -308 87.5 -439t311.5 -131q222 0 311 132.5t89 437.5v854h135v-869zM1069 1616h-137l-232 237l-231 -237h-137l282 315h172z" />
    <glyph glyph-name="Udieresis" unicode="&#xdc;" horiz-adv-x="1398" 
d="M1235 653q0 -341 -130.5 -509.5t-404.5 -168.5q-277 0 -406.5 168t-129.5 510v869h137v-854q0 -308 87.5 -439t311.5 -131q222 0 311 132.5t89 437.5v854h135v-869zM993 1657h-123v244h123v-244zM524 1901v-244h-123v244h123z" />
    <glyph glyph-name="Yacute" unicode="&#xdd;" horiz-adv-x="1230" 
d="M1176 1522l-492 -908v-614h-137v614l-492 908h150l307 -568q74 -141 102 -209h9q15 36 106 209l305 568h142zM969 1931l-301 -315h-138l275 315h164z" />
    <glyph glyph-name="Thorn" unicode="&#xde;" horiz-adv-x="1208" 
d="M1126 799q0 -103 -27.5 -180t-77 -127.5t-125 -82t-164 -44.5t-200.5 -13q-145 0 -225 2v-354h-137v1524h137v-264q148 4 230 4q142 0 244 -20t182.5 -68.5t121 -135.5t41.5 -215v-26zM989 799v26q-1 94 -27.5 155.5t-85 97t-139 49.5t-200.5 14q-41 0 -230 -6v-660
q82 -2 225 -2q241 0 349 71.5t108 254.5z" />
    <glyph glyph-name="germandbls" unicode="&#xdf;" horiz-adv-x="1251" 
d="M315 0h-135v1047q0 281 109.5 423t361.5 142q234 0 344.5 -110.5t110.5 -299.5v-18q0 -133 -60.5 -223t-175.5 -127q124 -33 196.5 -126.5t72.5 -232.5v-43q0 -214 -119.5 -332t-364.5 -118q-59 0 -118 6v106q59 -4 114 -4q182 0 269.5 83t87.5 261v41q0 299 -377 299
h-94v107h94q185 0 264.5 79.5t79.5 223.5v18q0 143 -72.5 218t-251.5 75q-186 0 -261 -100.5t-75 -347.5v-1047z" />
    <glyph glyph-name="agrave" unicode="&#xe0;" horiz-adv-x="1087" 
d="M938 0h-129v80q-178 -107 -371 -107q-165 0 -248.5 78t-83.5 242v31q0 84 22.5 144t62 98t104.5 60t140 30t179 8h189v94q0 86 -10.5 134.5t-44.5 80.5t-89 42.5t-151 10.5q-130 0 -326 -22v98q205 39 336 39q132 0 215 -22t128 -72.5t61 -117t16 -171.5v-758zM803 178
v381h-189q-86 0 -142.5 -5.5t-104 -20t-73.5 -41t-40 -67.5t-14 -101v-39q0 -111 57.5 -159t167.5 -48q94 0 187 31.5t151 68.5zM672 1262h-137l-302 315h164z" />
    <glyph glyph-name="aacute" unicode="&#xe1;" horiz-adv-x="1087" 
d="M938 0h-129v80q-178 -107 -371 -107q-165 0 -248.5 78t-83.5 242v31q0 84 22.5 144t62 98t104.5 60t140 30t179 8h189v94q0 86 -10.5 134.5t-44.5 80.5t-89 42.5t-151 10.5q-130 0 -326 -22v98q205 39 336 39q132 0 215 -22t128 -72.5t61 -117t16 -171.5v-758zM803 178
v381h-189q-86 0 -142.5 -5.5t-104 -20t-73.5 -41t-40 -67.5t-14 -101v-39q0 -111 57.5 -159t167.5 -48q94 0 187 31.5t151 68.5zM885 1577l-303 -315h-136l275 315h164z" />
    <glyph glyph-name="acircumflex" unicode="&#xe2;" horiz-adv-x="1087" 
d="M938 0h-129v80q-178 -107 -371 -107q-165 0 -248.5 78t-83.5 242v31q0 84 22.5 144t62 98t104.5 60t140 30t179 8h189v94q0 86 -10.5 134.5t-44.5 80.5t-89 42.5t-151 10.5q-130 0 -326 -22v98q205 39 336 39q132 0 215 -22t128 -72.5t61 -117t16 -171.5v-758zM803 178
v381h-189q-86 0 -142.5 -5.5t-104 -20t-73.5 -41t-40 -67.5t-14 -101v-39q0 -111 57.5 -159t167.5 -48q94 0 187 31.5t151 68.5zM915 1262h-137l-233 237l-230 -237h-137l283 315h172z" />
    <glyph glyph-name="atilde" unicode="&#xe3;" horiz-adv-x="1087" 
d="M938 0h-129v80q-178 -107 -371 -107q-165 0 -248.5 78t-83.5 242v31q0 84 22.5 144t62 98t104.5 60t140 30t179 8h189v94q0 86 -10.5 134.5t-44.5 80.5t-89 42.5t-151 10.5q-130 0 -326 -22v98q205 39 336 39q132 0 215 -22t128 -72.5t61 -117t16 -171.5v-758zM803 178
v381h-189q-86 0 -142.5 -5.5t-104 -20t-73.5 -41t-40 -67.5t-14 -101v-39q0 -111 57.5 -159t167.5 -48q94 0 187 31.5t151 68.5zM936 1509q0 -123 -41.5 -187.5t-142.5 -64.5q-54 0 -99 21.5t-98 69.5l-84 77q-39 39 -65.5 54.5t-61.5 15.5q-36 0 -56.5 -21.5t-26 -53
t-5.5 -83.5v-69h-98v69q0 124 43 189t143 65q54 0 93.5 -19.5t94.5 -66.5l86 -80q40 -38 68.5 -54.5t63.5 -16.5q53 0 70.5 38.5t17.5 116.5v70h98v-70z" />
    <glyph glyph-name="adieresis" unicode="&#xe4;" horiz-adv-x="1087" 
d="M938 0h-129v80q-178 -107 -371 -107q-165 0 -248.5 78t-83.5 242v31q0 84 22.5 144t62 98t104.5 60t140 30t179 8h189v94q0 86 -10.5 134.5t-44.5 80.5t-89 42.5t-151 10.5q-130 0 -326 -22v98q205 39 336 39q132 0 215 -22t128 -72.5t61 -117t16 -171.5v-758zM803 178
v381h-189q-86 0 -142.5 -5.5t-104 -20t-73.5 -41t-40 -67.5t-14 -101v-39q0 -111 57.5 -159t167.5 -48q94 0 187 31.5t151 68.5zM844 1315h-123v244h123v-244zM375 1559v-244h-125v244h125z" />
    <glyph glyph-name="aring" unicode="&#xe5;" horiz-adv-x="1087" 
d="M938 0h-129v80q-178 -107 -371 -107q-165 0 -248.5 78t-83.5 242v31q0 84 22.5 144t62 98t104.5 60t140 30t179 8h189v94q0 86 -10.5 134.5t-44.5 80.5t-89 42.5t-151 10.5q-130 0 -326 -22v98q205 39 336 39q132 0 215 -22t128 -72.5t61 -117t16 -171.5v-758zM803 178
v381h-189q-86 0 -142.5 -5.5t-104 -20t-73.5 -41t-40 -67.5t-14 -101v-39q0 -111 57.5 -159t167.5 -48q94 0 187 31.5t151 68.5zM795 1450q0 -110 -64 -165.5t-168 -55.5q-107 0 -172 55t-65 166q0 109 65 164t172 55q104 0 168 -55t64 -164zM702 1450q0 135 -139 135
q-143 0 -143 -135q0 -137 143 -137q62 0 100.5 32t38.5 105z" />
    <glyph glyph-name="ae" unicode="&#xe6;" horiz-adv-x="1835" 
d="M1694 14q-187 -41 -385 -41q-172 0 -275.5 34.5t-156.5 113.5q-199 -148 -445 -148q-157 0 -242.5 78t-85.5 236v43q0 82 22.5 141t62 96t104.5 59t140 30t179 8h191v94q0 85 -10.5 133.5t-44 80.5t-89 43t-151.5 11q-143 0 -330 -22v98q198 39 338 39q126 0 204.5 -21
t116.5 -56.5t60 -94.5q108 170 371 170q237 0 350 -140t113 -395v-94h-793v-113q0 -78 17 -133t58.5 -96.5t115 -61.5t182.5 -20q165 0 383 37v-109zM1593 623v30q0 371 -325 371q-78 0 -137.5 -21.5t-95 -56t-57.5 -82.5t-30 -94.5t-8 -99.5v-47h653zM803 190v369h-191
q-86 0 -142.5 -5t-103.5 -19t-73 -40t-39.5 -66t-13.5 -99v-54q0 -198 217 -198q97 0 191.5 34.5t154.5 77.5z" />
    <glyph glyph-name="ccedilla" unicode="&#xe7;" horiz-adv-x="954" 
d="M862 8q-162 -35 -305 -35q-229 0 -336.5 126t-107.5 397v122q0 268 109 395.5t335 127.5q135 0 305 -35v-102q-193 20 -287 20q-83 0 -140.5 -18t-101.5 -62.5t-64.5 -125t-20.5 -200.5v-122q0 -123 20.5 -203.5t64 -125t100.5 -62t142 -17.5q87 0 287 23v-103zM657 -139
l-276 -289h-139l247 289h168z" />
    <glyph glyph-name="egrave" unicode="&#xe8;" horiz-adv-x="1144" 
d="M1036 510h-790v-25q0 -101 16 -170t56 -122t114 -78t186 -25q183 0 381 31v-107q-182 -41 -385 -41q-142 0 -238 31.5t-154.5 100.5t-83.5 167.5t-25 241.5v78q0 549 460 549q238 0 350.5 -141.5t112.5 -421.5v-68zM897 623v18q0 64 -7.5 116.5t-29.5 103.5t-57 86
t-93.5 56t-136.5 21t-137 -22t-94 -57t-57 -86.5t-29.5 -103t-7.5 -114.5v-18h649zM721 1262h-137l-303 315h163z" />
    <glyph glyph-name="eacute" unicode="&#xe9;" horiz-adv-x="1144" 
d="M1036 510h-790v-25q0 -101 16 -170t56 -122t114 -78t186 -25q183 0 381 31v-107q-182 -41 -385 -41q-142 0 -238 31.5t-154.5 100.5t-83.5 167.5t-25 241.5v78q0 549 460 549q238 0 350.5 -141.5t112.5 -421.5v-68zM897 623v18q0 64 -7.5 116.5t-29.5 103.5t-57 86
t-93.5 56t-136.5 21t-137 -22t-94 -57t-57 -86.5t-29.5 -103t-7.5 -114.5v-18h649zM930 1577l-303 -315h-135l274 315h164z" />
    <glyph glyph-name="ecircumflex" unicode="&#xea;" horiz-adv-x="1144" 
d="M1036 510h-790v-25q0 -101 16 -170t56 -122t114 -78t186 -25q183 0 381 31v-107q-182 -41 -385 -41q-142 0 -238 31.5t-154.5 100.5t-83.5 167.5t-25 241.5v78q0 549 460 549q238 0 350.5 -141.5t112.5 -421.5v-68zM897 623v18q0 64 -7.5 116.5t-29.5 103.5t-57 86
t-93.5 56t-136.5 21t-137 -22t-94 -57t-57 -86.5t-29.5 -103t-7.5 -114.5v-18h649zM946 1262h-137l-231 237l-232 -237h-137l283 315h172z" />
    <glyph glyph-name="edieresis" unicode="&#xeb;" horiz-adv-x="1144" 
d="M1036 510h-790v-25q0 -101 16 -170t56 -122t114 -78t186 -25q183 0 381 31v-107q-182 -41 -385 -41q-142 0 -238 31.5t-154.5 100.5t-83.5 167.5t-25 241.5v78q0 549 460 549q238 0 350.5 -141.5t112.5 -421.5v-68zM897 623v18q0 64 -7.5 116.5t-29.5 103.5t-57 86
t-93.5 56t-136.5 21t-137 -22t-94 -57t-57 -86.5t-29.5 -103t-7.5 -114.5v-18h649zM868 1315h-120v244h120v-244zM399 1559v-244h-123v244h123z" />
    <glyph glyph-name="igrave" unicode="&#xec;" horiz-adv-x="483" 
d="M309 0h-135v1112h135v-1112zM381 1262h-137l-303 315h163z" />
    <glyph glyph-name="iacute" unicode="&#xed;" horiz-adv-x="483" 
d="M309 0h-135v1112h135v-1112zM543 1577l-301 -315h-138l277 315h162z" />
    <glyph glyph-name="icircumflex" unicode="&#xee;" horiz-adv-x="483" 
d="M309 0h-135v1112h135v-1112zM612 1262h-137l-233 237l-230 -237h-137l283 315h172z" />
    <glyph glyph-name="idieresis" unicode="&#xef;" horiz-adv-x="483" 
d="M309 0h-135v1112h135v-1112zM539 1315h-121v244h121v-244zM70 1559v-244h-123v244h123z" />
    <glyph glyph-name="eth" unicode="&#xf0;" horiz-adv-x="1155" 
d="M1040 483q0 -246 -115 -378t-347 -132t-347.5 132t-115.5 378v131q0 246 115.5 378t347.5 132q181 0 280 -110q-36 136 -100.5 229t-169.5 150l-281 -185l-53 72l231 160q-118 42 -272 45q-20 3 -53 0v108h61q214 -3 375 -73l170 108l57 -72l-131 -88q348 -222 348 -854
v-131zM907 483v131q0 202 -78.5 298t-250.5 96q-171 0 -250.5 -96.5t-79.5 -297.5v-131q0 -200 79.5 -296.5t250.5 -96.5q172 0 250.5 96t78.5 297z" />
    <glyph glyph-name="ntilde" unicode="&#xf1;" 
d="M1032 0h-135v705q0 181 -48.5 250t-180.5 69q-148 0 -371 -106v-918h-133v1112h133v-90q222 119 383 119q106 0 176 -27t108 -85t53 -134.5t15 -189.5v-705zM983 1509q0 -124 -41 -188t-141 -64q-55 0 -100 21.5t-97 69.5l-86 77q-39 39 -65.5 54.5t-61.5 15.5
q-51 0 -68.5 -39.5t-17.5 -118.5v-69h-100v69q0 123 43.5 188.5t142.5 65.5q55 0 96 -19.5t93 -66.5l88 -80q41 -39 68 -55t61 -16q53 0 70.5 38.5t17.5 116.5v70h98v-70z" />
    <glyph glyph-name="ograve" unicode="&#xf2;" horiz-adv-x="1155" 
d="M1040 498q0 -525 -462 -525q-463 0 -463 525v118q0 525 463 525q462 0 462 -525v-118zM907 498v118q0 214 -78 310t-251 96q-172 0 -251 -96.5t-79 -309.5v-118q0 -214 78.5 -311t251.5 -97t251 97t78 311zM707 1262h-138l-303 315h164z" />
    <glyph glyph-name="oacute" unicode="&#xf3;" horiz-adv-x="1155" 
d="M1040 498q0 -525 -462 -525q-463 0 -463 525v118q0 525 463 525q462 0 462 -525v-118zM907 498v118q0 214 -78 310t-251 96q-172 0 -251 -96.5t-79 -309.5v-118q0 -214 78.5 -311t251.5 -97t251 97t78 311zM899 1577l-301 -315h-137l276 315h162z" />
    <glyph glyph-name="ocircumflex" unicode="&#xf4;" horiz-adv-x="1155" 
d="M1040 498q0 -525 -462 -525q-463 0 -463 525v118q0 525 463 525q462 0 462 -525v-118zM907 498v118q0 214 -78 310t-251 96q-172 0 -251 -96.5t-79 -309.5v-118q0 -214 78.5 -311t251.5 -97t251 97t78 311zM946 1262h-137l-231 237l-232 -237h-137l283 315h172z" />
    <glyph glyph-name="otilde" unicode="&#xf5;" horiz-adv-x="1155" 
d="M1040 498q0 -525 -462 -525q-463 0 -463 525v118q0 525 463 525q462 0 462 -525v-118zM907 498v118q0 214 -78 310t-251 96q-172 0 -251 -96.5t-79 -309.5v-118q0 -214 78.5 -311t251.5 -97t251 97t78 311zM967 1509q0 -124 -41.5 -188t-141.5 -64q-55 0 -99.5 21.5
t-96.5 69.5l-86 77q-39 39 -65.5 54.5t-61.5 15.5q-51 0 -68.5 -39.5t-17.5 -118.5v-69h-101v69q0 254 187 254q55 0 95.5 -19.5t92.5 -66.5l88 -80q41 -39 68 -55t61 -16q53 0 70.5 38.5t17.5 116.5v70h99v-70z" />
    <glyph glyph-name="odieresis" unicode="&#xf6;" horiz-adv-x="1155" 
d="M1040 498q0 -525 -462 -525q-463 0 -463 525v118q0 525 463 525q462 0 462 -525v-118zM907 498v118q0 214 -78 310t-251 96q-172 0 -251 -96.5t-79 -309.5v-118q0 -214 78.5 -311t251.5 -97t251 97t78 311zM874 1315h-120v244h120v-244zM406 1559v-244h-123v244h123z" />
    <glyph glyph-name="divide" unicode="&#xf7;" horiz-adv-x="1425" 
d="M780 223h-137v271h137v-271zM1208 856v-113h-993v113h993zM780 1085h-137v269h137v-269z" />
    <glyph glyph-name="oslash" unicode="&#xf8;" horiz-adv-x="1155" 
d="M1040 498q0 -525 -462 -525q-182 0 -295 84l-80 -108h-142l142 188q-88 128 -88 361v118q0 525 463 525q192 0 311 -99l90 121h141l-157 -207q77 -125 77 -340v-118zM907 498v118q0 139 -37 220l-512 -678q80 -68 220 -68q172 0 250.5 97t78.5 311zM811 942
q-77 80 -233 80q-173 0 -251.5 -96t-78.5 -310v-118q0 -159 43 -246z" />
    <glyph glyph-name="ugrave" unicode="&#xf9;" 
d="M1024 0h-133v90q-226 -117 -395 -117q-100 0 -167.5 30t-104 89.5t-51.5 135t-15 180.5v704h131v-704q0 -180 49.5 -250t181.5 -70q145 0 371 109v915h133v-1112zM709 1262h-138l-303 315h164z" />
    <glyph glyph-name="uacute" unicode="&#xfa;" 
d="M1024 0h-133v90q-226 -117 -395 -117q-100 0 -167.5 30t-104 89.5t-51.5 135t-15 180.5v704h131v-704q0 -180 49.5 -250t181.5 -70q145 0 371 109v915h133v-1112zM942 1577l-303 -315h-135l274 315h164z" />
    <glyph glyph-name="ucircumflex" unicode="&#xfb;" 
d="M1024 0h-133v90q-226 -117 -395 -117q-100 0 -167.5 30t-104 89.5t-51.5 135t-15 180.5v704h131v-704q0 -180 49.5 -250t181.5 -70q145 0 371 109v915h133v-1112zM965 1262h-138l-231 237l-231 -237h-138l283 315h172z" />
    <glyph glyph-name="udieresis" unicode="&#xfc;" 
d="M1024 0h-133v90q-226 -117 -395 -117q-100 0 -167.5 30t-104 89.5t-51.5 135t-15 180.5v704h131v-704q0 -180 49.5 -250t181.5 -70q145 0 371 109v915h133v-1112zM891 1315h-121v244h121v-244zM422 1559v-244h-123v244h123z" />
    <glyph glyph-name="yacute" unicode="&#xfd;" horiz-adv-x="1064" 
d="M1014 1112l-424 -1200q-29 -81 -51 -132t-53.5 -99.5t-67.5 -74t-86.5 -40.5t-116.5 -15q-83 0 -195 15v106q107 -8 191 -8q51 0 84 11t61.5 44.5t49 77.5t51.5 129l26 76l-430 1110h148l266 -713q44 -128 80 -249h4q34 124 76 251l243 711h144zM889 1577l-301 -315h-137
l276 315h162z" />
    <glyph glyph-name="thorn" unicode="&#xfe;" horiz-adv-x="1146" 
d="M297 -428h-133v2011h133v-549q172 107 336 107q204 0 301.5 -124.5t97.5 -391.5v-123q0 -144 -32.5 -247.5t-96 -164.5t-147.5 -89t-195 -28q-77 0 -264 27v-428zM899 502v123q0 214 -65.5 305.5t-215.5 91.5q-131 0 -321 -94v-815q189 -25 262 -25q174 0 257 92.5
t83 321.5z" />
    <glyph glyph-name="ydieresis" unicode="&#xff;" horiz-adv-x="1064" 
d="M1014 1112l-424 -1200q-29 -81 -51 -132t-53.5 -99.5t-67.5 -74t-86.5 -40.5t-116.5 -15q-83 0 -195 15v106q107 -8 191 -8q51 0 84 11t61.5 44.5t49 77.5t51.5 129l26 76l-430 1110h148l266 -713q44 -128 80 -249h4q34 124 76 251l243 711h144zM846 1315h-123v244h123
v-244zM377 1559v-244h-123v244h123z" />
    <glyph glyph-name="Amacron" unicode="&#x100;" horiz-adv-x="1316" 
d="M1268 0h-146l-178 539h-577l-181 -539h-139l516 1522h191zM901 664l-172 510q-38 111 -65 235h-15q-30 -125 -65 -235l-176 -510h493zM1010 1698h-703v106h703v-106z" />
    <glyph glyph-name="amacron" unicode="&#x101;" horiz-adv-x="1087" 
d="M938 0h-129v80q-178 -107 -371 -107q-165 0 -248.5 78t-83.5 242v31q0 84 22.5 144t62 98t104.5 60t140 30t179 8h189v94q0 86 -10.5 134.5t-44.5 80.5t-89 42.5t-151 10.5q-130 0 -326 -22v98q205 39 336 39q132 0 215 -22t128 -72.5t61 -117t16 -171.5v-758zM803 178
v381h-189q-86 0 -142.5 -5.5t-104 -20t-73.5 -41t-40 -67.5t-14 -101v-39q0 -111 57.5 -159t167.5 -48q94 0 187 31.5t151 68.5zM897 1360h-702v106h702v-106z" />
    <glyph glyph-name="Abreve" unicode="&#x102;" horiz-adv-x="1316" 
d="M1268 0h-146l-178 539h-577l-181 -539h-139l516 1522h191zM901 664l-172 510q-38 111 -65 235h-15q-30 -125 -65 -235l-176 -510h493zM989 1925q-6 -71 -25 -125.5t-56 -100t-100.5 -69.5t-150.5 -24q-88 0 -151.5 24t-100 69.5t-54.5 100t-23 125.5h100
q11 -115 63.5 -171t165.5 -56q114 0 166.5 56t63.5 171h102z" />
    <glyph glyph-name="abreve" unicode="&#x103;" horiz-adv-x="1087" 
d="M938 0h-129v80q-178 -107 -371 -107q-165 0 -248.5 78t-83.5 242v31q0 84 22.5 144t62 98t104.5 60t140 30t179 8h189v94q0 86 -10.5 134.5t-44.5 80.5t-89 42.5t-151 10.5q-130 0 -326 -22v98q205 39 336 39q132 0 215 -22t128 -72.5t61 -117t16 -171.5v-758zM803 178
v381h-189q-86 0 -142.5 -5.5t-104 -20t-73.5 -41t-40 -67.5t-14 -101v-39q0 -111 57.5 -159t167.5 -48q94 0 187 31.5t151 68.5zM887 1581q-6 -71 -25 -126t-56 -100.5t-100.5 -70t-150.5 -24.5q-88 0 -151.5 24.5t-100.5 70t-55 100.5t-23 126h101q11 -117 63.5 -173
t165.5 -56q114 0 166 56t63 173h103z" />
    <glyph glyph-name="Aogonek" unicode="&#x104;" horiz-adv-x="1316" 
d="M1268 -424q-62 -20 -172 -20q-125 0 -187.5 50.5t-62.5 141.5q0 76 72.5 144t197.5 122l-172 525h-577l-181 -539h-139l516 1522h191l514 -1522q-170 -75 -237.5 -130.5t-67.5 -115.5q0 -54 32.5 -82t110.5 -28q21 0 162 12v-80zM901 664l-172 510q-38 111 -65 235h-15
q-30 -125 -65 -235l-176 -510h493z" />
    <glyph glyph-name="aogonek" unicode="&#x105;" horiz-adv-x="1087" 
d="M938 -424q-62 -20 -160 -20q-125 0 -187.5 50.5t-62.5 141.5q0 140 281 275v61q-184 -111 -371 -111q-165 0 -248.5 78t-83.5 242v31q0 84 22.5 144t62 98t104.5 60t140 30t179 8h189v94q0 86 -10.5 134.5t-44.5 80.5t-89 42.5t-151 10.5q-130 0 -326 -22v98
q205 39 336 39q132 0 215 -22t128 -72.5t61 -117t16 -171.5v-758q-167 -77 -230 -132t-63 -114q0 -54 32.5 -82t110.5 -28q25 0 50.5 2t55.5 5.5t44 4.5v-80zM803 182v377h-189q-86 0 -142.5 -5.5t-104 -20t-73.5 -41t-40 -67.5t-14 -101v-39q0 -111 57.5 -159t167.5 -48
q93 0 185.5 33t152.5 71z" />
    <glyph glyph-name="Cacute" unicode="&#x106;" horiz-adv-x="1126" 
d="M1065 4q-198 -31 -354 -31q-113 0 -202 21t-164.5 71t-125.5 130t-78 200.5t-28 278.5v174q0 158 28 278t78 199t125.5 129t164.5 71t202 21q159 0 354 -33v-112q-231 22 -354 22q-240 0 -350.5 -131.5t-110.5 -443.5v-174q0 -312 110.5 -445t350.5 -133q112 0 354 23
v-115zM1008 1931l-301 -315h-138l275 315h164z" />
    <glyph glyph-name="cacute" unicode="&#x107;" horiz-adv-x="954" 
d="M862 8q-162 -35 -305 -35q-229 0 -336.5 126t-107.5 397v122q0 268 109 395.5t335 127.5q135 0 305 -35v-102q-193 20 -287 20q-83 0 -140.5 -18t-101.5 -62.5t-64.5 -125t-20.5 -200.5v-122q0 -123 20.5 -203.5t64 -125t100.5 -62t142 -17.5q87 0 287 23v-103zM895 1577
l-301 -315h-137l274 315h164z" />
    <glyph glyph-name="Ccircumflex" unicode="&#x108;" horiz-adv-x="1126" 
d="M1065 4q-198 -31 -354 -31q-113 0 -202 21t-164.5 71t-125.5 130t-78 200.5t-28 278.5v174q0 158 28 278t78 199t125.5 129t164.5 71t202 21q159 0 354 -33v-112q-231 22 -354 22q-240 0 -350.5 -131.5t-110.5 -443.5v-174q0 -312 110.5 -445t350.5 -133q112 0 354 23
v-115zM1012 1616h-138l-231 237l-231 -237h-138l283 315h172z" />
    <glyph glyph-name="ccircumflex" unicode="&#x109;" horiz-adv-x="954" 
d="M862 8q-162 -35 -305 -35q-229 0 -336.5 126t-107.5 397v122q0 268 109 395.5t335 127.5q135 0 305 -35v-102q-193 20 -287 20q-83 0 -140.5 -18t-101.5 -62.5t-64.5 -125t-20.5 -200.5v-122q0 -123 20.5 -203.5t64 -125t100.5 -62t142 -17.5q87 0 287 23v-103zM903 1262
h-137l-231 237l-232 -237h-137l283 315h172z" />
    <glyph glyph-name="Cdotaccent" unicode="&#x10a;" horiz-adv-x="1126" 
d="M1065 4q-198 -31 -354 -31q-113 0 -202 21t-164.5 71t-125.5 130t-78 200.5t-28 278.5v174q0 158 28 278t78 199t125.5 129t164.5 71t202 21q159 0 354 -33v-112q-231 22 -354 22q-240 0 -350.5 -131.5t-110.5 -443.5v-174q0 -312 110.5 -445t350.5 -133q112 0 354 23
v-115zM735 1677h-133v246h133v-246z" />
    <glyph glyph-name="cdotaccent" unicode="&#x10b;" horiz-adv-x="954" 
d="M862 8q-162 -35 -305 -35q-229 0 -336.5 126t-107.5 397v122q0 268 109 395.5t335 127.5q135 0 305 -35v-102q-193 20 -287 20q-83 0 -140.5 -18t-101.5 -62.5t-64.5 -125t-20.5 -200.5v-122q0 -123 20.5 -203.5t64 -125t100.5 -62t142 -17.5q87 0 287 23v-103zM625 1329
h-133v248h133v-248z" />
    <glyph glyph-name="Ccaron" unicode="&#x10c;" horiz-adv-x="1126" 
d="M1065 4q-198 -31 -354 -31q-113 0 -202 21t-164.5 71t-125.5 130t-78 200.5t-28 278.5v174q0 158 28 278t78 199t125.5 129t164.5 71t202 21q159 0 354 -33v-112q-231 22 -354 22q-240 0 -350.5 -131.5t-110.5 -443.5v-174q0 -312 110.5 -445t350.5 -133q112 0 354 23
v-115zM305 1931h137l232 -239l231 239h137l-282 -315h-172z" />
    <glyph glyph-name="ccaron" unicode="&#x10d;" horiz-adv-x="954" 
d="M862 8q-162 -35 -305 -35q-229 0 -336.5 126t-107.5 397v122q0 268 109 395.5t335 127.5q135 0 305 -35v-102q-193 20 -287 20q-83 0 -140.5 -18t-101.5 -62.5t-64.5 -125t-20.5 -200.5v-122q0 -123 20.5 -203.5t64 -125t100.5 -62t142 -17.5q87 0 287 23v-103zM176 1577
h137l232 -240l231 240h137l-282 -315h-172z" />
    <glyph glyph-name="Dcaron" unicode="&#x10e;" horiz-adv-x="1349" 
d="M1237 672q0 -339 -155.5 -509.5t-497.5 -170.5q-110 0 -410 8v1522q246 6 410 6q337 0 495 -170t158 -506v-180zM1100 672v180q0 153 -33 260t-101 171.5t-164 93t-229 28.5q-102 0 -262 -4v-1280q156 -8 262 -8q268 0 397.5 129t129.5 430zM295 1929h137l232 -239
l231 239h137l-282 -315h-172z" />
    <glyph glyph-name="dcaron" unicode="&#x10f;" horiz-adv-x="1415" 
d="M981 0h-129v63q-163 -90 -330 -90q-205 0 -307 122t-102 384v137q0 148 31.5 251.5t94 162.5t144 85t192.5 26q119 0 273 -25v467h133v-1583zM848 170v834q-167 22 -264 22q-88 0 -146.5 -17.5t-103.5 -62.5t-65.5 -126t-20.5 -204v-137q0 -210 69.5 -300.5t227.5 -90.5
q135 0 303 82zM1395 1583l-144 -469h-106l106 469h144z" />
    <glyph glyph-name="Dcroat" unicode="&#x110;" horiz-adv-x="1349" 
d="M1237 672q0 -339 -155.5 -509.5t-497.5 -170.5q-156 0 -410 8v731h-117v121h117v670q212 6 410 6q337 0 495 -170t158 -506v-180zM1100 672v180q0 300 -128 426.5t-399 126.5q-102 0 -262 -4v-549h340v-121h-340v-610q156 -8 262 -8q269 0 398 129t129 430z" />
    <glyph glyph-name="dcroat" unicode="&#x111;" horiz-adv-x="1167" 
d="M848 1583h135v-184h121v-117h-121v-1282h-131v63q-159 -90 -330 -90q-205 0 -307 122t-102 384v137q0 148 31.5 251.5t94 162.5t144 85t192.5 26q119 0 273 -25v166h-330v117h330v184zM848 170v834q-167 22 -264 22q-88 0 -146.5 -17.5t-103.5 -62.5t-65.5 -126
t-20.5 -204v-137q0 -209 70.5 -300t228.5 -91q133 0 301 82z" />
    <glyph glyph-name="Emacron" unicode="&#x112;" horiz-adv-x="1163" 
d="M1051 0h-877v1522h877v-123h-740v-543h690v-125h-690v-610h740v-121zM965 1706h-703v106h703v-106z" />
    <glyph glyph-name="emacron" unicode="&#x113;" horiz-adv-x="1144" 
d="M1036 510h-790v-25q0 -101 16 -170t56 -122t114 -78t186 -25q183 0 381 31v-107q-182 -41 -385 -41q-142 0 -238 31.5t-154.5 100.5t-83.5 167.5t-25 241.5v78q0 549 460 549q238 0 350.5 -141.5t112.5 -421.5v-68zM897 623v18q0 64 -7.5 116.5t-29.5 103.5t-57 86
t-93.5 56t-136.5 21t-137 -22t-94 -57t-57 -86.5t-29.5 -103t-7.5 -114.5v-18h649zM920 1360h-703v106h703v-106z" />
    <glyph glyph-name="Ebreve" unicode="&#x114;" horiz-adv-x="1163" 
d="M1051 0h-877v1522h877v-123h-740v-543h690v-125h-690v-610h740v-121zM954 1935q-6 -71 -24.5 -125.5t-55.5 -100t-100.5 -69.5t-150.5 -24q-88 0 -151.5 24t-100.5 69.5t-55 100t-23 125.5h100q11 -115 64 -171t166 -56q114 0 166 56t63 171h102z" />
    <glyph glyph-name="ebreve" unicode="&#x115;" horiz-adv-x="1144" 
d="M1036 510h-790v-25q0 -101 16 -170t56 -122t114 -78t186 -25q183 0 381 31v-107q-182 -41 -385 -41q-142 0 -238 31.5t-154.5 100.5t-83.5 167.5t-25 241.5v78q0 549 460 549q238 0 350.5 -141.5t112.5 -421.5v-68zM897 623v18q0 64 -7.5 116.5t-29.5 103.5t-57 86
t-93.5 56t-136.5 21t-137 -22t-94 -57t-57 -86.5t-29.5 -103t-7.5 -114.5v-18h649zM907 1579q-6 -71 -25 -125.5t-56 -100t-100.5 -69.5t-150.5 -24q-88 0 -151.5 24t-100 69.5t-55 100t-24.5 125.5h102q11 -117 62.5 -172t166.5 -55q113 0 165.5 55t64.5 172h102z" />
    <glyph glyph-name="Edotaccent" unicode="&#x116;" horiz-adv-x="1163" 
d="M1051 0h-877v1522h877v-123h-740v-543h690v-125h-690v-610h740v-121zM678 1657h-131v248h131v-248z" />
    <glyph glyph-name="edotaccent" unicode="&#x117;" horiz-adv-x="1144" 
d="M1036 510h-790v-25q0 -101 16 -170t56 -122t114 -78t186 -25q183 0 381 31v-107q-182 -41 -385 -41q-142 0 -238 31.5t-154.5 100.5t-83.5 167.5t-25 241.5v78q0 549 460 549q238 0 350.5 -141.5t112.5 -421.5v-68zM897 623v18q0 64 -7.5 116.5t-29.5 103.5t-57 86
t-93.5 56t-136.5 21t-137 -22t-94 -57t-57 -86.5t-29.5 -103t-7.5 -114.5v-18h649zM635 1329h-133v248h133v-248z" />
    <glyph glyph-name="Eogonek" unicode="&#x118;" horiz-adv-x="1163" 
d="M1051 -424q-63 -20 -172 -20q-125 0 -187.5 50.5t-62.5 141.5q0 135 239 252h-694v1522h877v-123h-740v-543h690v-125h-690v-610h740v-121q-171 -75 -239.5 -131t-68.5 -115q0 -54 34 -82t112 -28q21 0 162 12v-80z" />
    <glyph glyph-name="eogonek" unicode="&#x119;" horiz-adv-x="1144" 
d="M1026 -424q-63 -20 -172 -20q-125 0 -187.5 50.5t-62.5 141.5q0 125 184 236q-97 -11 -174 -11q-276 0 -388.5 127.5t-112.5 413.5v78q0 549 460 549q238 0 350.5 -141.5t112.5 -421.5v-68h-790v-25q0 -101 16 -170t56 -122t114 -78t186 -25q183 0 381 31v-107
q-161 -80 -220.5 -139t-59.5 -121q0 -54 33.5 -82t111.5 -28q21 0 162 12v-80zM897 623v18q0 64 -7.5 116.5t-29.5 103.5t-57 86t-93.5 56t-136.5 21t-137 -22t-94 -57t-57 -86.5t-29.5 -103t-7.5 -114.5v-18h649z" />
    <glyph glyph-name="Ecaron" unicode="&#x11a;" horiz-adv-x="1163" 
d="M1051 0h-877v1522h877v-123h-740v-543h690v-125h-690v-610h740v-121zM254 1931h137l232 -239l231 239h137l-282 -315h-172z" />
    <glyph glyph-name="ecaron" unicode="&#x11b;" horiz-adv-x="1144" 
d="M1036 510h-790v-25q0 -101 16 -170t56 -122t114 -78t186 -25q183 0 381 31v-107q-182 -41 -385 -41q-142 0 -238 31.5t-154.5 100.5t-83.5 167.5t-25 241.5v78q0 549 460 549q238 0 350.5 -141.5t112.5 -421.5v-68zM897 623v18q0 64 -7.5 116.5t-29.5 103.5t-57 86
t-93.5 56t-136.5 21t-137 -22t-94 -57t-57 -86.5t-29.5 -103t-7.5 -114.5v-18h649zM219 1577h137l230 -240l233 240h137l-282 -315h-172z" />
    <glyph glyph-name="Gcircumflex" unicode="&#x11c;" horiz-adv-x="1267" 
d="M1135 10q-238 -37 -422 -37q-600 0 -600 695v186q0 133 21.5 240t62 182t94 128t122.5 84t142 44.5t158 13.5q171 0 422 -35v-112q-264 24 -404 24q-92 0 -162.5 -15t-132 -53.5t-101.5 -102t-62.5 -163.5t-22.5 -235v-186q0 -161 31.5 -273t95.5 -176.5t149.5 -92.5
t202.5 -28q158 0 268 11v675h138v-774zM1034 1616h-137l-233 237l-230 -237h-137l283 315h172z" />
    <glyph glyph-name="gcircumflex" unicode="&#x11d;" horiz-adv-x="1146" 
d="M983 -41q0 -104 -19 -176t-66.5 -126t-132 -80t-210.5 -26q-181 0 -387 35v99q230 -19 387 -19q92 0 149 15.5t90 53t44.5 89t11.5 135.5v55q-144 -41 -266 -41q-239 0 -354 118.5t-115 393.5v144q0 265 116.5 388.5t376.5 123.5q148 0 375 -29v-1153zM850 127v881
q-119 18 -242 18q-198 0 -279 -92t-81 -305v-144q0 -221 77 -309t261 -88q133 0 264 39zM946 1262h-137l-231 237l-232 -237h-137l283 315h172z" />
    <glyph glyph-name="Gbreve" unicode="&#x11e;" horiz-adv-x="1267" 
d="M1135 10q-238 -37 -422 -37q-600 0 -600 695v186q0 133 21.5 240t62 182t94 128t122.5 84t142 44.5t158 13.5q171 0 422 -35v-112q-264 24 -404 24q-92 0 -162.5 -15t-132 -53.5t-101.5 -102t-62.5 -163.5t-22.5 -235v-186q0 -161 31.5 -273t95.5 -176.5t149.5 -92.5
t202.5 -28q158 0 268 11v675h138v-774zM1016 1935q-6 -71 -24.5 -126t-55.5 -100.5t-100.5 -70t-151.5 -24.5q-87 0 -150.5 24.5t-100 70t-55 100.5t-24.5 126h103q9 -117 61.5 -173t165.5 -56q114 0 166 56t63 173h103z" />
    <glyph glyph-name="gbreve" unicode="&#x11f;" horiz-adv-x="1146" 
d="M983 -41q0 -104 -19 -176t-66.5 -126t-132 -80t-210.5 -26q-181 0 -387 35v99q230 -19 387 -19q92 0 149 15.5t90 53t44.5 89t11.5 135.5v55q-144 -41 -266 -41q-239 0 -354 118.5t-115 393.5v144q0 265 116.5 388.5t376.5 123.5q148 0 375 -29v-1153zM850 127v881
q-119 18 -242 18q-198 0 -279 -92t-81 -305v-144q0 -221 77 -309t261 -88q133 0 264 39zM909 1579q-6 -71 -25 -125.5t-56 -100t-100 -69.5t-150 -24q-88 0 -151.5 24t-100.5 69.5t-55.5 100t-24.5 125.5h102q11 -117 63 -172t167 -55q113 0 165 55t64 172h102z" />
    <glyph glyph-name="Gdotaccent" unicode="&#x120;" horiz-adv-x="1267" 
d="M1135 10q-238 -37 -422 -37q-600 0 -600 695v186q0 133 21.5 240t62 182t94 128t122.5 84t142 44.5t158 13.5q171 0 422 -35v-112q-264 24 -404 24q-92 0 -162.5 -15t-132 -53.5t-101.5 -102t-62.5 -163.5t-22.5 -235v-186q0 -161 31.5 -273t95.5 -176.5t149.5 -92.5
t202.5 -28q158 0 268 11v675h138v-774zM760 1657h-133v248h133v-248z" />
    <glyph glyph-name="gdotaccent" unicode="&#x121;" horiz-adv-x="1146" 
d="M983 -41q0 -104 -19 -176t-66.5 -126t-132 -80t-210.5 -26q-181 0 -387 35v99q230 -19 387 -19q92 0 149 15.5t90 53t44.5 89t11.5 135.5v55q-144 -41 -266 -41q-239 0 -354 118.5t-115 393.5v144q0 265 116.5 388.5t376.5 123.5q148 0 375 -29v-1153zM850 127v881
q-119 18 -242 18q-198 0 -279 -92t-81 -305v-144q0 -221 77 -309t261 -88q133 0 264 39zM643 1329h-131v248h131v-248z" />
    <glyph glyph-name="Gcommaaccent" unicode="&#x122;" horiz-adv-x="1267" 
d="M1135 10q-238 -37 -422 -37q-600 0 -600 695v186q0 133 21.5 240t62 182t94 128t122.5 84t142 44.5t158 13.5q171 0 422 -35v-112q-264 24 -404 24q-92 0 -162.5 -15t-132 -53.5t-101.5 -102t-62.5 -163.5t-22.5 -235v-186q0 -161 31.5 -273t95.5 -176.5t149.5 -92.5
t202.5 -28q158 0 268 11v675h138v-774zM793 -139l-195 -289h-125l164 289h156z" />
    <glyph glyph-name="gcommaaccent" unicode="&#x123;" horiz-adv-x="1146" 
d="M983 -41q0 -104 -19 -176t-66.5 -126t-132 -80t-210.5 -26q-181 0 -387 35v99q230 -19 387 -19q92 0 149 15.5t90 53t44.5 89t11.5 135.5v55q-144 -41 -266 -41q-239 0 -354 118.5t-115 393.5v144q0 265 116.5 388.5t376.5 123.5q148 0 375 -29v-1153zM850 127v881
q-119 18 -242 18q-198 0 -279 -92t-81 -305v-144q0 -221 77 -309t261 -88q133 0 264 39zM512 1262l195 288h127l-166 -288h-156z" />
    <glyph glyph-name="Hcircumflex" unicode="&#x124;" horiz-adv-x="1449" 
d="M1276 0h-137v748h-828v-748h-137v1522h137v-650h828v650h137v-1522zM1096 1614h-138l-231 239l-231 -239h-138l283 315h172z" />
    <glyph glyph-name="hcircumflex" unicode="&#x125;" 
d="M1032 0h-135v700q0 184 -55 254t-191 70q-166 0 -354 -94v-930h-133v1583h133v-545q201 103 379 103q186 0 271 -105t85 -331v-705zM961 1616h-138l-231 237l-232 -237h-137l283 315h172z" />
    <glyph glyph-name="Hbar" unicode="&#x126;" horiz-adv-x="1449" 
d="M43 1122v109h131v291h137v-291h828v291h137v-291h131v-109h-131v-1122h-137v748h-828v-748h-137v1122h-131zM311 872h828v250h-828v-250z" />
    <glyph glyph-name="hbar" unicode="&#x127;" 
d="M43 1286v113h121v184h133v-184h358v-113h-358v-248q201 103 379 103q188 0 272 -105t84 -331v-705h-135v700q0 184 -55 254t-191 70q-166 0 -354 -94v-930h-133v1286h-121z" />
    <glyph glyph-name="Itilde" unicode="&#x128;" horiz-adv-x="491" 
d="M315 0h-137v1522h137v-1522zM633 1858q0 -124 -41 -188t-141 -64q-54 0 -99 21.5t-98 68.5l-84 78q-40 39 -66.5 54t-60.5 15q-36 0 -56.5 -21.5t-26 -52.5t-5.5 -83v-70h-100v70q0 123 44 188t144 65q54 0 93.5 -19.5t94.5 -66.5l86 -79q40 -39 68.5 -55.5t63.5 -16.5
q22 0 38 7.5t25 20.5t14.5 34t7 42t1.5 52v69h98v-69z" />
    <glyph glyph-name="itilde" unicode="&#x129;" horiz-adv-x="483" 
d="M309 0h-135v1112h135v-1112zM633 1509q0 -123 -41.5 -187.5t-142.5 -64.5q-54 0 -99 21.5t-98 69.5l-84 77q-39 39 -65.5 54.5t-61.5 15.5q-36 0 -56.5 -21.5t-26 -53t-5.5 -83.5v-69h-98v69q0 124 43 189t143 65q54 0 93.5 -19.5t94.5 -66.5l86 -80q40 -38 68 -54.5
t63 -16.5q53 0 71 38.5t18 116.5v70h98v-70z" />
    <glyph glyph-name="Imacron" unicode="&#x12a;" horiz-adv-x="491" 
d="M315 0h-137v1522h137v-1522zM598 1706h-702v106h702v-106z" />
    <glyph glyph-name="imacron" unicode="&#x12b;" horiz-adv-x="483" 
d="M309 0h-135v1112h135v-1112zM594 1360h-703v106h703v-106z" />
    <glyph glyph-name="Ibreve" unicode="&#x12c;" horiz-adv-x="491" 
d="M315 0h-137v1522h137v-1522zM578 1935q-6 -71 -24.5 -125.5t-55.5 -100t-100.5 -69.5t-151.5 -24q-87 0 -150.5 24t-100 69.5t-55 100t-24.5 125.5h102q9 -116 61.5 -171.5t166.5 -55.5q115 0 166.5 55t62.5 172h103z" />
    <glyph glyph-name="ibreve" unicode="&#x12d;" horiz-adv-x="483" 
d="M309 0h-135v1112h135v-1112zM573 1579q-6 -71 -24.5 -125.5t-55 -100t-100 -69.5t-151.5 -24q-87 0 -150.5 24t-100 69.5t-55 100t-24.5 125.5h102q9 -116 61.5 -171.5t166.5 -55.5q115 0 166.5 55t62.5 172h102z" />
    <glyph glyph-name="Iogonek" unicode="&#x12e;" horiz-adv-x="491" 
d="M315 0q-93 -55 -134.5 -118.5t-41.5 -121.5t33.5 -87t112.5 -29q16 0 157 12v-80q-62 -20 -170 -20q-247 0 -247 198q0 138 153 264v1504h137v-1522z" />
    <glyph glyph-name="iogonek" unicode="&#x12f;" horiz-adv-x="483" 
d="M451 -424q-63 -20 -172 -20q-125 0 -187.5 52.5t-62.5 147.5q0 139 145 252v1104h135v-1112q-166 -119 -166 -240q0 -116 146 -116q21 0 162 12v-80zM311 1329h-137v254h137v-254z" />
    <glyph glyph-name="Idotaccent" unicode="&#x130;" horiz-adv-x="491" 
d="M315 0h-137v1522h137v-1522zM313 1657h-133v248h133v-248z" />
    <glyph glyph-name="dotlessi" unicode="&#x131;" horiz-adv-x="483" 
d="M309 0h-135v1112h135v-1112z" />
    <glyph glyph-name="IJ" unicode="&#x132;" horiz-adv-x="995" 
d="M315 0h-137v1522h137v-1522zM817 -115q0 -82 -12.5 -138t-44 -99t-87.5 -63.5t-141 -20.5q-73 0 -141 14v105q45 -2 133 -2q54 0 86 11.5t47.5 40.5t20 61.5t4.5 90.5v1637h135v-1637z" />
    <glyph glyph-name="ij" unicode="&#x133;" horiz-adv-x="995" 
d="M311 0h-133v1112h133v-1112zM313 1329h-135v254h135v-254zM819 -152q0 -163 -55 -230t-199 -67q-57 0 -131 9v100q78 -4 121 -4q79 0 104 40.5t25 151.5v1264h135v-1264zM819 1327h-135v256h135v-256z" />
    <glyph glyph-name="Jcircumflex" unicode="&#x134;" horiz-adv-x="491" 
d="M313 -115q0 -82 -12.5 -138t-43.5 -99t-87 -63.5t-141 -20.5q-74 0 -142 14v105q45 -2 133 -2q54 0 86 11.5t47.5 40.5t20 61.5t4.5 90.5v1637h135v-1637zM614 1616h-137l-231 237l-232 -237h-137l283 315h172z" />
    <glyph glyph-name="jcircumflex" unicode="&#x135;" horiz-adv-x="483" 
d="M309 -150q0 -165 -54 -232t-198 -67q-73 0 -133 11v100q82 -4 121 -4q80 0 104.5 40t24.5 152v1262h135v-1262zM612 1262h-137l-233 237l-230 -237h-137l283 315h172z" />
    <glyph glyph-name="Kcommaaccent" unicode="&#x136;" horiz-adv-x="1230" 
d="M1200 0h-188l-690 745v-745h-138v1522h138v-723l698 723h178l-723 -748zM748 -139l-195 -289h-127l166 289h156z" />
    <glyph glyph-name="kcommaaccent" unicode="&#x137;" horiz-adv-x="997" 
d="M969 0h-178l-494 563v-563h-133v1583h133v-979l491 508h177l-519 -526zM616 -139l-194 -289h-125l164 289h155z" />
    <glyph glyph-name="kgreenlandic" unicode="&#x138;" horiz-adv-x="997" 
d="M969 0h-178l-494 563v-563h-133v1112h133v-508l491 508h177l-519 -526z" />
    <glyph glyph-name="Lacute" unicode="&#x139;" horiz-adv-x="1087" 
d="M1036 0h-862v1522h137v-1401h725v-121zM936 1931l-301 -315h-137l276 315h162z" />
    <glyph glyph-name="lacute" unicode="&#x13a;" horiz-adv-x="475" 
d="M305 0h-133v1583h133v-1583zM567 1946l-301 -316h-137l274 316h164z" />
    <glyph glyph-name="Lcommaaccent" unicode="&#x13b;" horiz-adv-x="1087" 
d="M1036 0h-862v1522h137v-1401h725v-121zM700 -139l-194 -289h-127l166 289h155z" />
    <glyph glyph-name="lcommaaccent" unicode="&#x13c;" horiz-adv-x="475" 
d="M305 0h-133v1583h133v-1583zM338 -139l-195 -289h-127l164 289h158z" />
    <glyph glyph-name="Lcaron" unicode="&#x13d;" horiz-adv-x="1087" 
d="M1036 0h-862v1522h137v-1401h725v-121zM866 1567l-145 -469h-107l109 469h143z" />
    <glyph glyph-name="lcaron" unicode="&#x13e;" horiz-adv-x="733" 
d="M305 0h-133v1583h133v-1583zM713 1583l-146 -469h-106l108 469h144z" />
    <glyph glyph-name="Ldot" unicode="&#x13f;" horiz-adv-x="1087" 
d="M1036 0h-862v1522h137v-1401h725v-121zM735 711h-137v280h137v-280z" />
    <glyph glyph-name="ldot" unicode="&#x140;" horiz-adv-x="677" 
d="M305 0h-133v1583h133v-1583zM637 614h-135v283h135v-283z" />
    <glyph glyph-name="Lslash" unicode="&#x141;" horiz-adv-x="1087" 
d="M-6 469v164l182 174v715h135v-578l244 242v-164l-244 -242v-659h725v-121h-860v645z" />
    <glyph glyph-name="lslash" unicode="&#x142;" horiz-adv-x="475" 
d="M307 0h-135v672l-147 -144v164l147 144v747h135v-610l146 139v-164l-146 -141v-807z" />
    <glyph glyph-name="Nacute" unicode="&#x143;" horiz-adv-x="1417" 
d="M1243 -2h-194l-641 1182q-76 144 -109 213h-2q6 -126 6 -263v-1130h-129v1522h195l643 -1170q25 -46 104 -209h2q-6 144 -6 267v1112h131v-1524zM1055 1931l-301 -315h-138l275 315h164z" />
    <glyph glyph-name="nacute" unicode="&#x144;" 
d="M1032 0h-135v705q0 181 -48.5 250t-180.5 69q-148 0 -371 -106v-918h-133v1112h133v-90q222 119 383 119q106 0 176 -27t108 -85t53 -134.5t15 -189.5v-705zM936 1577l-301 -315h-137l274 315h164z" />
    <glyph glyph-name="Ncommaaccent" unicode="&#x145;" horiz-adv-x="1417" 
d="M1243 -2h-194l-641 1182q-76 144 -109 213h-2q6 -126 6 -263v-1130h-129v1522h195l643 -1170q25 -46 104 -209h2q-6 144 -6 267v1112h131v-1524zM819 -139l-194 -289h-127l164 289h157z" />
    <glyph glyph-name="ncommaaccent" unicode="&#x146;" 
d="M1032 0h-135v705q0 181 -48.5 250t-180.5 69q-148 0 -371 -106v-918h-133v1112h133v-90q222 119 383 119q106 0 176 -27t108 -85t53 -134.5t15 -189.5v-705zM686 -139l-194 -289h-125l163 289h156z" />
    <glyph glyph-name="Ncaron" unicode="&#x147;" horiz-adv-x="1417" 
d="M1243 -2h-194l-641 1182q-76 144 -109 213h-2q6 -126 6 -263v-1130h-129v1522h195l643 -1170q25 -46 104 -209h2q-6 144 -6 267v1112h131v-1524zM340 1931h137l230 -239l233 239h137l-282 -315h-172z" />
    <glyph glyph-name="ncaron" unicode="&#x148;" 
d="M1032 0h-135v705q0 181 -48.5 250t-180.5 69q-148 0 -371 -106v-918h-133v1112h133v-90q222 119 383 119q106 0 176 -27t108 -85t53 -134.5t15 -189.5v-705zM236 1577h137l231 -240l232 240h137l-283 -315h-172z" />
    <glyph glyph-name="napostrophe" unicode="&#x149;" horiz-adv-x="1288" 
d="M1128 0h-133v705q0 180 -49.5 249.5t-181.5 69.5q-145 0 -371 -106v-918h-133v1112h133v-90q225 119 385 119q106 0 175.5 -27t107.5 -85.5t52.5 -134t14.5 -189.5v-705zM248 1583l-146 -469h-106l108 469h144z" />
    <glyph glyph-name="Eng" unicode="&#x14a;" horiz-adv-x="1417" 
d="M1243 -115q0 -82 -13 -138.5t-44.5 -99t-88 -63t-141.5 -20.5q-73 0 -141 14v105q47 -2 133 -2q54 0 86 11.5t47.5 40.5t20 61.5t4.5 90.5v113l-698 1182q-42 72 -109 213h-4q8 -168 8 -265v-1128h-129v1522h195l643 -1080q31 -55 102 -206h4q-6 94 -6 260v1026h131
v-1637z" />
    <glyph glyph-name="eng" unicode="&#x14b;" 
d="M164 1112h133v-90q225 119 385 119q105 0 174.5 -27t107.5 -85t53 -134.5t15 -189.5v-855q0 -159 -54.5 -227.5t-193.5 -68.5q-71 0 -137 12v98q41 -4 121 -4t104.5 39.5t24.5 150.5v855q0 180 -48 249.5t-179 69.5q-151 0 -371 -106v-918h-135v1112z" />
    <glyph glyph-name="Omacron" unicode="&#x14c;" horiz-adv-x="1374" 
d="M1262 680q0 -354 -148.5 -530.5t-425.5 -176.5q-279 0 -427 176t-148 531v160q0 355 148 530.5t427 175.5q277 0 425.5 -176t148.5 -530v-160zM1124 680v160q0 161 -31.5 276t-91.5 181t-137 96t-176 30q-79 0 -144 -18t-120.5 -60.5t-93.5 -109t-59 -166.5t-21 -229
v-160q0 -584 438 -584q99 0 176 30t136.5 96t91.5 181.5t32 276.5zM1038 1706h-702v106h702v-106z" />
    <glyph glyph-name="omacron" unicode="&#x14d;" horiz-adv-x="1155" 
d="M1040 498q0 -525 -462 -525q-463 0 -463 525v118q0 525 463 525q462 0 462 -525v-118zM907 498v118q0 214 -78 310t-251 96q-172 0 -251 -96.5t-79 -309.5v-118q0 -214 78.5 -311t251.5 -97t251 97t78 311zM928 1360h-703v106h703v-106z" />
    <glyph glyph-name="Obreve" unicode="&#x14e;" horiz-adv-x="1374" 
d="M1262 680q0 -354 -148.5 -530.5t-425.5 -176.5q-279 0 -427 176t-148 531v160q0 355 148 530.5t427 175.5q277 0 425.5 -176t148.5 -530v-160zM1124 680v160q0 161 -31.5 276t-91.5 181t-137 96t-176 30q-79 0 -144 -18t-120.5 -60.5t-93.5 -109t-59 -166.5t-21 -229
v-160q0 -584 438 -584q99 0 176 30t136.5 96t91.5 181.5t32 276.5zM1018 1935q-6 -71 -25 -126t-56 -100.5t-100.5 -70t-150.5 -24.5q-88 0 -151.5 24.5t-100.5 70t-55 100.5t-23 126h101q11 -117 63.5 -173t165.5 -56q114 0 166 56t63 173h103z" />
    <glyph glyph-name="obreve" unicode="&#x14f;" horiz-adv-x="1155" 
d="M1040 498q0 -525 -462 -525q-463 0 -463 525v118q0 525 463 525q462 0 462 -525v-118zM907 498v118q0 214 -78 310t-251 96q-172 0 -251 -96.5t-79 -309.5v-118q0 -214 78.5 -311t251.5 -97t251 97t78 311zM909 1579q-6 -71 -25 -125.5t-56 -100t-100 -69.5t-150 -24
q-88 0 -151.5 24t-100.5 69.5t-55.5 100t-24.5 125.5h102q11 -117 63 -172t167 -55q113 0 165 55t64 172h102z" />
    <glyph glyph-name="Ohungarumlaut" unicode="&#x150;" horiz-adv-x="1374" 
d="M1262 680q0 -354 -148.5 -530.5t-425.5 -176.5q-279 0 -427 176t-148 531v160q0 355 148 530.5t427 175.5q277 0 425.5 -176t148.5 -530v-160zM1124 680v160q0 161 -31.5 276t-91.5 181t-137 96t-176 30q-79 0 -144 -18t-120.5 -60.5t-93.5 -109t-59 -166.5t-21 -229
v-160q0 -584 438 -584q99 0 176 30t136.5 96t91.5 181.5t32 276.5zM1239 1929l-303 -315h-137l276 315h164zM662 1929h163l-301 -315h-137z" />
    <glyph glyph-name="ohungarumlaut" unicode="&#x151;" horiz-adv-x="1155" 
d="M1040 498q0 -525 -462 -525q-463 0 -463 525v118q0 525 463 525q462 0 462 -525v-118zM907 498v118q0 214 -78 310t-251 96q-172 0 -251 -96.5t-79 -309.5v-118q0 -214 78.5 -311t251.5 -97t251 97t78 311zM1137 1577l-301 -315h-140l277 315h164zM559 1577h166
l-303 -315h-137z" />
    <glyph glyph-name="OE" unicode="&#x152;" horiz-adv-x="1968" 
d="M1849 121v-121h-833q-201 -29 -316 -29q-283 0 -435 175t-152 518v192q0 343 151.5 516.5t435.5 173.5q131 0 306 -24h843v-123h-739v-543h690v-125h-690v-610h739zM973 115v1286q-153 22 -273 22q-448 0 -448 -567v-192q0 -570 448 -570q122 0 273 21z" />
    <glyph glyph-name="oe" unicode="&#x153;" horiz-adv-x="1935" 
d="M1829 510h-793v-35q0 -97 17.5 -165.5t59 -120.5t115 -77.5t181.5 -25.5q159 0 383 37v-109q-182 -41 -387 -41q-337 0 -440 215q-106 -217 -394 -217q-231 0 -346.5 133t-115.5 377v150q0 244 115.5 377t346.5 133q146 0 246.5 -57.5t151.5 -159.5q51 103 150.5 160
t244.5 57q236 0 350.5 -141.5t114.5 -397.5v-92zM1690 623v28q0 373 -326 373q-78 0 -137.5 -21.5t-94.5 -55t-57 -82t-30 -94.5t-9 -99v-49h654zM901 481v150q0 201 -79.5 297t-250.5 96q-170 0 -248.5 -97t-80.5 -296v-150q2 -199 80.5 -296t248.5 -97q171 0 250.5 97
t79.5 296z" />
    <glyph glyph-name="Racute" unicode="&#x154;" horiz-adv-x="1273" 
d="M1219 0h-162l-379 621q-68 -3 -143 -3q-133 0 -224 3v-621h-137v1522q242 8 356 8q112 0 200.5 -12.5t165 -43t127 -80t79 -126t28.5 -178.5v-17q0 -180 -76.5 -280.5t-230.5 -143.5zM991 1073v17q0 93 -27.5 155t-87.5 97.5t-142.5 50t-203.5 14.5q-9 0 -219 -6v-660
q68 -2 224 -2q240 0 348 75t108 259zM936 1931l-301 -315h-137l274 315h164z" />
    <glyph glyph-name="racute" unicode="&#x155;" horiz-adv-x="739" 
d="M713 1020q-103 0 -217.5 -25t-200.5 -77v-918h-131v1112h131v-90q166 119 418 119v-121zM780 1577l-301 -315h-137l276 315h162z" />
    <glyph glyph-name="Rcommaaccent" unicode="&#x156;" horiz-adv-x="1273" 
d="M1219 0h-162l-379 621q-68 -3 -143 -3q-133 0 -224 3v-621h-137v1522q242 8 356 8q112 0 200.5 -12.5t165 -43t127 -80t79 -126t28.5 -178.5v-17q0 -180 -76.5 -280.5t-230.5 -143.5zM991 1073v17q0 93 -27.5 155t-87.5 97.5t-142.5 50t-203.5 14.5q-9 0 -219 -6v-660
q68 -2 224 -2q240 0 348 75t108 259zM750 -139l-195 -289h-127l166 289h156z" />
    <glyph glyph-name="rcommaaccent" unicode="&#x157;" horiz-adv-x="739" 
d="M713 1020q-103 0 -217.5 -25t-200.5 -77v-918h-131v1112h131v-90q166 119 418 119v-121zM498 -139l-195 -289h-127l164 289h158z" />
    <glyph glyph-name="Rcaron" unicode="&#x158;" horiz-adv-x="1273" 
d="M1219 0h-162l-379 621q-68 -3 -143 -3q-133 0 -224 3v-621h-137v1522q242 8 356 8q112 0 200.5 -12.5t165 -43t127 -80t79 -126t28.5 -178.5v-17q0 -180 -76.5 -280.5t-230.5 -143.5zM991 1073v17q0 93 -27.5 155t-87.5 97.5t-142.5 50t-203.5 14.5q-9 0 -219 -6v-660
q68 -2 224 -2q240 0 348 75t108 259zM262 1929h137l230 -239l233 239h137l-282 -315h-172z" />
    <glyph glyph-name="rcaron" unicode="&#x159;" horiz-adv-x="739" 
d="M713 1020q-103 0 -217.5 -25t-200.5 -77v-918h-131v1112h131v-90q166 119 418 119v-121zM59 1577h138l231 -240l231 240h138l-283 -315h-172z" />
    <glyph glyph-name="Sacute" unicode="&#x15a;" horiz-adv-x="1171" 
d="M1059 375q0 -198 -124 -300t-368 -102q-120 0 -239 12t-183 25v109q230 -27 422 -27q174 0 263.5 66.5t89.5 216.5q0 111 -58 176t-213 139l-207 96q-167 78 -248 170t-81 238q0 180 121.5 266t361.5 86q222 0 412 -37v-110q-229 26 -408 26q-173 0 -261.5 -52.5
t-88.5 -178.5q0 -100 58 -163.5t196 -129.5l207 -94q125 -60 197 -115t111.5 -132.5t39.5 -184.5zM918 1931l-304 -315h-135l275 315h164z" />
    <glyph glyph-name="sacute" unicode="&#x15b;" horiz-adv-x="966" 
d="M877 274q0 -63 -20 -114.5t-64 -95t-125.5 -67.5t-194.5 -24q-100 0 -202 13.5t-154 27.5v105q10 -1 63.5 -8t90.5 -11t94.5 -8t103.5 -4q149 0 211.5 47t62.5 137q0 83 -48.5 128.5t-200.5 107.5l-80 31q-165 67 -238.5 141.5t-73.5 189.5q0 138 98.5 204.5t299.5 66.5
q94 0 186 -12.5t139 -26.5v-103q-186 25 -319 25q-143 0 -205.5 -33t-62.5 -121q0 -76 48 -120.5t181 -98.5l80 -33q191 -80 260.5 -150.5t69.5 -193.5zM827 1577l-301 -315h-137l275 315h163z" />
    <glyph glyph-name="Scircumflex" unicode="&#x15c;" horiz-adv-x="1171" 
d="M1059 375q0 -198 -124 -300t-368 -102q-120 0 -239 12t-183 25v109q230 -27 422 -27q174 0 263.5 66.5t89.5 216.5q0 111 -58 176t-213 139l-207 96q-167 78 -248 170t-81 238q0 180 121.5 266t361.5 86q222 0 412 -37v-110q-229 26 -408 26q-173 0 -261.5 -52.5
t-88.5 -178.5q0 -100 58 -163.5t196 -129.5l207 -94q125 -60 197 -115t111.5 -132.5t39.5 -184.5zM934 1616h-137l-232 237l-231 -237h-137l282 315h172z" />
    <glyph glyph-name="scircumflex" unicode="&#x15d;" horiz-adv-x="966" 
d="M877 274q0 -63 -20 -114.5t-64 -95t-125.5 -67.5t-194.5 -24q-100 0 -202 13.5t-154 27.5v105q10 -1 63.5 -8t90.5 -11t94.5 -8t103.5 -4q149 0 211.5 47t62.5 137q0 83 -48.5 128.5t-200.5 107.5l-80 31q-165 67 -238.5 141.5t-73.5 189.5q0 138 98.5 204.5t299.5 66.5
q94 0 186 -12.5t139 -26.5v-103q-186 25 -319 25q-143 0 -205.5 -33t-62.5 -121q0 -76 48 -120.5t181 -98.5l80 -33q191 -80 260.5 -150.5t69.5 -193.5zM848 1262h-137l-232 237l-231 -237h-137l282 315h172z" />
    <glyph glyph-name="Scedilla" unicode="&#x15e;" horiz-adv-x="1171" 
d="M1059 375q0 -198 -124 -300t-368 -102q-120 0 -239 12t-183 25v109q230 -27 422 -27q174 0 263.5 66.5t89.5 216.5q0 111 -58 176t-213 139l-207 96q-167 78 -248 170t-81 238q0 180 121.5 266t361.5 86q222 0 412 -37v-110q-229 26 -408 26q-173 0 -261.5 -52.5
t-88.5 -178.5q0 -100 58 -163.5t196 -129.5l207 -94q125 -60 197 -115t111.5 -132.5t39.5 -184.5zM719 -139l-277 -289h-139l248 289h168z" />
    <glyph glyph-name="scedilla" unicode="&#x15f;" horiz-adv-x="966" 
d="M877 274q0 -63 -20 -114.5t-64 -95t-125.5 -67.5t-194.5 -24q-100 0 -202 13.5t-154 27.5v105q10 -1 63.5 -8t90.5 -11t94.5 -8t103.5 -4q149 0 211.5 47t62.5 137q0 83 -48.5 128.5t-200.5 107.5l-80 31q-165 67 -238.5 141.5t-73.5 189.5q0 138 98.5 204.5t299.5 66.5
q94 0 186 -12.5t139 -26.5v-103q-186 25 -319 25q-143 0 -205.5 -33t-62.5 -121q0 -76 48 -120.5t181 -98.5l80 -33q191 -80 260.5 -150.5t69.5 -193.5zM621 -139l-275 -289h-139l248 289h166z" />
    <glyph glyph-name="Scaron" unicode="&#x160;" horiz-adv-x="1171" 
d="M1059 375q0 -198 -124 -300t-368 -102q-120 0 -239 12t-183 25v109q230 -27 422 -27q174 0 263.5 66.5t89.5 216.5q0 111 -58 176t-213 139l-207 96q-167 78 -248 170t-81 238q0 180 121.5 266t361.5 86q222 0 412 -37v-110q-229 26 -408 26q-173 0 -261.5 -52.5
t-88.5 -178.5q0 -100 58 -163.5t196 -129.5l207 -94q125 -60 197 -115t111.5 -132.5t39.5 -184.5zM215 1931h137l230 -239l233 239h137l-282 -315h-172z" />
    <glyph glyph-name="scaron" unicode="&#x161;" horiz-adv-x="966" 
d="M877 274q0 -63 -20 -114.5t-64 -95t-125.5 -67.5t-194.5 -24q-100 0 -202 13.5t-154 27.5v105q10 -1 63.5 -8t90.5 -11t94.5 -8t103.5 -4q149 0 211.5 47t62.5 137q0 83 -48.5 128.5t-200.5 107.5l-80 31q-165 67 -238.5 141.5t-73.5 189.5q0 138 98.5 204.5t299.5 66.5
q94 0 186 -12.5t139 -26.5v-103q-186 25 -319 25q-143 0 -205.5 -33t-62.5 -121q0 -76 48 -120.5t181 -98.5l80 -33q191 -80 260.5 -150.5t69.5 -193.5zM121 1577h137l229 -240l234 240h137l-283 -315h-172z" />
    <glyph glyph-name="Tcedilla" unicode="&#x162;" horiz-adv-x="1245" 
d="M1184 1399h-494v-1399h-137v1399h-492v123h1123v-123zM725 -139l-195 -289h-127l164 289h158z" />
    <glyph glyph-name="tcedilla" unicode="&#x163;" horiz-adv-x="798" 
d="M739 999h-319v-743q0 -107 24.5 -140.5t108.5 -33.5q104 0 186 10v-94q-113 -25 -198 -25q-142 0 -198 61.5t-56 215.5v749l-240 11v102h240v299h133v-299h319v-113zM565 -139l-194 -289h-125l164 289h155z" />
    <glyph glyph-name="Tcaron" unicode="&#x164;" horiz-adv-x="1245" 
d="M1184 1399h-494v-1399h-137v1399h-492v123h1123v-123zM252 1929h137l232 -239l231 239h137l-282 -315h-172z" />
    <glyph glyph-name="tcaron" unicode="&#x165;" horiz-adv-x="817" 
d="M752 -2q-108 -25 -199 -25q-142 0 -198 61.5t-56 215.5v749l-240 11v102h240v299h135v-299h318v-113h-318v-743q0 -108 24 -141t109 -33q103 0 185 10v-94zM805 1583l-123 -350h-107l87 350h143z" />
    <glyph glyph-name="Tbar" unicode="&#x166;" horiz-adv-x="1245" 
d="M1184 1399h-494v-406h461v-121h-461v-872h-137v872h-457v121h457v406h-492v123h1123v-123z" />
    <glyph glyph-name="tbar" unicode="&#x167;" horiz-adv-x="798" 
d="M739 694h-319v-438q0 -107 24.5 -140.5t108.5 -33.5q82 0 184 10v-94q-107 -25 -198 -25q-141 0 -196.5 61.5t-55.5 215.5v444l-240 13v100h240v192l-240 11v102h240v299h133v-299h319v-113h-319v-192h319v-113z" />
    <glyph glyph-name="Utilde" unicode="&#x168;" horiz-adv-x="1398" 
d="M1235 653q0 -341 -130.5 -509.5t-404.5 -168.5q-277 0 -406.5 168t-129.5 510v869h137v-854q0 -308 87.5 -439t311.5 -131q222 0 311 132.5t89 437.5v854h135v-869zM1096 1858q0 -125 -41 -189.5t-142 -64.5q-54 0 -99 21.5t-97 68.5l-86 80q-39 38 -65.5 52.5
t-61.5 14.5q-51 0 -68.5 -38.5t-17.5 -116.5v-70h-101v70q0 251 187 251q55 0 95.5 -19t92.5 -65l88 -79q41 -39 68 -55.5t61 -16.5q53 0 70.5 39t17.5 117v69h99v-69z" />
    <glyph glyph-name="utilde" unicode="&#x169;" 
d="M1024 0h-133v90q-226 -117 -395 -117q-100 0 -167.5 30t-104 89.5t-51.5 135t-15 180.5v704h131v-704q0 -180 49.5 -250t181.5 -70q145 0 371 109v915h133v-1112zM985 1509q0 -124 -41 -188t-141 -64q-55 0 -100 21.5t-97 69.5l-86 77q-39 39 -65.5 54.5t-61.5 15.5
q-51 0 -68.5 -39.5t-17.5 -118.5v-69h-100v69q0 123 43.5 188.5t142.5 65.5q55 0 96 -19.5t93 -66.5l88 -80q41 -39 68 -55t61 -16q53 0 70.5 38.5t17.5 116.5v70h98v-70z" />
    <glyph glyph-name="Umacron" unicode="&#x16a;" horiz-adv-x="1398" 
d="M1235 653q0 -341 -130.5 -509.5t-404.5 -168.5q-277 0 -406.5 168t-129.5 510v869h137v-854q0 -308 87.5 -439t311.5 -131q222 0 311 132.5t89 437.5v854h135v-869zM1051 1706h-703v106h703v-106z" />
    <glyph glyph-name="umacron" unicode="&#x16b;" 
d="M1024 0h-133v90q-226 -117 -395 -117q-100 0 -167.5 30t-104 89.5t-51.5 135t-15 180.5v704h131v-704q0 -180 49.5 -250t181.5 -70q145 0 371 109v915h133v-1112zM946 1360h-702v106h702v-106z" />
    <glyph glyph-name="Ubreve" unicode="&#x16c;" horiz-adv-x="1398" 
d="M1235 653q0 -341 -130.5 -509.5t-404.5 -168.5q-277 0 -406.5 168t-129.5 510v869h137v-854q0 -308 87.5 -439t311.5 -131q222 0 311 132.5t89 437.5v854h135v-869zM1030 1911q-6 -71 -25 -126t-56 -100t-100.5 -69.5t-150.5 -24.5q-88 0 -151.5 24.5t-100 69.5
t-54.5 100t-23 126h100q11 -115 63.5 -171.5t165.5 -56.5q114 0 166.5 56.5t63.5 171.5h102z" />
    <glyph glyph-name="ubreve" unicode="&#x16d;" 
d="M1024 0h-133v90q-226 -117 -395 -117q-100 0 -167.5 30t-104 89.5t-51.5 135t-15 180.5v704h131v-704q0 -180 49.5 -250t181.5 -70q145 0 371 109v915h133v-1112zM928 1579q-6 -71 -25 -125.5t-56 -100t-100.5 -69.5t-150.5 -24q-88 0 -151.5 24t-100.5 69.5t-55.5 100
t-24.5 125.5h103q11 -117 62.5 -172t166.5 -55q113 0 165 55t64 172h103z" />
    <glyph glyph-name="Uring" unicode="&#x16e;" horiz-adv-x="1398" 
d="M1235 653q0 -341 -130.5 -509.5t-404.5 -168.5q-277 0 -406.5 168t-129.5 510v869h137v-854q0 -308 87.5 -439t311.5 -131q222 0 311 132.5t89 437.5v854h135v-869zM934 1800q0 -111 -64 -166t-170 -55t-171.5 55.5t-65.5 165.5t65.5 165.5t171.5 55.5t170 -55t64 -166z
M842 1800q0 72 -40 104.5t-102 32.5q-141 0 -141 -137q0 -72 39 -104.5t102 -32.5q62 0 102 33t40 104z" />
    <glyph glyph-name="uring" unicode="&#x16f;" 
d="M1024 0h-133v90q-226 -117 -395 -117q-100 0 -167.5 30t-104 89.5t-51.5 135t-15 180.5v704h131v-704q0 -180 49.5 -250t181.5 -70q145 0 371 109v915h133v-1112zM834 1456q0 -111 -64 -166t-170 -55t-172 55.5t-66 165.5t66 165.5t172 55.5t170 -55t64 -166zM741 1456
q0 73 -39.5 105t-101.5 32q-141 0 -141 -137t141 -137q62 0 101.5 32t39.5 105z" />
    <glyph glyph-name="Uhungarumlaut" unicode="&#x170;" horiz-adv-x="1398" 
d="M1235 653q0 -341 -130.5 -509.5t-404.5 -168.5q-277 0 -406.5 168t-129.5 510v869h137v-854q0 -308 87.5 -439t311.5 -131q222 0 311 132.5t89 437.5v854h135v-869zM1249 1931l-301 -315h-139l276 315h164zM672 1931h166l-303 -315h-138z" />
    <glyph glyph-name="uhungarumlaut" unicode="&#x171;" 
d="M1024 0h-133v90q-226 -117 -395 -117q-100 0 -167.5 30t-104 89.5t-51.5 135t-15 180.5v704h131v-704q0 -180 49.5 -250t181.5 -70q145 0 371 109v915h133v-1112zM1155 1577l-301 -315h-139l276 315h164zM578 1577h165l-303 -315h-137z" />
    <glyph glyph-name="Uogonek" unicode="&#x172;" horiz-adv-x="1398" 
d="M905 -424q-63 -20 -174 -20q-125 0 -186.5 50.5t-61.5 141.5q0 61 46.5 120.5t127.5 108.5q-254 12 -373.5 179.5t-119.5 496.5v869h137v-854q0 -308 87.5 -439t311.5 -131q222 0 311 132.5t89 437.5v854h135v-869q0 -284 -89.5 -448t-275.5 -209q-148 -68 -210 -126
t-62 -116q0 -54 33 -82t112 -28q21 0 162 12v-80z" />
    <glyph glyph-name="uogonek" unicode="&#x173;" 
d="M1024 -424q-62 -20 -166 -20q-125 0 -186.5 50.5t-61.5 141.5q0 77 74.5 145t206.5 125v78q-234 -123 -395 -123q-100 0 -167.5 30t-104 89.5t-51.5 135t-15 180.5v704h131v-704q0 -180 49.5 -250t181.5 -70q139 0 371 115v909h133v-1112q-168 -74 -233.5 -129.5
t-65.5 -116.5q0 -54 33 -82t112 -28q13 0 154 12v-80z" />
    <glyph glyph-name="Wcircumflex" unicode="&#x174;" horiz-adv-x="1810" 
d="M1718 1522l-299 -1522h-219l-252 1008q-6 29 -19.5 84t-19.5 84h-6q-7 -28 -20.5 -83.5t-20.5 -84.5l-250 -1008h-221l-299 1522h146l223 -1172q33 -184 43 -241h6q9 40 27.5 120.5t27.5 120.5l234 942h217l235 -948q52 -227 54 -235h8q13 89 41 241l223 1172h141z
M1276 1616h-137l-232 237l-231 -237h-137l282 315h172z" />
    <glyph glyph-name="wcircumflex" unicode="&#x175;" horiz-adv-x="1658" 
d="M1597 1112l-264 -1112h-192l-248 733q-36 106 -59 197h-7q-56 -189 -59 -197l-248 -733h-192l-267 1112h138l176 -756q33 -155 45 -252h8q10 32 35.5 120t40.5 132l223 672h207l223 -672q15 -44 40.5 -132t35.5 -120h8q12 97 45 252l174 756h137zM1198 1262h-137
l-234 237l-229 -237h-137l282 315h172z" />
    <glyph glyph-name="Ycircumflex" unicode="&#x176;" horiz-adv-x="1230" 
d="M1176 1522l-492 -908v-614h-137v614l-492 908h150l307 -568q74 -141 102 -209h9q15 36 106 209l305 568h142zM989 1616h-137l-234 237l-229 -237h-137l283 315h172z" />
    <glyph glyph-name="ycircumflex" unicode="&#x177;" horiz-adv-x="1064" 
d="M1014 1112l-424 -1200q-29 -81 -51 -132t-53.5 -99.5t-67.5 -74t-86.5 -40.5t-116.5 -15q-83 0 -195 15v106q107 -8 191 -8q51 0 84 11t61.5 44.5t49 77.5t51.5 129l26 76l-430 1110h148l266 -713q44 -128 80 -249h4q34 124 76 251l243 711h144zM913 1262h-137l-231 237
l-232 -237h-137l283 315h172z" />
    <glyph glyph-name="Ydieresis" unicode="&#x178;" horiz-adv-x="1230" 
d="M1176 1522l-492 -908v-614h-137v614l-492 908h150l307 -568q74 -141 102 -209h9q15 36 106 209l305 568h142zM915 1657h-122v244h122v-244zM446 1901v-244h-122v244h122z" />
    <glyph glyph-name="Zacute" unicode="&#x179;" horiz-adv-x="1236" 
d="M1141 0h-1045v150l867 1249h-834v123h981v-150l-864 -1251h895v-121zM983 1931l-303 -315h-135l274 315h164z" />
    <glyph glyph-name="zacute" unicode="&#x17a;" horiz-adv-x="980" 
d="M887 0h-801v147l653 852h-628v113h774v-137l-662 -864h664v-111zM854 1577l-301 -315h-137l276 315h162z" />
    <glyph glyph-name="Zdotaccent" unicode="&#x17b;" horiz-adv-x="1236" 
d="M1141 0h-1045v150l867 1249h-834v123h981v-150l-864 -1251h895v-121zM684 1657h-133v248h133v-248z" />
    <glyph glyph-name="zdotaccent" unicode="&#x17c;" horiz-adv-x="980" 
d="M887 0h-801v147l653 852h-628v113h774v-137l-662 -864h664v-111zM569 1329h-133v248h133v-248z" />
    <glyph glyph-name="Zcaron" unicode="&#x17d;" horiz-adv-x="1236" 
d="M1141 0h-1045v150l867 1249h-834v123h981v-150l-864 -1251h895v-121zM270 1931h138l229 -239l233 239h138l-283 -315h-172z" />
    <glyph glyph-name="zcaron" unicode="&#x17e;" horiz-adv-x="980" 
d="M887 0h-801v147l653 852h-628v113h774v-137l-662 -864h664v-111zM141 1577h138l231 -240l231 240h138l-283 -315h-172z" />
    <glyph glyph-name="florin" unicode="&#x192;" horiz-adv-x="1286" 
d="M1171 1526l-12 -96q-88 10 -155 10q-52 0 -85.5 -8.5t-60 -32.5t-41.5 -67t-24 -113l-50 -359h365l-16 -112h-367l-96 -730q-24 -179 -101.5 -248t-222.5 -69q-105 0 -190 20l14 97q94 -11 160 -11q49 0 80.5 8t58.5 31.5t43 67t25 113.5l96 721h-320l17 112h321l49 367
q25 180 101.5 249.5t228.5 69.5q100 0 182 -20z" />
    <glyph glyph-name="Aringacute" unicode="&#x1fa;" horiz-adv-x="1316" 
d="M1268 0h-146l-178 539h-577l-181 -539h-139l516 1522h191zM901 664l-172 510q-38 111 -65 235h-15q-30 -125 -65 -235l-176 -510h493zM893 1765q0 -111 -64 -166t-170 -55t-171.5 55.5t-65.5 165.5q0 109 65.5 164.5t171.5 55.5q105 0 169.5 -55.5t64.5 -164.5zM801 1765
q0 72 -39.5 104t-102.5 32q-141 0 -141 -136q0 -137 141 -137q62 0 102 32.5t40 104.5zM709 2011h-136l275 316h164z" />
    <glyph glyph-name="aringacute" unicode="&#x1fb;" horiz-adv-x="1087" 
d="M938 0h-129v80q-178 -107 -371 -107q-165 0 -248.5 78t-83.5 242v31q0 84 22.5 144t62 98t104.5 60t140 30t179 8h189v94q0 86 -10.5 134.5t-44.5 80.5t-89 42.5t-151 10.5q-130 0 -326 -22v98q205 39 336 39q132 0 215 -22t128 -72.5t61 -117t16 -171.5v-758zM803 178
v381h-189q-86 0 -142.5 -5.5t-104 -20t-73.5 -41t-40 -67.5t-14 -101v-39q0 -111 57.5 -159t167.5 -48q94 0 187 31.5t151 68.5zM797 1411q0 -111 -64 -166t-170 -55t-171.5 55.5t-65.5 165.5t65.5 165.5t171.5 55.5t170 -55t64 -166zM705 1411q0 72 -40 104.5t-102 32.5
q-141 0 -141 -137q0 -72 39 -104.5t102 -32.5q62 0 102 33t40 104zM905 1985l-301 -316h-137l276 316h162z" />
    <glyph glyph-name="AEacute" unicode="&#x1fc;" horiz-adv-x="1929" 
d="M201 0h-140l510 1522h1246v-123h-740v-543h692v-125h-692v-610h740v-121h-875v539h-563zM942 662v739h-276q-46 -149 -70 -221l-176 -518h522zM1497 1931l-301 -315h-137l274 315h164z" />
    <glyph glyph-name="aeacute" unicode="&#x1fd;" horiz-adv-x="1835" 
d="M1694 14q-187 -41 -385 -41q-172 0 -275.5 34.5t-156.5 113.5q-199 -148 -445 -148q-157 0 -242.5 78t-85.5 236v43q0 82 22.5 141t62 96t104.5 59t140 30t179 8h191v94q0 85 -10.5 133.5t-44 80.5t-89 43t-151.5 11q-143 0 -330 -22v98q198 39 338 39q126 0 204.5 -21
t116.5 -56.5t60 -94.5q108 170 371 170q237 0 350 -140t113 -395v-94h-793v-113q0 -78 17 -133t58.5 -96.5t115 -61.5t182.5 -20q165 0 383 37v-109zM1593 623v30q0 371 -325 371q-78 0 -137.5 -21.5t-95 -56t-57.5 -82.5t-30 -94.5t-8 -99.5v-47h653zM803 190v369h-191
q-86 0 -142.5 -5t-103.5 -19t-73 -40t-39.5 -66t-13.5 -99v-54q0 -198 217 -198q97 0 191.5 34.5t154.5 77.5zM1284 1577l-303 -315h-135l274 315h164z" />
    <glyph glyph-name="Oslashacute" unicode="&#x1fe;" horiz-adv-x="1374" 
d="M1262 680q0 -354 -148.5 -530.5t-425.5 -176.5q-245 0 -387 136l-76 -109h-143l141 201q-110 173 -110 479v160q0 355 148 530.5t427 175.5q248 0 389 -141l82 117h141l-145 -207q107 -176 107 -475v-160zM999 1296q-110 127 -311 127q-79 0 -144 -18t-120.5 -60.5
t-93.5 -109t-59 -166.5t-21 -229v-160q0 -227 65 -354zM1124 680v160q0 217 -61 348l-684 -971q107 -121 309 -121q99 0 176 30t136.5 96t91.5 181.5t32 276.5zM997 1931l-303 -315h-135l275 315h163z" />
    <glyph glyph-name="oslashacute" unicode="&#x1ff;" horiz-adv-x="1155" 
d="M915 1577l-301 -315h-137l275 315h163zM1040 498q0 -525 -462 -525q-182 0 -295 84l-80 -108h-142l142 188q-88 128 -88 361v118q0 525 463 525q192 0 311 -99l90 121h141l-157 -207q77 -125 77 -340v-118zM907 498v118q0 139 -37 220l-512 -678q80 -68 220 -68
q172 0 250.5 97t78.5 311zM811 942q-77 80 -233 80q-173 0 -251.5 -96t-78.5 -310v-118q0 -159 43 -246z" />
    <glyph glyph-name="Scommaaccent" unicode="&#x218;" horiz-adv-x="1171" 
d="M1059 375q0 -198 -124 -300t-368 -102q-120 0 -239 12t-183 25v109q230 -27 422 -27q174 0 263.5 66.5t89.5 216.5q0 111 -58 176t-213 139l-207 96q-167 78 -248 170t-81 238q0 180 121.5 266t361.5 86q222 0 412 -37v-110q-229 26 -408 26q-173 0 -261.5 -52.5
t-88.5 -178.5q0 -100 58 -163.5t196 -129.5l207 -94q125 -60 197 -115t111.5 -132.5t39.5 -184.5zM682 -139l-195 -289h-125l164 289h156z" />
    <glyph glyph-name="scommaaccent" unicode="&#x219;" horiz-adv-x="966" 
d="M877 274q0 -63 -20 -114.5t-64 -95t-125.5 -67.5t-194.5 -24q-100 0 -202 13.5t-154 27.5v105q10 -1 63.5 -8t90.5 -11t94.5 -8t103.5 -4q149 0 211.5 47t62.5 137q0 83 -48.5 128.5t-200.5 107.5l-80 31q-165 67 -238.5 141.5t-73.5 189.5q0 138 98.5 204.5t299.5 66.5
q94 0 186 -12.5t139 -26.5v-103q-186 25 -319 25q-143 0 -205.5 -33t-62.5 -121q0 -76 48 -120.5t181 -98.5l80 -33q191 -80 260.5 -150.5t69.5 -193.5zM590 -139l-195 -289h-127l166 289h156z" />
    <glyph glyph-name="Tcommaaccent" unicode="&#x21a;" horiz-adv-x="1245" 
d="M1184 1399h-494v-1399h-137v1399h-492v123h1123v-123zM717 -139l-195 -289h-125l164 289h156z" />
    <glyph glyph-name="tcommaaccent" unicode="&#x21b;" horiz-adv-x="798" 
d="M741 -2q-113 -25 -200 -25q-141 0 -196.5 61.5t-55.5 215.5v749l-242 11v102h242v299h133v-299h319v-113h-319v-743q0 -108 24 -141t109 -33q104 0 186 10v-94zM582 -139l-195 -289h-127l166 289h156z" />
    <glyph glyph-name="circumflex" unicode="&#x2c6;" horiz-adv-x="927" 
d="M834 1262h-138l-233 237l-230 -237h-137l283 315h172z" />
    <glyph glyph-name="caron" unicode="&#x2c7;" horiz-adv-x="927" 
d="M96 1577h137l230 -240l233 240h138l-283 -315h-172z" />
    <glyph glyph-name="uni02C9" unicode="&#x2c9;" horiz-adv-x="923" 
d="M813 1360h-702v106h702v-106z" />
    <glyph glyph-name="breve" unicode="&#x2d8;" horiz-adv-x="911" 
d="M788 1579q-6 -71 -25 -125.5t-56 -100t-100 -69.5t-150 -24q-88 0 -151.5 24t-100.5 69.5t-55.5 100t-24.5 125.5h102q11 -117 63 -172t167 -55q113 0 165 55t64 172h102z" />
    <glyph glyph-name="dotaccent" unicode="&#x2d9;" horiz-adv-x="882" 
d="M518 1329h-133v248h133v-248z" />
    <glyph glyph-name="ring" unicode="&#x2da;" horiz-adv-x="911" 
d="M692 1456q0 -111 -64 -166t-169 -55q-106 0 -172 55.5t-66 165.5t66 165.5t172 55.5q105 0 169 -55t64 -166zM598 1456q0 73 -38.5 105t-100.5 32q-142 0 -142 -137t142 -137q62 0 100.5 32t38.5 105z" />
    <glyph glyph-name="ogonek" unicode="&#x2db;" horiz-adv-x="911" 
d="M692 -424q-62 -20 -174 -20q-125 0 -186.5 50.5t-61.5 141.5q0 78 75 146.5t202 123.5l145 -18q-171 -75 -239 -130.5t-68 -115.5q0 -54 33 -82t112 -28q21 0 162 12v-80z" />
    <glyph glyph-name="tilde" unicode="&#x2dc;" horiz-adv-x="917" 
d="M848 1509q0 -124 -41 -188t-141 -64q-54 0 -99 21.5t-98 69.5l-84 77q-41 39 -67 54.5t-60 15.5q-36 0 -56.5 -21.5t-26 -53t-5.5 -83.5v-69h-100v69q0 123 44 188.5t144 65.5q54 0 93.5 -19.5t94.5 -66.5l86 -80q40 -38 68.5 -54.5t63.5 -16.5q36 0 56 21t25 51.5
t5 82.5v70h98v-70z" />
    <glyph glyph-name="hungarumlaut" unicode="&#x2dd;" horiz-adv-x="919" 
d="M977 1573l-301 -316h-137l276 316h162zM428 1573h164l-301 -316h-139z" />
    <glyph glyph-name="uni037E" unicode="&#x37e;" horiz-adv-x="483" 
d="M313 545h-135v282h135v-282z" />
    <glyph glyph-name="uni03A9" unicode="&#x3a9;" horiz-adv-x="1357" 
d="M1251 797q0 -203 -86 -350.5t-268 -219.5v-112h336v-115h-463v295q344 105 344 502v121q0 138 -32.5 238.5t-93 158t-136.5 84t-172 26.5t-172 -26.5t-136.5 -84t-93 -158t-32.5 -238.5v-121q0 -397 344 -502v-295h-463v115h336v112q-182 72 -268 219.5t-86 350.5v121
q0 307 152 467.5t419 160.5q268 0 419.5 -160t151.5 -468v-121z" />
    <glyph glyph-name="uni03BC" unicode="&#x3bc;" horiz-adv-x="1284" 
d="M1075 0h-133v90q-226 -117 -397 -117q-145 0 -203 78v-479h-135v1540h133v-704q0 -180 49.5 -250t181.5 -70q145 0 371 109v915h133v-1112z" />
    <glyph glyph-name="pi" unicode="&#x3c0;" horiz-adv-x="1257" 
d="M1182 -18q-57 -11 -109 -11q-125 0 -170 65.5t-45 213.5v737h-438v-987h-135v987h-193v125h1090v-125h-191v-737q0 -98 21 -132t90 -34h80v-102z" />
    <glyph glyph-name="Wgrave" unicode="&#x1e80;" horiz-adv-x="1810" 
d="M1718 1522l-299 -1522h-219l-252 1008q-6 29 -19.5 84t-19.5 84h-6q-7 -28 -20.5 -83.5t-20.5 -84.5l-250 -1008h-221l-299 1522h146l223 -1172q33 -184 43 -241h6q9 40 27.5 120.5t27.5 120.5l234 942h217l235 -948q52 -227 54 -235h8q13 89 41 241l223 1172h141z
M1059 1616h-137l-301 315h161z" />
    <glyph glyph-name="wgrave" unicode="&#x1e81;" horiz-adv-x="1658" 
d="M1597 1112l-264 -1112h-192l-248 733q-36 106 -59 197h-7q-56 -189 -59 -197l-248 -733h-192l-267 1112h138l176 -756q33 -155 45 -252h8q10 32 35.5 120t40.5 132l223 672h207l223 -672q15 -44 40.5 -132t35.5 -120h8q12 97 45 252l174 756h137zM936 1262h-137l-301 315
h164z" />
    <glyph glyph-name="Wacute" unicode="&#x1e82;" horiz-adv-x="1810" 
d="M1718 1522l-299 -1522h-219l-252 1008q-6 29 -19.5 84t-19.5 84h-6q-7 -28 -20.5 -83.5t-20.5 -84.5l-250 -1008h-221l-299 1522h146l223 -1172q33 -184 43 -241h6q9 40 27.5 120.5t27.5 120.5l234 942h217l235 -948q52 -227 54 -235h8q13 89 41 241l223 1172h141z
M1243 1931l-301 -315h-137l276 315h162z" />
    <glyph glyph-name="wacute" unicode="&#x1e83;" horiz-adv-x="1658" 
d="M1597 1112l-264 -1112h-192l-248 733q-36 106 -59 197h-7q-56 -189 -59 -197l-248 -733h-192l-267 1112h138l176 -756q33 -155 45 -252h8q10 32 35.5 120t40.5 132l223 672h207l223 -672q15 -44 40.5 -132t35.5 -120h8q12 97 45 252l174 756h137zM1155 1577l-303 -315
h-135l274 315h164z" />
    <glyph glyph-name="Wdieresis" unicode="&#x1e84;" horiz-adv-x="1810" 
d="M1718 1522l-299 -1522h-219l-252 1008q-6 29 -19.5 84t-19.5 84h-6q-7 -28 -20.5 -83.5t-20.5 -84.5l-250 -1008h-221l-299 1522h146l223 -1172q33 -184 43 -241h6q9 40 27.5 120.5t27.5 120.5l234 942h217l235 -948q52 -227 54 -235h8q13 89 41 241l223 1172h141z
M1202 1657h-121v244h121v-244zM733 1901v-244h-123v244h123z" />
    <glyph glyph-name="wdieresis" unicode="&#x1e85;" horiz-adv-x="1658" 
d="M1597 1112l-264 -1112h-192l-248 733q-36 106 -59 197h-7q-56 -189 -59 -197l-248 -733h-192l-267 1112h138l176 -756q33 -155 45 -252h8q10 32 35.5 120t40.5 132l223 672h207l223 -672q15 -44 40.5 -132t35.5 -120h8q12 97 45 252l174 756h137zM1124 1315h-123v244h123
v-244zM655 1559v-244h-123v244h123z" />
    <glyph glyph-name="Ygrave" unicode="&#x1ef2;" horiz-adv-x="1230" 
d="M1176 1522l-492 -908v-614h-137v614l-492 908h150l307 -568q74 -141 102 -209h9q15 36 106 209l305 568h142zM748 1614h-138l-301 315h162z" />
    <glyph glyph-name="ygrave" unicode="&#x1ef3;" horiz-adv-x="1064" 
d="M1014 1112l-424 -1200q-29 -81 -51 -132t-53.5 -99.5t-67.5 -74t-86.5 -40.5t-116.5 -15q-83 0 -195 15v106q107 -8 191 -8q51 0 84 11t61.5 44.5t49 77.5t51.5 129l26 76l-430 1110h148l266 -713q44 -128 80 -249h4q34 124 76 251l243 711h144zM666 1262h-138l-303 315
h164z" />
    <glyph glyph-name="figuredash" unicode="&#x2012;" horiz-adv-x="1337" 
d="M1204 541h-1050v114h1050v-114z" />
    <glyph glyph-name="endash" unicode="&#x2013;" horiz-adv-x="1019" 
d="M874 537h-729v116h729v-116z" />
    <glyph glyph-name="emdash" unicode="&#x2014;" horiz-adv-x="1304" 
d="M1159 537h-1014v116h1014v-116z" />
    <glyph glyph-name="quoteleft" unicode="&#x2018;" horiz-adv-x="331" 
d="M291 1583l-107 -469h-143l145 469h105z" />
    <glyph glyph-name="quoteright" unicode="&#x2019;" horiz-adv-x="331" 
d="M291 1583l-144 -469h-106l106 469h144z" />
    <glyph glyph-name="quotesinglbase" unicode="&#x201a;" horiz-adv-x="331" 
d="M291 274l-144 -467h-106l106 467h144z" />
    <glyph glyph-name="quotedblleft" unicode="&#x201c;" horiz-adv-x="708" 
d="M668 1583l-109 -469h-143l145 469h107zM186 1583h105l-107 -469h-143z" />
    <glyph glyph-name="quotedblright" unicode="&#x201d;" horiz-adv-x="708" 
d="M41 1114l109 469h143l-146 -469h-106zM522 1114h-104l106 469h144z" />
    <glyph glyph-name="quotedblbase" unicode="&#x201e;" horiz-adv-x="708" 
d="M41 -195l109 469h143l-146 -469h-106zM522 -195h-104l106 469h144z" />
    <glyph glyph-name="dagger" unicode="&#x2020;" horiz-adv-x="1011" 
d="M858 1014h-295v-1260h-133v1260h-270v119h270v450h133v-450h295v-119z" />
    <glyph glyph-name="daggerdbl" unicode="&#x2021;" horiz-adv-x="1011" 
d="M862 567h-299v-813h-133v813h-274v119h274v320h-274v118h274v453h133v-453h299v-118h-299v-320h299v-119z" />
    <glyph glyph-name="bullet" unicode="&#x2022;" horiz-adv-x="1091" 
d="M815 756q0 -111 -79 -191t-191 -80q-110 0 -190.5 80.5t-80.5 190.5q0 112 80 191t191 79q113 0 191.5 -79t78.5 -191z" />
    <glyph glyph-name="onedotenleader" unicode="&#x2024;" horiz-adv-x="430" 
d="M283 0h-136v279h136v-279z" />
    <glyph glyph-name="twodotenleader" unicode="&#x2025;" horiz-adv-x="876" 
d="M283 0h-136v279h136v-279zM729 0h-135v279h135v-279z" />
    <glyph glyph-name="ellipsis" unicode="&#x2026;" horiz-adv-x="1572" 
d="M291 0h-135v279h135v-279zM854 0h-135v279h135v-279zM1415 0h-133v279h133v-279z" />
    <glyph glyph-name="perthousand" unicode="&#x2030;" horiz-adv-x="2895" 
d="M2781 387q0 -205 -88.5 -307.5t-251.5 -102.5t-251.5 102.5t-88.5 307.5v119q0 205 88 306t252 101t252 -101t88 -306v-119zM2660 387v119q0 168 -57.5 236.5t-161.5 68.5t-161.5 -68.5t-57.5 -236.5v-119q0 -168 57.5 -236.5t161.5 -68.5t161.5 68.5t57.5 236.5z
M1964 387q0 -205 -89 -307.5t-251 -102.5q-163 0 -252.5 102.5t-89.5 307.5v119q0 205 89 306t253 101q162 0 251 -101.5t89 -305.5v-119zM1843 387v119q0 87 -16.5 148.5t-47.5 94.5t-68.5 47.5t-86.5 14.5q-104 0 -162.5 -68.5t-58.5 -236.5v-119q0 -168 58.5 -236.5
t162.5 -68.5q49 0 86.5 14.5t68.5 47.5t47.5 94.5t16.5 148.5zM1595 1522l-970 -1522h-138l971 1522h137zM801 1018q0 -412 -340 -412q-172 0 -256 107.5t-84 304.5v115q0 198 83.5 304.5t256.5 106.5q340 0 340 -411v-115zM680 1018v115q0 168 -55 238.5t-164 70.5
t-164 -72t-55 -237v-115q0 -168 54.5 -237.5t164.5 -69.5t164.5 69.5t54.5 237.5z" />
    <glyph glyph-name="guilsinglleft" unicode="&#x2039;" horiz-adv-x="716" 
d="M602 160h-160l-327 424l327 422h160l-321 -422z" />
    <glyph glyph-name="guilsinglright" unicode="&#x203a;" horiz-adv-x="716" 
d="M604 584l-330 -424h-159l323 424l-323 422h159z" />
    <glyph glyph-name="exclamdbl" unicode="&#x203c;" horiz-adv-x="882" 
d="M305 0h-137v260h137v-260zM309 1567l-12 -1176h-119l-14 1176h145zM715 0h-137v260h137v-260zM719 1567l-12 -1176h-119l-15 1176h146z" />
    <glyph glyph-name="fraction" unicode="&#x2044;" horiz-adv-x="811" 
d="M963 1522l-969 -1522h-137l968 1522h138z" />
    <glyph glyph-name="zero.superior" unicode="&#x2070;" horiz-adv-x="897" 
d="M793 1075q0 -204 -90.5 -305.5t-256.5 -101.5q-165 0 -254.5 101t-89.5 306v119q0 206 89.5 308t254.5 102q166 0 256.5 -102t90.5 -308v-119zM668 1075v119q0 170 -59 239.5t-163 69.5q-105 0 -163 -69.5t-58 -239.5v-119q0 -169 58 -237t163 -68q104 0 163 68.5
t59 236.5z" />
    <glyph glyph-name="i.superior" unicode="&#x2071;" horiz-adv-x="389" 
d="M135 1300h119v-682h-119v682zM256 1425h-123v158h123v-158z" />
    <glyph glyph-name="four.superior" unicode="&#x2074;" horiz-adv-x="919" 
d="M678 686h-123v240h-461v100l465 563h119v-571h147v-92h-147v-240zM559 1018v430l-348 -430h348z" />
    <glyph glyph-name="five.superior" unicode="&#x2075;" horiz-adv-x="864" 
d="M709 1493h-428l-27 -264h141q184 0 267 -58t83 -202v-19q0 -148 -88 -215t-268 -67q-150 0 -270 28v86q152 -20 258 -20q135 0 189.5 42.5t54.5 143.5v21q0 98 -53 133t-189 35h-244l43 452h531v-96z" />
    <glyph glyph-name="six.superior" unicode="&#x2076;" horiz-adv-x="915" 
d="M750 1577v-88q-148 18 -269 18q-77 0 -126.5 -16t-75.5 -50t-35.5 -75.5t-10.5 -105.5v-46q122 29 232 29q56 0 100 -5.5t88.5 -21.5t73.5 -42t47.5 -71t18.5 -106v-43q0 -79 -28.5 -137t-77.5 -89.5t-105 -45.5t-121 -14q-82 0 -142.5 17t-108.5 57.5t-72.5 114
t-24.5 179.5v213q0 180 81 267.5t279 87.5q139 0 277 -27zM670 954v41q0 96 -54 129t-159 33q-121 0 -224 -24v-109q0 -78 16.5 -131t48.5 -81.5t71 -40t92 -11.5q95 0 152 47.5t57 146.5z" />
    <glyph glyph-name="seven.superior" unicode="&#x2077;" horiz-adv-x="847" 
d="M121 1493v96h620v-110l-426 -793h-135l441 807h-500z" />
    <glyph glyph-name="eight.superior" unicode="&#x2078;" horiz-adv-x="946" 
d="M821 938q0 -69 -19 -119t-49.5 -79t-79.5 -45.5t-96.5 -21.5t-113.5 -5q-64 0 -110.5 5t-94.5 21.5t-78.5 45.5t-49.5 79t-19 119v14q0 149 120 203q-116 53 -116 199v12q0 57 18.5 99.5t49 68.5t77 42t96.5 22t113 6q61 0 109.5 -6t94.5 -22t76.5 -42t49 -68.5
t18.5 -99.5v-12q0 -145 -115 -199q119 -55 119 -203v-14zM698 940v12q0 78 -33 119t-112 41h-172q-81 0 -114.5 -41t-33.5 -119v-12q0 -107 58 -144.5t178 -37.5q115 0 172 37.5t57 144.5zM696 1352v12q0 85 -58 117t-175 32q-113 0 -170 -32t-57 -117v-12q0 -152 145 -152
h172q143 0 143 152z" />
    <glyph glyph-name="nine.superior" unicode="&#x2079;" horiz-adv-x="915" 
d="M154 694v88q153 -18 270 -18q77 0 126.5 16.5t75 51t35 76t9.5 104.5v47q-119 -29 -230 -29q-56 0 -100 5.5t-88.5 21.5t-74 42t-48 71t-18.5 106v43q0 64 19.5 114t51 82t76 52.5t90.5 28.5t98 8q81 0 141 -17t108 -57t73 -113.5t25 -179.5v-213q0 -179 -82.5 -267.5
t-278.5 -88.5q-112 0 -278 26zM670 1141v108q0 78 -16 131t-47 81.5t-70 40t-93 11.5q-96 0 -153.5 -47.5t-57.5 -146.5v-41q0 -96 54 -129t159 -33q119 0 224 25z" />
    <glyph glyph-name="parenleft.superior" unicode="&#x207d;" horiz-adv-x="512" 
d="M420 537h-121q-71 88 -124.5 225t-53.5 307v10q0 172 54 311t126 228h121q-176 -245 -176 -539v-10q0 -293 174 -532z" />
    <glyph glyph-name="parenright.superior" unicode="&#x207e;" horiz-adv-x="512" 
d="M389 1069q0 -171 -53 -308.5t-125 -223.5h-119q172 236 172 532v10q0 299 -176 539h121q72 -89 126 -228t54 -311v-10z" />
    <glyph glyph-name="n.superior" unicode="&#x207f;" horiz-adv-x="817" 
d="M696 618h-118v426q0 104 -27.5 143.5t-101.5 39.5q-82 0 -209 -60v-549h-121v682h117v-47q140 68 235 68q69 0 115 -18.5t69.5 -56.5t32 -83.5t8.5 -113.5v-431z" />
    <glyph glyph-name="zero.inferior" unicode="&#x2080;" horiz-adv-x="915" 
d="M803 -39q0 -206 -90.5 -308t-255.5 -102t-254.5 102.5t-89.5 307.5v119q0 205 89.5 306t254.5 101t255.5 -101t90.5 -306v-119zM680 -41v121q0 88 -16.5 149.5t-48 95t-69.5 48t-89 14.5q-104 0 -162.5 -68.5t-58.5 -238.5v-121q0 -168 58.5 -236.5t162.5 -68.5
q50 0 88.5 14.5t70 47.5t48 94.5t16.5 148.5z" />
    <glyph glyph-name="one.inferior" unicode="&#x2081;" horiz-adv-x="776" 
d="M668 -430h-557v90l215 4v696l-217 -69v100l249 86h91v-813l219 -4v-90z" />
    <glyph glyph-name="two.inferior" unicode="&#x2082;" horiz-adv-x="862" 
d="M133 377v84q117 26 281 26q167 0 247 -50.5t80 -166.5q0 -92 -53.5 -155t-200.5 -135q-83 -41 -128 -69t-73 -63.5t-36 -72t-8 -97.5v-10h487v-98h-610v90q0 156 59.5 233t235.5 164q131 63 167.5 103.5t36.5 107.5q0 71 -50.5 99t-166.5 28q-97 0 -268 -18z" />
    <glyph glyph-name="three.inferior" unicode="&#x2083;" horiz-adv-x="851" 
d="M389 -449q-73 0 -155.5 9.5t-110.5 17.5v84q188 -16 256 -16q124 0 177.5 38t53.5 138v16q0 36 -6 60t-23 47t-53 34t-92 11h-276v92h278q44 0 76 9t50 23t29 36t14 42.5t3 47.5v12q0 78 -50.5 109.5t-178.5 31.5q-62 0 -258 -16v86q140 24 266 24q178 0 261 -52t83 -179
v-12q0 -70 -31 -126.5t-100 -82.5q131 -42 131 -201v-16q0 -140 -83.5 -203.5t-260.5 -63.5z" />
    <glyph glyph-name="four.inferior" unicode="&#x2084;" horiz-adv-x="915" 
d="M674 -430h-123v240h-461v100l465 563h119v-571h147v-92h-147v-240zM555 -98v430l-348 -430h348z" />
    <glyph glyph-name="five.inferior" unicode="&#x2085;" horiz-adv-x="864" 
d="M709 377h-428l-27 -264h141q184 0 267 -58t83 -202v-19q0 -148 -88 -215.5t-268 -67.5q-145 0 -270 29v86q152 -20 258 -20q135 0 189.5 42.5t54.5 143.5v21q0 98 -52.5 132.5t-189.5 34.5h-244l43 453h531v-96z" />
    <glyph glyph-name="six.inferior" unicode="&#x2086;" horiz-adv-x="907" 
d="M750 461v-88q-149 18 -269 18q-77 0 -126.5 -16t-75.5 -50.5t-35.5 -76t-10.5 -105.5v-45q122 29 232 29q56 0 100 -5.5t88.5 -21.5t73.5 -42t47.5 -71t18.5 -106v-43q0 -79 -28.5 -137.5t-77.5 -89.5t-105 -45.5t-121 -14.5q-82 0 -142.5 17t-108.5 57.5t-72.5 114.5
t-24.5 180v213q0 180 81 267t279 87q144 0 277 -26zM670 -162v41q0 96 -54 129t-159 33q-117 0 -224 -25v-108q0 -78 16.5 -131t48.5 -81.5t71 -40t92 -11.5q95 0 152 47.5t57 146.5z" />
    <glyph glyph-name="seven.inferior" unicode="&#x2087;" horiz-adv-x="843" 
d="M117 377v96h620v-111l-426 -792h-135l440 807h-499z" />
    <glyph glyph-name="eight.inferior" unicode="&#x2088;" horiz-adv-x="931" 
d="M821 -178q0 -69 -19 -119.5t-49.5 -79t-78.5 -45.5t-95 -22t-110 -5h-6q-63 0 -110 5t-95 22t-78.5 45.5t-49.5 79t-19 119.5v14q0 149 120 203q-116 53 -116 199v12q0 57 18.5 99.5t49 68.5t76.5 41.5t94.5 21.5t109.5 6h6q61 0 109.5 -6t94.5 -21.5t76.5 -41.5
t49 -68.5t18.5 -99.5v-12q0 -145 -115 -199q119 -55 119 -203v-14zM698 -176v12q0 78 -33 119t-112 41h-172q-81 0 -114.5 -41t-33.5 -119v-12q0 -106 57 -144t173 -38h6q115 0 172 37.5t57 144.5zM696 236v12q0 85 -57 117t-170 32h-6q-113 0 -170 -32t-57 -117v-12
q0 -152 145 -152h172q143 0 143 152z" />
    <glyph glyph-name="nine.inferior" unicode="&#x2089;" horiz-adv-x="907" 
d="M156 -422v88q153 -18 268 -18q77 0 127 16.5t76 50.5t35.5 76t9.5 105v47q-119 -29 -232 -29q-70 0 -123 9.5t-102 34.5t-75.5 76t-26.5 126v43q0 64 19.5 114t51.5 81.5t76.5 52t90.5 28.5t98 8q81 0 140.5 -17t107 -56.5t72 -113t24.5 -179.5v-213q0 -179 -82 -268
t-279 -89q-111 0 -276 27zM672 25v108q0 150 -58 207t-168 57q-95 0 -152.5 -47.5t-57.5 -146.5v-41q0 -96 54 -129t159 -33q118 0 223 25z" />
    <glyph glyph-name="parenleft.inferior" unicode="&#x208d;" horiz-adv-x="512" 
d="M418 -496h-119q-72 86 -125 224.5t-53 310.5v8q0 172 54 311t126 228h121q-176 -236 -176 -539v-8q0 -299 172 -535z" />
    <glyph glyph-name="parenright.inferior" unicode="&#x208e;" horiz-adv-x="512" 
d="M389 39q0 -171 -53.5 -309t-124.5 -226h-121q174 234 174 535v8q0 303 -176 539h121q72 -89 126 -228t54 -311v-8z" />
    <glyph glyph-name="colonmonetary" unicode="&#x20a1;" horiz-adv-x="956" 
d="M870 1106v-102q-138 20 -284 20q-166 0 -248 -85.5t-82 -297.5v-166q0 -110 21 -185.5t64 -119.5t101.5 -63t139.5 -19q91 0 288 23v-103q-73 -15 -135 -22v-217h-112v204h-52q-47 0 -94 7v-211h-110v243q-246 94 -246 463v166q0 361 246 461v256h110v-225q41 8 105 8h41
v217h112v-230q77 -9 135 -22z" />
    <glyph glyph-name="franc" unicode="&#x20a3;" horiz-adv-x="1179" 
d="M338 0h-135v360h-119v125h119v1037h876v-123h-741v-543h692v-125h-692v-246h395v-125h-395v-360z" />
    <glyph glyph-name="lira" unicode="&#x20a4;" horiz-adv-x="1255" 
d="M1116 1507v-112q-193 26 -362 26q-71 0 -122 -7.5t-88 -27.5t-59.5 -47t-36 -73t-18 -98.5t-4.5 -129.5v-112h532v-115h-532v-186h532v-115h-532v-113q0 -88 -20 -152.5t-70 -127.5h780v-117h-932v106q59 64 82 133t23 158v113h-168v115h168v186h-168v115h168v112
q0 136 18.5 224.5t68.5 154.5t140 95.5t229 29.5q186 0 371 -35z" />
    <glyph glyph-name="peseta" unicode="&#x20a7;" horiz-adv-x="1339" 
d="M219 1143v379q19 0 158 4t221 4q134 0 233 -18.5t177.5 -62t122.5 -119.5t55 -187h125v-121h-125q-8 -114 -52.5 -194t-123.5 -125t-179 -65t-235 -20q-111 0 -240 3v-621h-137v1022h-141v121h141zM1051 1065v27q0 94 -26.5 155.5t-85 96.5t-139.5 49t-202 14
q-38 0 -242 -6v-660q86 -2 240 -2q239 0 347 71.5t108 254.5z" />
    <glyph glyph-name="Euro" unicode="&#x20ac;" horiz-adv-x="1304" 
d="M827 1423q-95 0 -164.5 -19t-129 -65.5t-97.5 -132t-55 -211.5h702l-30 -108h-686q-8 -105 2 -252h612l-29 -107h-569q18 -127 56.5 -213.5t97.5 -133.5t128 -66t162 -19q111 0 351 25v-115q-187 -33 -357 -33q-91 0 -166.5 15.5t-146.5 54t-123.5 100.5t-90.5 159.5
t-54 225.5h-140v107h129q-10 144 -2 252h-127v108h140q15 129 53 226t90 158t124 99t147 53t167 15q187 0 357 -35v-112q-288 24 -351 24z" />
    <glyph glyph-name="litre" unicode="&#x2113;" horiz-adv-x="942" 
d="M842 80q-139 -115 -277 -115q-135 0 -198.5 77t-63.5 237v264q-21 -19 -74 -67t-82 -75l-61 72q112 101 217 203v547q0 195 60.5 291t207.5 96q132 0 191 -72.5t59 -189.5q0 -172 -92.5 -324.5t-290.5 -351.5v-377q0 -124 34 -171.5t118 -47.5q89 0 188 82zM713 1348
q0 76 -29.5 117.5t-101.5 41.5q-38 0 -64.5 -13t-42 -34.5t-24 -59.5t-11 -77.5t-2.5 -99.5v-410q147 161 211 279t64 256z" />
    <glyph glyph-name="trademark" unicode="&#x2122;" horiz-adv-x="1775" 
d="M1620 715h-113v510q0 56 4 166h-2q-61 -109 -77 -134l-144 -225h-92l-141 223q-22 32 -80 136h-2q4 -110 4 -166v-510h-111v807h135l181 -293q28 -43 59 -103h2q27 53 60 103l180 293h137v-807zM727 1430h-264v-715h-113v715h-264v92h641v-92z" />
    <glyph glyph-name="Omega" unicode="&#x2126;" horiz-adv-x="1357" 
d="M1251 797q0 -203 -86 -350.5t-268 -219.5v-112h336v-115h-463v295q344 105 344 502v121q0 138 -32.5 238.5t-93 158t-136.5 84t-172 26.5t-172 -26.5t-136.5 -84t-93 -158t-32.5 -238.5v-121q0 -397 344 -502v-295h-463v115h336v112q-182 72 -268 219.5t-86 350.5v121
q0 307 152 467.5t419 160.5q268 0 419.5 -160t151.5 -468v-121z" />
    <glyph glyph-name="estimated" unicode="&#x212e;" horiz-adv-x="1323" 
d="M1255 578h-925v-396q145 -129 327 -129q87 0 158 20t125 59t91.5 80.5t78.5 100.5l68 -39q-36 -53 -71.5 -94t-82.5 -79t-99.5 -62t-120.5 -38.5t-147 -14.5q-129 0 -239.5 47.5t-185.5 128.5t-117.5 189.5t-42.5 228.5q0 164 70.5 298t207.5 215t316 81q178 0 314 -82.5
t205.5 -217t69.5 -296.5zM997 645v334q-62 54 -152 90.5t-179 36.5q-206 0 -336 -127v-334h667z" />
    <glyph glyph-name="onethird" unicode="&#x2153;" horiz-adv-x="1972" 
d="M1489 1522l-969 -1522h-137l971 1522h135zM686 629h-559v90l217 4v696l-219 -69v100l250 86h92v-813l219 -4v-90zM1270 807v86q146 25 266 25q178 0 261 -52.5t83 -179.5v-12q0 -70 -31 -126.5t-100 -82.5q131 -42 131 -201v-16q0 -140 -83.5 -203t-260.5 -63
q-73 0 -156 9t-110 17v84q188 -16 256 -16q124 0 177.5 38t53.5 138v16q0 36 -6 60t-23 47t-53 34t-92 11h-276v92h278q44 0 76 9t50 23t29 36t14 42.5t3 47.5v12q0 78 -50.5 109.5t-178.5 31.5q-62 0 -258 -16z" />
    <glyph glyph-name="twothirds" unicode="&#x2154;" horiz-adv-x="2072" 
d="M1569 1522l-971 -1522h-135l971 1522h135zM131 1436v84q117 26 281 26q167 0 247 -50.5t80 -166.5q0 -93 -53.5 -156t-200.5 -135q-110 -54 -159 -92t-67.5 -83t-18.5 -126v-10h487v-98h-610v90q0 156 59.5 233t235.5 164q131 63 167.5 103.5t36.5 107.5q0 71 -50.5 99
t-166.5 28q-97 0 -268 -18zM1333 807v86q146 25 266 25q178 0 261.5 -52.5t83.5 -179.5v-12q0 -70 -31 -126.5t-98 -82.5q129 -43 129 -201v-16q0 -140 -83 -203t-262 -63q-71 0 -154 9t-112 17v84q196 -16 256 -16q125 0 178.5 38t53.5 138v16q0 36 -6 60t-23 47t-53 34
t-92 11h-277v92h279q45 0 77 9t50 23t28.5 36t13.5 42.5t3 47.5v12q0 79 -50 110t-180 31q-54 0 -258 -16z" />
    <glyph glyph-name="oneeighth" unicode="&#x215b;" horiz-adv-x="2007" 
d="M1489 1522l-969 -1522h-137l971 1522h135zM686 629h-559v94h217v696l-219 -69v100l250 86h92v-817h219v-90zM1888 252q0 -69 -19 -119t-49.5 -79t-79.5 -45.5t-96.5 -21.5t-113.5 -5q-64 0 -110.5 5t-94.5 21.5t-78.5 45.5t-49.5 79t-19 119v14q0 149 120 203
q-116 53 -116 199v12q0 57 18.5 99.5t49 68.5t77 42t96.5 22t113 6q61 0 109.5 -6t94.5 -22t76.5 -42t49 -68.5t18.5 -99.5v-12q0 -145 -115 -199q119 -55 119 -203v-14zM1765 254v12q0 78 -33 119t-112 41h-172q-81 0 -114.5 -41t-33.5 -119v-12q0 -107 58 -144.5
t178 -37.5q115 0 172 37.5t57 144.5zM1763 666v12q0 85 -58 117t-175 32q-113 0 -170 -32t-57 -117v-12q0 -152 145 -152h172q143 0 143 152z" />
    <glyph glyph-name="threeeighths" unicode="&#x215c;" horiz-adv-x="2070" 
d="M1534 1522l-969 -1522h-137l969 1522h137zM123 1436v84q34 8 115 17t151 9q178 0 261 -52t83 -179v-12q0 -71 -31 -127t-100 -82q131 -45 131 -201v-16q0 -140 -83.5 -203.5t-260.5 -63.5q-71 0 -151.5 9t-114.5 16v86q188 -16 256 -16q124 0 177.5 38t53.5 136v16
q0 36 -6 60.5t-23 47.5t-53 34.5t-92 11.5h-276v92h278q55 0 91 12.5t52.5 36.5t22.5 49t6 59v11q0 80 -50 111.5t-179 31.5q-62 0 -258 -16zM1888 252q0 -69 -19 -119t-49.5 -79t-79.5 -45.5t-96.5 -21.5t-113.5 -5q-64 0 -110.5 5t-94.5 21.5t-78.5 45.5t-49.5 79t-19 119
v14q0 149 120 203q-116 53 -116 199v12q0 57 18.5 99.5t49 68.5t77 42t96.5 22t113 6q61 0 109.5 -6t94.5 -22t76.5 -42t49 -68.5t18.5 -99.5v-12q0 -145 -115 -199q119 -55 119 -203v-14zM1765 254v12q0 78 -33 119t-112 41h-172q-81 0 -114.5 -41t-33.5 -119v-12
q0 -107 58 -144.5t178 -37.5q115 0 172 37.5t57 144.5zM1763 666v12q0 85 -58 117t-175 32q-113 0 -170 -32t-57 -117v-12q0 -152 145 -152h172q143 0 143 152z" />
    <glyph glyph-name="fiveeighths" unicode="&#x215d;" horiz-adv-x="2080" 
d="M1544 1522l-971 -1522h-137l971 1522h137zM1964 252q0 -69 -19 -119t-49.5 -79t-79.5 -45.5t-96.5 -21.5t-113.5 -5q-64 0 -110.5 5t-95 21.5t-79 45.5t-49.5 79t-19 119v14q0 149 121 203q-117 54 -117 199v12q0 71 27 119t78 73.5t110.5 35.5t139.5 10q61 0 109.5 -6
t94.5 -22t76.5 -42t49 -68.5t18.5 -99.5v-12q0 -145 -115 -199q119 -55 119 -203v-14zM1841 254v12q0 78 -33 119t-112 41h-172q-81 0 -114.5 -41t-33.5 -119v-12q0 -107 58 -144.5t178 -37.5q115 0 172 37.5t57 144.5zM1839 666v12q0 85 -58 117t-175 32q-113 0 -170.5 -32
t-57.5 -117v-12q0 -152 146 -152h172q143 0 143 152zM711 1436h-428l-25 -265h139q184 0 267.5 -58t83.5 -202v-18q0 -148 -87.5 -215.5t-267.5 -67.5q-151 0 -270 29v86q152 -20 256 -20q135 0 189.5 42.5t54.5 143.5v20q0 98 -52.5 133t-187.5 35h-244l41 453h531v-96z
" />
    <glyph glyph-name="seveneighths" unicode="&#x215e;" horiz-adv-x="1910" 
d="M1374 1522l-971 -1522h-135l971 1522h135zM115 1436v96h618v-111l-426 -792h-133l438 807h-497zM1792 252q0 -69 -19 -119t-49.5 -79t-79.5 -45.5t-96.5 -21.5t-113.5 -5q-64 0 -110.5 5t-95 21.5t-79 45.5t-49.5 79t-19 119v14q0 149 121 203q-117 54 -117 199v12
q0 71 27 119t78 73.5t110.5 35.5t139.5 10q61 0 109.5 -6t94.5 -22t76.5 -42t49 -68.5t18.5 -99.5v-12q0 -145 -115 -199q119 -55 119 -203v-14zM1669 254v12q0 78 -33 119t-112 41h-172q-81 0 -114.5 -41t-33.5 -119v-12q0 -107 58 -144.5t178 -37.5q115 0 172 37.5
t57 144.5zM1667 666v12q0 85 -58 117t-175 32q-113 0 -170.5 -32t-57.5 -117v-12q0 -152 146 -152h172q143 0 143 152z" />
    <glyph glyph-name="partialdiff" unicode="&#x2202;" horiz-adv-x="1236" 
d="M1112 942q0 -208 -43 -450q-50 -264 -180.5 -392.5t-351.5 -128.5q-206 0 -308 103t-102 297q0 140 29 231q36 188 161 292.5t332 104.5q122 0 212 -46.5t112 -131.5q8 90 4 185q-3 112 -25.5 195t-71 148.5t-132.5 98.5t-203 33q-136 0 -279 -31v109q127 34 283 34
q292 0 427.5 -167t135.5 -484zM946 614q0 129 -73 199t-224 70q-300 0 -362 -303q-29 -91 -29 -209q0 -145 69.5 -213t221.5 -68q173 0 266.5 102t120.5 295q10 82 10 127z" />
    <glyph glyph-name="Delta" unicode="&#x2206;" horiz-adv-x="1380" 
d="M1305 0h-1229l516 1522h192zM1116 121l-340 1018q-35 105 -84 284h-4q-5 -16 -35 -121t-49 -163l-342 -1018h854z" />
    <glyph glyph-name="product" unicode="&#x220f;" horiz-adv-x="1460" 
d="M1386 1397h-212v-1532h-138v1532h-608v-1532h-137v1532h-213v125h1308v-125z" />
    <glyph glyph-name="summation" unicode="&#x2211;" horiz-adv-x="1204" 
d="M1051 -135h-889v123l487 694l-487 717v123h889v-125h-721l461 -680v-74l-461 -653h721v-125z" />
    <glyph glyph-name="minus" unicode="&#x2212;" horiz-adv-x="1425" 
d="M1198 745h-975v113h975v-113z" />
    <glyph glyph-name="uni2215" unicode="&#x2215;" horiz-adv-x="800" 
d="M950 1522l-968 -1522h-138l971 1522h135z" />
    <glyph glyph-name="uni2219" unicode="&#x2219;" horiz-adv-x="436" 
d="M287 614h-137v283h137v-283z" />
    <glyph glyph-name="radical" unicode="&#x221a;" horiz-adv-x="1615" 
d="M1511 1788l-641 -1940h-170l-340 1014h-243v123h338l331 -1016q98 302 296 909.5t296 909.5h133z" />
    <glyph glyph-name="infinity" unicode="&#x221e;" horiz-adv-x="1550" 
d="M1296 745q0 -469 -288 -469h-13q-138 0 -243 130q-71 -132 -203 -132h-14q-289 0 -289 471v39q0 469 291 469h12q139 0 239 -133q65 133 209 133h13q286 0 286 -471v-37zM1180 745v37q0 44 -1.5 77.5t-6.5 79t-17 78t-30 63t-47 46t-68 15.5h-13q-27 0 -47.5 -9.5
t-36 -23.5t-27.5 -42t-19.5 -53.5t-15 -72t-12 -83t-10.5 -99.5q-19 -175 -36 -242q89 -129 202 -129h13q33 0 59.5 12.5t44.5 32.5t31 50.5t20 60t11 68.5t5 68t1 66zM752 1008q-89 133 -203 133h-12q-39 0 -69 -15.5t-48.5 -45.5t-30.5 -62.5t-17.5 -77t-7.5 -79t-2 -77.5
v-39q0 -37 1 -66t5 -68t11 -68.5t20 -60t31 -50.5t44.5 -32.5t60.5 -12.5h14q34 0 59.5 17t42.5 45.5t30 79.5t21 104.5t17 136.5q13 139 33 238z" />
    <glyph glyph-name="integral" unicode="&#x222b;" horiz-adv-x="1054" 
d="M940 1440q-132 8 -184 8q-103 0 -131.5 -42.5t-28.5 -176.5v-1323q0 -81 -9 -133.5t-37 -100t-85.5 -70t-147.5 -22.5q-92 0 -198 23v94q132 -8 186 -8q101 0 129.5 42.5t28.5 174.5v1323q0 46 2.5 80t9.5 70t19.5 61t33.5 48.5t50 37.5t70.5 22t94.5 8q101 0 197 -22
v-94z" />
    <glyph glyph-name="approxequal" unicode="&#x2248;" horiz-adv-x="1425" 
d="M1174 1161q0 -147 -47.5 -222t-168.5 -75q-67 0 -121 25t-114 76l-109 94q-51 44 -82 63t-65 19q-32 0 -52.5 -11.5t-30.5 -37t-13.5 -55.5t-3.5 -79v-73h-117v73q0 144 50 220.5t167 76.5q59 0 105.5 -24.5t111.5 -81.5l107 -92q34 -30 50.5 -43t42 -25t50.5 -12
q79 0 101 38t22 146v74h117v-74zM1174 639q0 -147 -47.5 -222t-168.5 -75q-120 0 -235 100l-109 97q-37 32 -54 45.5t-42.5 25t-50.5 11.5q-61 0 -80.5 -43.5t-19.5 -141.5v-74h-117v74q0 144 50 220.5t167 76.5q58 0 106.5 -25t110.5 -79l107 -94q47 -43 85 -61.5t82 -18.5
q60 0 79.5 44t19.5 140v74h117v-74z" />
    <glyph glyph-name="notequal" unicode="&#x2260;" horiz-adv-x="1425" 
d="M1163 516h-489l-182 -516h-119l182 516h-289v113h332l123 346h-455v115h496l156 436h116l-153 -436h282v-115h-325l-121 -346h446v-113z" />
    <glyph glyph-name="lessequal" unicode="&#x2264;" horiz-adv-x="1425" 
d="M1204 0h-987v113h987v-113zM1034 305h-182l-571 504l571 504h182l-569 -504z" />
    <glyph glyph-name="greaterequal" unicode="&#x2265;" horiz-adv-x="1425" 
d="M1204 0h-987v113h987v-113zM1141 809l-570 -504h-184l571 504l-571 504h184z" />
    <glyph glyph-name="lozenge" unicode="&#x25ca;" horiz-adv-x="1402" 
d="M1196 737l-502 -610l-491 604l497 615zM1055 737l-355 434l-356 -440l350 -430z" />
    <glyph glyph-name="percent.oldstyle" unicode="&#xfe6a;" horiz-adv-x="1785" 
d="M1663 336q0 -179 -73.5 -269t-213.5 -90q-284 0 -284 359v20q0 359 284 359q140 0 213.5 -89.5t73.5 -269.5v-20zM1546 336v20q0 143 -44 202.5t-126 59.5t-126 -59.5t-44 -202.5v-20q0 -143 44 -201.5t126 -58.5t126 58.5t44 201.5zM1315 1137l-711 -1137h-125l711 1137
h125zM702 780q0 -179 -72.5 -268.5t-211.5 -89.5q-141 0 -214 89.5t-73 268.5v21q0 360 287 360q284 0 284 -360v-21zM590 780v21q0 144 -44.5 203t-127.5 59t-126.5 -59t-43.5 -203v-21q0 -143 44 -201.5t126 -58.5q83 0 127.5 59t44.5 201z" />
    <glyph glyph-name="dollar.oldstyle" horiz-adv-x="989" 
d="M145 12v101q193 -19 340 -19q263 0 263 191q0 76 -44.5 119t-175.5 102l-133 59q-145 65 -209.5 135.5t-64.5 184.5q0 117 82 185t241 81v209h121v-203q167 -9 279 -35v-102q-162 22 -324 22q-130 0 -197 -36t-67 -119q0 -71 43 -115.5t160 -95.5l135 -60
q81 -36 130.5 -65.5t87.5 -68t53.5 -85t15.5 -110.5q0 -129 -80.5 -208.5t-239.5 -94.5v-209h-121v202q-167 6 -295 35z" />
    <glyph glyph-name="dollar.superior" horiz-adv-x="804" 
d="M119 696v95q10 -1 62.5 -6t103 -8t100.5 -3q203 0 203 144q0 56 -33 88t-121 69l-127 55q-107 47 -160 101t-53 149q0 102 68.5 156.5t187.5 65.5v153h111v-151q135 -3 223 -23v-96q-157 18 -264 18q-201 0 -201 -121q0 -50 33.5 -83.5t109.5 -65.5l130 -49
q114 -47 167.5 -105.5t53.5 -154.5q0 -112 -68 -173.5t-184 -74.5v-158h-111v152q-117 3 -231 26z" />
    <glyph glyph-name="zero.oldstyle" horiz-adv-x="1290" 
d="M1159 526q0 -267 -135.5 -410t-380.5 -143t-381.5 143.5t-136.5 409.5v84q0 265 136.5 408t381.5 143t380.5 -143t135.5 -408v-84zM1024 526v84q0 115 -28.5 200t-80.5 135t-119.5 73.5t-152.5 23.5t-152.5 -23.5t-119.5 -73.5t-80.5 -135t-28.5 -200v-84
q0 -224 103 -329t278 -105t278 105t103 329z" />
    <glyph glyph-name="one.oldstyle" horiz-adv-x="999" 
d="M899 0h-790v115l331 6v887l-334 -115v131l367 129h102v-1032l324 -6v-115z" />
    <glyph glyph-name="two.oldstyle" 
d="M154 1010v108q75 20 190.5 31.5t216.5 11.5q274 0 392 -78t118 -243q0 -152 -108 -272t-410 -314l-205 -131h713v-123h-930v123l340 215q273 173 369 276.5t96 225.5q0 110 -90.5 156t-292.5 46q-191 0 -399 -32z" />
    <glyph glyph-name="three.oldstyle" horiz-adv-x="1185" 
d="M1036 18q0 -225 -127 -327.5t-393 -102.5q-190 0 -401 43v105q215 -29 401 -29q206 0 295.5 70.5t89.5 240.5v58q0 47 -4.5 81.5t-21.5 73t-46.5 63t-82 40.5t-125.5 16h-449v115h449q72 0 124.5 16t82 40.5t46.5 63.5t22 74.5t5 83.5v29q0 100 -34.5 157.5t-118.5 85
t-234 27.5q-174 0 -395 -24v106q44 9 169 23t228 14q276 0 399 -90t123 -299v-29q0 -260 -207 -335q205 -75 205 -332v-58z" />
    <glyph glyph-name="four.oldstyle" horiz-adv-x="1304" 
d="M1202 41h-244v-424h-135v424h-739v139l717 961h157v-981h244v-119zM823 160v798l-600 -798h600z" />
    <glyph glyph-name="five.oldstyle" horiz-adv-x="1179" 
d="M1061 25q0 -233 -130 -341t-407 -108q-194 0 -413 43v111q7 -1 56.5 -7.5t79.5 -9.5t80.5 -8t99 -7.5t93.5 -2.5q226 0 315 76.5t89 253.5v53q0 176 -92.5 242.5t-325.5 66.5h-363l64 737h794v-123h-675l-45 -495h231q284 0 416.5 -98.5t132.5 -329.5v-53z" />
    <glyph glyph-name="six.oldstyle" horiz-adv-x="1277" 
d="M1157 453q0 -111 -32 -198t-82 -139t-118.5 -85t-134.5 -45.5t-137 -12.5q-92 0 -164 14t-142.5 54t-116.5 106t-74.5 176.5t-28.5 258.5v393q0 143 27.5 245t90.5 177t171.5 112t265.5 37q111 0 229.5 -14.5t184.5 -28.5v-106q-240 30 -412 30q-107 0 -183 -21
t-121.5 -57t-71.5 -95.5t-35 -123t-9 -153.5v-96q88 24 198.5 38.5t192.5 14.5t149 -9t135 -35.5t114 -70t75 -118.5t29 -175v-73zM1020 453v69q0 75 -19 129.5t-49.5 86.5t-80 51t-100.5 25.5t-120 6.5q-210 0 -387 -47v-203q0 -137 27 -232.5t80 -148.5t121 -75.5
t161 -22.5q166 0 266.5 89.5t100.5 271.5z" />
    <glyph glyph-name="seven.oldstyle" horiz-adv-x="1144" 
d="M1057 997l-672 -1378h-154l697 1399h-826v123h955v-144z" />
    <glyph glyph-name="eight.oldstyle" horiz-adv-x="1316" 
d="M1190 432q0 -84 -14 -151.5t-38 -115t-62 -82.5t-79.5 -56t-98 -33t-110 -16.5t-122.5 -4.5h-9q-68 0 -122 4.5t-110.5 17t-98 33.5t-79.5 56t-62 83t-38 115.5t-14 151.5v15q0 135 46 219t145 125q-187 75 -187 327v21q0 94 26.5 165t71 116t112.5 72.5t142.5 38.5
t167.5 11h9q93 0 167.5 -11t142.5 -38.5t112.5 -72.5t71 -116t26.5 -165v-21q0 -251 -187 -327q191 -80 191 -342v-19zM1053 432v19q0 141 -54 211.5t-190 70.5h-295q-137 0 -191.5 -71t-54.5 -213v-15q0 -106 25 -174.5t78 -105.5t119.5 -50.5t166.5 -13.5h9
q100 0 166.5 13.5t119 50t77 105t24.5 173.5zM1049 1120v21q0 68 -17 117.5t-47.5 82t-79 52t-105.5 27t-134 7.5h-9q-97 0 -164 -12.5t-119 -44t-77 -88.5t-25 -141v-21q0 -61 11 -106.5t37 -83.5t75 -58t119 -20h295q133 0 186.5 70t53.5 198z" />
    <glyph glyph-name="nine.oldstyle" horiz-adv-x="1277" 
d="M1139 160q0 -143 -27.5 -245.5t-91 -178t-172 -112t-266.5 -36.5q-186 0 -412 41v109q248 -31 410 -31q77 0 137.5 11t104.5 30t76 50t51.5 66t31 83.5t16 97t4.5 111.5v98q-88 -25 -197 -39t-196 -14q-58 0 -107 4.5t-101.5 16t-94.5 30.5t-80 50.5t-63.5 73.5
t-40.5 101t-15 131v74q0 111 32 197.5t82 138t118.5 85t134.5 46t137 12.5q65 0 119 -7t109.5 -24.5t99 -47t82 -76.5t64.5 -109.5t40.5 -149.5t14.5 -194v-393zM1001 360v203q0 137 -27 232.5t-80.5 148.5t-122 75.5t-161.5 22.5q-165 0 -265.5 -89t-100.5 -271v-70
q0 -75 18.5 -129.5t49.5 -86.5t80 -51t100 -25.5t120 -6.5q210 0 389 47z" />
    <glyph glyph-name="comma.superior" horiz-adv-x="425" 
d="M322 870l-127 -292h-105l105 292h127z" />
    <glyph glyph-name="period.superior" horiz-adv-x="339" 
d="M229 690h-116v180h116v-180z" />
    <glyph glyph-name="a.superior" horiz-adv-x="774" 
d="M641 618h-111v48q-107 -64 -227 -64q-211 0 -211 199v18q0 53 15 90.5t40 60.5t68 36t89.5 17.5t113.5 4.5h106v51q0 93 -32 121.5t-140 28.5q-77 0 -209 -8v73q145 27 226 27q83 0 136.5 -13.5t83.5 -44.5t41 -74t11 -110v-461zM526 737v215h-106q-123 0 -168 -24.5
t-45 -106.5v-20q0 -62 32 -89.5t95 -27.5q94 0 192 53z" />
    <glyph glyph-name="b.superior" horiz-adv-x="802" 
d="M133 1587h119v-293q89 31 170 31q150 0 219.5 -77.5t69.5 -243.5v-66q0 -177 -77.5 -255.5t-240.5 -78.5q-119 0 -260 14v969zM592 938v66q0 124 -41 174.5t-141 50.5q-87 0 -158 -25v-499q97 -9 143 -9q106 0 151.5 54.5t45.5 187.5z" />
    <glyph glyph-name="cent.superior" horiz-adv-x="753" 
d="M662 694q-86 -17 -183 -20v-156h-106v162q-136 20 -207.5 114.5t-71.5 288.5v115q0 364 279 401v152h106v-147q78 -3 183 -19v-98q-136 12 -207 12q-131 0 -185.5 -68.5t-54.5 -232.5v-115q0 -166 53 -234.5t187 -68.5q99 0 207 11v-97z" />
    <glyph glyph-name="d.superior" horiz-adv-x="802" 
d="M670 618h-113v39q-92 -55 -205 -55q-260 0 -260 313v86q0 172 75.5 245t223.5 73q68 0 160 -12v276h119v-965zM553 739v475q-92 15 -152 15q-100 0 -145 -49t-45 -179v-86q0 -116 40 -168.5t130 -52.5q80 0 172 45z" />
    <glyph glyph-name="e.superior" horiz-adv-x="792" 
d="M700 926h-489v-21q0 -106 46 -160.5t169 -54.5q107 0 246 21v-84q-123 -25 -254 -25q-93 0 -158.5 24t-101 69.5t-51 102.5t-15.5 132v61q0 159 77 244.5t226 85.5q157 0 231 -89t74 -243v-63zM580 1004v18q0 207 -183 207q-184 0 -184 -207v-18h367z" />
    <glyph glyph-name="l.superior" horiz-adv-x="385" 
d="M252 618h-119v965h119v-965z" />
    <glyph glyph-name="m.superior" horiz-adv-x="1179" 
d="M248 1247q104 74 211 74q110 0 159 -76q118 76 226 76q54 0 92.5 -14.5t59.5 -35.5t33 -56.5t15 -66.5t3 -75v-455h-121v453q0 44 -2.5 68t-13 47.5t-33 33t-60.5 9.5q-80 0 -176 -58q8 -44 8 -98v-455h-119v455q0 43 -2.5 66.5t-12.5 47t-31.5 33t-57.5 9.5
q-74 0 -174 -60v-548h-119v679h115v-53z" />
    <glyph glyph-name="o.superior" horiz-adv-x="792" 
d="M700 932q0 -330 -305 -330q-303 0 -303 330v59q0 330 303 330q305 0 305 -330v-59zM582 932v59q0 123 -44 179.5t-143 56.5q-98 0 -141 -56t-43 -180v-59q0 -124 43.5 -181t140.5 -57q99 0 143 57.5t44 180.5z" />
    <glyph glyph-name="r.superior" horiz-adv-x="577" 
d="M252 618h-119v682h113v-53q104 74 243 74v-100q-133 0 -237 -56v-547z" />
    <glyph glyph-name="s.superior" horiz-adv-x="696" 
d="M604 793q0 -85 -64 -138t-206 -53q-63 0 -131.5 8t-100.5 17v80q143 -19 228 -19q86 0 120.5 27t34.5 76q0 47 -26 71t-113 60l-55 22q-109 44 -154 84.5t-45 114.5q0 92 64 135t198 43q62 0 131 -8t99 -17v-77q-143 14 -224 14q-80 0 -114.5 -19t-34.5 -67
q0 -39 27.5 -63t101.5 -52l57 -22q118 -46 162.5 -92t44.5 -125z" />
    <glyph glyph-name="t.superior" horiz-adv-x="628" 
d="M539 618q-72 -16 -131 -16q-98 0 -136.5 41t-38.5 141v430l-145 9v77h145v185h119v-185h189v-86h-189v-428q0 -63 13.5 -80.5t62.5 -17.5q53 0 111 4v-74z" />
    <glyph glyph-name="hyphen.superior" horiz-adv-x="536" 
d="M424 1036h-311v94h311v-94z" />
    <glyph glyph-name="cent.oldstyle" horiz-adv-x="995" 
d="M881 1128v-104q-188 16 -273 16q-179 0 -259.5 -89t-80.5 -296v-176q0 -209 80 -297t260 -88q129 0 273 21v-107q-125 -25 -238 -28v-226h-123v228q-198 22 -292.5 143.5t-94.5 353.5v176q0 455 387 498v225h123v-223q99 -3 238 -27z" />
    <glyph glyph-name="hyphen.inferior" horiz-adv-x="536" 
d="M424 10h-311v94h311v-94z" />
    <glyph glyph-name="cent.inferior" horiz-adv-x="753" 
d="M659 -422q-86 -17 -182 -20v-156h-106v162q-136 20 -206.5 114.5t-70.5 288.5v115q0 363 277 401v152h106v-148q85 -3 182 -18v-98q-136 12 -204 12q-132 0 -186 -68t-54 -233v-115q0 -166 52.5 -234.5t187.5 -68.5q106 0 204 10v-96z" />
    <glyph glyph-name="dollar.inferior" horiz-adv-x="804" 
d="M117 -418v94q6 0 61.5 -5t105 -8t99.5 -3q203 0 203 143q0 56 -33.5 88.5t-120.5 69.5l-127 55q-107 47 -160 101t-53 149q0 197 256 221v154h111v-152q140 -3 223 -22v-96q-158 18 -264 18q-201 0 -201 -121q0 -52 34 -86.5t109 -62.5l129 -49q114 -43 168 -102.5
t54 -157.5q0 -112 -68 -173.5t-184 -74.5v-158h-111v152q-117 3 -231 26z" />
    <glyph glyph-name="period.inferior" horiz-adv-x="339" 
d="M229 -336h-116v180h116v-180z" />
    <glyph glyph-name="comma.inferior" horiz-adv-x="425" 
d="M322 -156l-127 -293h-105l105 293h127z" />
    <glyph glyph-name="commaaccent" horiz-adv-x="1017" 
d="M602 -139l-194 -289h-127l163 289h158z" />
    <glyph glyph-name="Dotaccent" horiz-adv-x="882" 
d="M518 1690h-133v247h133v-247z" />
    <glyph glyph-name="Breve" horiz-adv-x="911" 
d="M788 1948q-6 -71 -25 -125.5t-56 -100.5t-100 -70t-150 -24q-88 0 -151.5 24.5t-100.5 69.5t-55.5 100t-24.5 126h102q11 -116 63.5 -173t166.5 -57q112 0 164 57t65 173h102z" />
    <glyph glyph-name="Ogonek" horiz-adv-x="911" 
d="M705 -424q-62 -20 -173 -20q-125 0 -187 50.5t-62 141.5q0 42 19.5 79t64 73t87 62.5t115.5 66.5l144 -11q-186 -98 -250 -152t-64 -112q0 -54 33 -82t111 -28q21 0 162 12v-80z" />
    <glyph glyph-name="Cedilla" horiz-adv-x="890" 
d="M569 -139l-274 -289h-139l247 289h166z" />
    <glyph glyph-name="Ring" horiz-adv-x="913" 
d="M694 1741q0 -110 -64.5 -164.5t-170.5 -54.5t-172 54.5t-66 164.5q0 111 65.5 166t172.5 55q106 0 170.5 -54.5t64.5 -166.5zM600 1741q0 73 -39.5 105t-101.5 32q-142 0 -142 -137q0 -72 39.5 -103.5t102.5 -31.5q61 0 101 31.5t40 103.5z" />
    <glyph glyph-name="Tilde" horiz-adv-x="917" 
d="M848 1892q0 -125 -41 -189.5t-141 -64.5q-54 0 -99 21.5t-98 69.5l-84 77q-41 39 -67 54.5t-60 15.5q-53 0 -70.5 -39t-17.5 -119v-69h-100v69q0 123 44 188.5t144 65.5q55 0 95 -19t93 -67l86 -80q40 -37 68.5 -53t63.5 -16q53 0 69.5 37.5t16.5 117.5v68h98v-68z" />
    <glyph glyph-name="Circumflex" horiz-adv-x="927" 
d="M834 1628h-140l-231 240l-230 -240h-139l285 316h170z" />
    <glyph glyph-name="Acute" horiz-adv-x="907" 
d="M758 1944l-301 -316h-138l277 316h162z" />
    <glyph glyph-name="Caron" horiz-adv-x="927" 
d="M96 1944h137l230 -240l233 240h138l-283 -316h-172z" />
    <glyph glyph-name="Dieresis" horiz-adv-x="903" 
d="M748 1673h-121v244h121v-244zM279 1917v-244h-123v244h123z" />
    <glyph glyph-name="Grave" horiz-adv-x="882" 
d="M555 1632h-135l-303 316h164z" />
    <glyph glyph-name="Hungarumlaut" horiz-adv-x="919" 
d="M1047 1944l-302 -316h-137l277 316h162zM449 1944h163l-301 -316h-139z" />
    <glyph glyph-name="Macron" horiz-adv-x="923" 
d="M813 1741h-702v106h702v-106z" />
    <glyph glyph-name="commaaccent.cap" horiz-adv-x="1017" 
d="M604 -139l-194 -289h-125l164 289h155z" />
    <glyph glyph-name="h.superior" horiz-adv-x="843" 
d="M133 1583h119v-321q116 59 229 59q124 0 177 -65t53 -207v-431h-119v429q0 104 -31 142t-108 38q-97 0 -201 -51v-558h-119v965z" />
    <glyph glyph-name="zero.slash" horiz-adv-x="1312" 
d="M1178 641q0 -339 -134.5 -503.5t-384.5 -164.5q-238 0 -366 148l-82 -121h-135l147 219q-82 158 -82 422v238q0 339 134 503t384 164q235 0 363 -143l80 119h135l-145 -215q86 -163 86 -428v-238zM1040 641v238q0 178 -41 290l-630 -936q96 -143 290 -143q381 0 381 551z
M279 641q0 -176 38 -285l627 932q-95 139 -285 139q-86 0 -152.5 -28t-119 -89.5t-80.5 -170t-28 -260.5v-238z" />
    <glyph glyph-name="perthousand.oldstyle" horiz-adv-x="2482" 
d="M2357 336q0 -179 -73 -269t-211 -90q-287 0 -287 359v20q0 359 287 359q139 0 211.5 -89.5t72.5 -269.5v-20zM2243 336v20q0 142 -44.5 202t-125.5 60q-84 0 -128 -59.5t-44 -202.5v-20q0 -143 44 -201.5t128 -58.5q81 0 125.5 59t44.5 201zM1663 336q0 -179 -73.5 -269
t-213.5 -90q-284 0 -284 359v20q0 359 284 359q140 0 213.5 -89.5t73.5 -269.5v-20zM1546 336v20q0 143 -44 202.5t-126 59.5t-126 -59.5t-44 -202.5v-20q0 -143 44 -201.5t126 -58.5t126 58.5t44 201.5zM1315 1137l-711 -1137h-125l711 1137h125zM702 780
q0 -179 -72.5 -268.5t-211.5 -89.5q-141 0 -214 89.5t-73 268.5v21q0 360 287 360q284 0 284 -360v-21zM590 780v21q0 144 -44.5 203t-127.5 59t-126.5 -59t-43.5 -203v-21q0 -143 44 -201.5t126 -58.5q83 0 127.5 59t44.5 201z" />
    <glyph glyph-name="zero.taboldstyle" horiz-adv-x="1312" 
d="M1174 526q0 -266 -137 -409.5t-382 -143.5t-380.5 143t-135.5 410v84q0 265 135.5 408t380.5 143t382 -143t137 -408v-84zM1036 526v84q0 225 -102 328.5t-279 103.5q-85 0 -152 -23.5t-119 -73.5t-80 -135t-28 -200v-84q0 -224 102 -329t277 -105q176 0 278.5 105
t102.5 329z" />
    <glyph glyph-name="one.taboldstyle" horiz-adv-x="1312" 
d="M1053 0h-791v115l330 6v887l-332 -115v131l365 129h104v-1032l324 -6v-115z" />
    <glyph glyph-name="two.taboldstyle" horiz-adv-x="1312" 
d="M207 1010v108q75 20 191.5 31.5t217.5 11.5q273 0 391.5 -78t118.5 -243q0 -79 -24.5 -142.5t-88.5 -133.5t-158 -140t-249 -170l-203 -131h713v-123h-930v123l338 215q273 173 369 276.5t96 225.5q0 111 -89.5 156.5t-291.5 45.5q-189 0 -401 -32z" />
    <glyph glyph-name="three.taboldstyle" horiz-adv-x="1312" 
d="M1116 18q0 -224 -127.5 -327t-392.5 -103q-190 0 -401 43v105q215 -29 399 -29q206 0 295.5 70.5t89.5 240.5v58q0 47 -4.5 81.5t-21.5 73t-46 63t-81.5 40.5t-125.5 16h-450v115h450q72 0 124.5 16t82 40.5t46 63.5t21.5 74.5t5 83.5v29q0 101 -34 158t-117.5 84.5
t-233.5 27.5q-174 0 -395 -24v106q44 9 169 23t228 14q276 0 398 -90t122 -299v-29q0 -261 -205 -335q205 -75 205 -332v-58z" />
    <glyph glyph-name="four.taboldstyle" horiz-adv-x="1312" 
d="M1214 41h-243v-424h-137v424h-738v139l717 961h158v-981h243v-119zM834 160v798l-598 -798h598z" />
    <glyph glyph-name="five.taboldstyle" horiz-adv-x="1312" 
d="M1130 41q0 -233 -128.5 -340t-407.5 -107q-190 0 -414 44v110q245 -35 412 -35q153 0 241.5 35t125 105t36.5 188v55q0 176 -93.5 243t-326.5 67h-362l66 735h792v-123h-676l-45 -494h232q284 0 416 -98.5t132 -329.5v-55z" />
    <glyph glyph-name="six.taboldstyle" horiz-adv-x="1312" 
d="M1171 453q0 -111 -32 -198t-81.5 -139t-118 -85t-134.5 -45.5t-137 -12.5q-92 0 -164.5 14t-142.5 54t-116.5 106t-75 176.5t-28.5 258.5v393q0 143 27.5 245t90.5 177t171.5 112t265.5 37q111 0 229.5 -14.5t184.5 -28.5v-106q-240 30 -412 30q-107 0 -182.5 -21
t-121.5 -57t-72 -95.5t-34.5 -123t-8.5 -153.5v-96q88 24 198.5 38.5t192.5 14.5t148.5 -9t135 -35.5t114 -70t74.5 -118.5t29 -175v-73zM1034 453v69q0 75 -18.5 129.5t-49.5 86.5t-80 51t-100 25.5t-120 6.5q-210 0 -387 -47v-203q0 -137 27 -232.5t80 -148.5t121 -75.5
t161 -22.5q166 0 266 89.5t100 271.5z" />
    <glyph glyph-name="seven.taboldstyle" horiz-adv-x="1312" 
d="M1135 997l-674 -1378h-152l695 1399h-824v123h955v-144z" />
    <glyph glyph-name="eight.taboldstyle" horiz-adv-x="1312" 
d="M1184 432q0 -84 -14 -151.5t-38 -115t-62 -82.5t-80 -56t-98.5 -33t-110 -16.5t-122.5 -4.5h-10q-68 0 -122 4.5t-110.5 17t-98 33.5t-79.5 56t-62 83t-38 115.5t-14 151.5v15q0 135 46.5 219t145.5 125q-186 75 -186 327v21q0 94 26.5 165t71 116t112 72.5t141.5 38.5
t167 11h10q93 0 167 -11t141.5 -38.5t112.5 -72.5t71.5 -116t26.5 -165v-21q0 -252 -187 -327q99 -41 146 -125t47 -217v-19zM1047 432v19q0 141 -54 211.5t-192 70.5h-293q-137 0 -191.5 -71t-54.5 -213v-15q0 -85 17 -146t47.5 -99t80.5 -60.5t106.5 -30.5t135.5 -8h10
q99 0 165.5 13.5t119.5 50t78 105t25 173.5zM1042 1120v21q0 84 -25 141t-76.5 88.5t-118.5 44t-163 12.5h-10q-96 0 -163 -12.5t-118.5 -44t-76.5 -88.5t-25 -141v-21q0 -61 11 -106.5t37 -83.5t75 -58t119 -20h293q135 0 188 70t53 198z" />
    <glyph glyph-name="nine.taboldstyle" horiz-adv-x="1312" 
d="M1171 160q0 -143 -27.5 -245.5t-90.5 -178t-171.5 -112t-265.5 -36.5q-179 0 -413 41v109q248 -31 409 -31q90 0 158 13.5t114 42.5t76 65.5t46 90t22 108.5t6 129v98q-86 -25 -196 -39t-197 -14q-82 0 -148.5 9t-134.5 35t-113.5 70t-74.5 118.5t-29 174.5v74
q0 111 32 197.5t82 138t118.5 85t134.5 46t137 12.5q64 0 118 -7t109 -24.5t98.5 -47t82 -76.5t64 -109.5t40 -149.5t14.5 -194v-393zM1034 360v203q0 137 -27 232.5t-80 148.5t-121 75.5t-161 22.5q-108 0 -189 -36t-130.5 -118.5t-49.5 -205.5v-70q0 -75 19 -129.5
t50 -86.5t80.5 -51t101 -25.5t120.5 -6.5q208 0 387 47z" />
    <glyph glyph-name="colonmonetary.taboldstyle" horiz-adv-x="1122" 
d="M940 1128v-112q-127 20 -268 20q-178 0 -259 -88t-81 -295v-172q0 -209 79.5 -296t260.5 -87q116 0 268 19v-109q-56 -13 -131 -20v-215h-111v204h-41q-33 0 -112 9v-213h-111v247q-237 98 -237 461v172q0 359 237 461v244h111v-211q49 12 117 12h36v199h111v-209
q32 -3 131 -21z" />
    <glyph glyph-name="Euro.taboldstyle" horiz-adv-x="1148" 
d="M711 1038q-154 0 -230.5 -61.5t-95.5 -226.5h520l-28 -99h-496q-3 -91 0 -176h453l-27 -98h-422q17 -160 95 -223.5t235 -63.5q144 0 272 16v-106q-143 -27 -278 -27q-215 0 -324 89.5t-133 314.5h-107v98h103q-3 85 0 176h-103v99h107q11 118 45 198t93 126t134.5 65.5
t180.5 19.5q129 0 282 -29v-110q-176 18 -276 18z" />
    <glyph glyph-name="florin.taboldstyle" horiz-adv-x="1230" 
d="M1061 1180l-10 -99q-106 9 -140 9q-84 0 -122 -35.5t-52 -145.5l-32 -245h305l-15 -105h-305l-59 -459q-21 -160 -86 -223t-201 -63q-82 0 -168 16l14 100q110 -8 144 -8q84 0 117 39.5t51 147.5l57 450h-262l14 105h264l33 256q21 156 89.5 216t201.5 60q80 0 162 -16z
" />
    <glyph glyph-name="numbersign.taboldstyle" horiz-adv-x="1241" 
d="M1065 322h-217l-33 -322h-117l35 322h-287l-32 -322h-115l33 322h-146v104h158l35 330h-193v104h205l37 334h113l-35 -334h285l36 334h115l-37 -334h160v-104h-172l-35 -330h207v-104zM778 756h-284l-37 -330h288z" />
    <glyph glyph-name="sterling.taboldstyle" horiz-adv-x="1148" 
d="M971 1130v-112q-167 18 -275 18q-152 0 -205 -57.5t-53 -222.5v-117h406v-113h-406v-202q0 -69 -13.5 -116t-47.5 -89h594v-119h-746v102q47 50 64.5 101t17.5 121v202h-131v113h131v117q0 216 82 308.5t291 92.5q139 0 291 -27z" />
    <glyph glyph-name="yen.taboldstyle" horiz-adv-x="1165" 
d="M647 0h-131v371h-401v100h393l-94 172h-299v98h247l-204 394h147l203 -396q43 -82 72 -155h4q46 106 73 157l203 394h144l-205 -394h254v-98h-303l-95 -172h398v-100h-406v-371z" />
    <glyph glyph-name="dollar.taboldstyle" horiz-adv-x="1134" 
d="M209 14v103q207 -23 346 -23q129 0 194.5 48.5t65.5 138.5q0 76 -45.5 122.5t-173.5 100.5l-135 59q-144 60 -209.5 131.5t-65.5 186.5q0 245 328 272v207h121v-203q161 -9 278 -35v-104q-1 0 -52 6t-81.5 8.5t-86.5 6t-105 3.5q-133 0 -201 -36t-68 -123
q0 -72 44.5 -116.5t160.5 -92.5l138 -60q157 -64 222.5 -135t65.5 -196t-81 -204.5t-240 -94.5v-207h-121v200q-186 6 -299 37z" />
    <glyph glyph-name="cent.taboldstyle" horiz-adv-x="1124" 
d="M938 1128v-104q-174 16 -272 16q-179 0 -259.5 -89t-80.5 -296v-176q0 -209 80 -297t260 -88q128 0 272 21v-107q-122 -25 -238 -28v-226h-120v228q-198 22 -292.5 143.5t-94.5 353.5v176q0 455 387 498v225h122v-223q101 -3 236 -27z" />
    <glyph glyph-name="zero.denominator" horiz-adv-x="915" 
d="M803 391q0 -206 -90 -307.5t-256 -101.5q-165 0 -254.5 102t-89.5 307v119q0 205 89.5 306.5t254.5 101.5t255.5 -101.5t90.5 -306.5v-119zM680 389v121q0 88 -16.5 149.5t-48 95t-69.5 48t-89 14.5q-104 0 -162.5 -68.5t-58.5 -238.5v-121q0 -168 58.5 -236.5
t162.5 -68.5q50 0 88.5 14.5t70 47.5t48 94.5t16.5 148.5z" />
    <glyph glyph-name="one.denominator" horiz-adv-x="776" 
d="M668 0h-557v90l215 4v697l-217 -70v100l249 86h91v-813l219 -4v-90z" />
    <glyph glyph-name="two.denominator" horiz-adv-x="862" 
d="M133 807v84q121 27 281 27q167 0 247 -51t80 -167q0 -92 -53.5 -155t-200.5 -135q-110 -54 -159 -92t-67.5 -83t-18.5 -126v-11h487v-98h-610v90q0 156 59.5 233t235.5 164q131 63 167.5 103.5t36.5 107.5q0 71 -50.5 99t-166.5 28q-97 0 -268 -18z" />
    <glyph glyph-name="three.denominator" horiz-adv-x="851" 
d="M123 807v86q146 25 266 25q178 0 261 -52.5t83 -179.5v-12q0 -70 -31 -126.5t-100 -82.5q131 -42 131 -201v-16q0 -140 -83.5 -203t-260.5 -63q-73 0 -156 9t-110 17v84q188 -16 256 -16q124 0 177.5 38t53.5 138v16q0 36 -6 60t-23 47t-53 34t-92 11h-276v92h278
q44 0 76 9t50 23t29 36t14 42.5t3 47.5v12q0 78 -50.5 109.5t-178.5 31.5q-62 0 -258 -16z" />
    <glyph glyph-name="four.denominator" horiz-adv-x="915" 
d="M674 0h-123v240h-461v100l465 563h119v-571h147v-92h-147v-240zM555 332v430l-348 -430h348z" />
    <glyph glyph-name="five.denominator" horiz-adv-x="864" 
d="M709 807h-428l-27 -264h141q184 0 267 -58t83 -202v-19q0 -148 -88 -215t-268 -67q-150 0 -270 28v86q152 -20 258 -20q135 0 189.5 42.5t54.5 143.5v21q0 98 -53 133t-189 35h-244l43 452h531v-96z" />
    <glyph glyph-name="six.denominator" horiz-adv-x="907" 
d="M750 891v-88q-149 18 -269 18q-77 0 -126.5 -16t-75.5 -50.5t-35.5 -76t-10.5 -105.5v-45q122 29 232 29q56 0 100 -5.5t88.5 -21.5t73.5 -42t47.5 -71t18.5 -106v-43q0 -79 -28.5 -137t-77.5 -89.5t-105 -45.5t-121 -14q-82 0 -142.5 17t-108.5 57.5t-72.5 114
t-24.5 179.5v213q0 180 81 267.5t279 87.5q139 0 277 -27zM670 268v41q0 96 -54 129t-159 33q-117 0 -224 -25v-108q0 -78 16.5 -131t48.5 -81.5t71 -40t92 -11.5q95 0 152 47.5t57 146.5z" />
    <glyph glyph-name="seven.denominator" horiz-adv-x="843" 
d="M117 807v96h620v-110l-426 -793h-135l440 807h-499z" />
    <glyph glyph-name="eight.denominator" horiz-adv-x="931" 
d="M821 252q0 -69 -19 -119t-49.5 -79t-79.5 -45.5t-96.5 -21.5t-113.5 -5q-64 0 -110.5 5t-94.5 21.5t-78.5 45.5t-49.5 79t-19 119v14q0 149 120 203q-116 53 -116 199v12q0 57 18.5 99.5t49 68.5t77 42t96.5 22t113 6q61 0 109.5 -6t94.5 -22t76.5 -42t49 -68.5
t18.5 -99.5v-12q0 -145 -115 -199q119 -55 119 -203v-14zM698 254v12q0 78 -33 119t-112 41h-172q-81 0 -114.5 -41t-33.5 -119v-12q0 -107 58 -144.5t178 -37.5q115 0 172 37.5t57 144.5zM696 666v12q0 85 -58 117t-175 32q-113 0 -170 -32t-57 -117v-12q0 -152 145 -152
h172q143 0 143 152z" />
    <glyph glyph-name="nine.denominator" horiz-adv-x="907" 
d="M156 8v88q153 -18 268 -18q77 0 127 16.5t76 50.5t35.5 76t9.5 105v47q-119 -29 -232 -29q-70 0 -123 9.5t-102 34.5t-75.5 76t-26.5 126v43q0 64 19.5 114t51.5 82t76.5 52.5t90.5 28.5t98 8q81 0 140.5 -17t107 -57t72 -113.5t24.5 -179.5v-213q0 -179 -82 -267.5
t-279 -88.5q-117 0 -276 26zM672 455v108q0 150 -58 207t-168 57q-95 0 -152.5 -47.5t-57.5 -146.5v-41q0 -96 54 -129t159 -33q118 0 223 25z" />
    <glyph glyph-name="comma.denominator" horiz-adv-x="425" 
d="M322 180l-127 -293h-105l105 293h127z" />
    <glyph glyph-name="period.denominator" horiz-adv-x="339" 
d="M229 0h-116v180h116v-180z" />
    <glyph glyph-name="cent.denominator" horiz-adv-x="753" 
d="M455 813q-132 0 -186 -68t-54 -233v-115q0 -166 52.5 -234.5t187.5 -68.5q106 0 204 10v-96q-86 -17 -182 -20v-156h-106v162q-136 20 -206.5 114.5t-70.5 288.5v115q0 363 277 401v152h106v-147q77 -3 182 -19v-98q-136 12 -204 12z" />
    <glyph glyph-name="dollar.denominator" horiz-adv-x="804" 
d="M117 10v96q165 -18 266 -18q203 0 203 143q0 56 -33.5 88.5t-120.5 71.5l-127 55q-107 45 -160 99t-53 149q0 104 68.5 157.5t187.5 63.5v154h111v-149q140 -6 223 -25v-96q-157 18 -264 18q-201 0 -201 -119q0 -52 33.5 -85t109.5 -64l129 -51q114 -45 168 -104t54 -154
q0 -112 -68 -174.5t-184 -75.5v-156h-111v152q-128 3 -231 24z" />
    <glyph glyph-name="hyphen.denominator" horiz-adv-x="536" 
d="M424 346h-311v94h311v-94z" />
    <glyph glyph-name="parenleft.denominator" horiz-adv-x="512" 
d="M418 -160h-119q-72 86 -125 224.5t-53 310.5v8q0 172 54 311t126 228h121q-176 -236 -176 -539v-8q0 -299 172 -535z" />
    <glyph glyph-name="parenright.denominator" horiz-adv-x="512" 
d="M389 375q0 -171 -53.5 -309t-124.5 -226h-121q174 234 174 535v8q0 303 -176 539h121q72 -89 126 -228t54 -311v-8z" />
    <glyph glyph-name="zero.numerator" horiz-adv-x="923" 
d="M811 1020q0 -206 -90.5 -308t-255.5 -102t-254.5 102.5t-89.5 307.5v119q0 205 89.5 306t254.5 101t255.5 -101t90.5 -306v-119zM688 1018v121q0 88 -16.5 149.5t-48 95t-69.5 48t-89 14.5q-104 0 -162.5 -68.5t-58.5 -238.5v-121q0 -168 58.5 -236.5t162.5 -68.5
q50 0 88.5 14.5t70 47.5t48 94.5t16.5 148.5z" />
    <glyph glyph-name="one.numerator" horiz-adv-x="792" 
d="M684 629h-559v90l217 4v696l-219 -69v100l250 86h92v-813l219 -4v-90z" />
    <glyph glyph-name="two.numerator" horiz-adv-x="862" 
d="M135 1436v84q140 26 281 26q166 0 246.5 -51t80.5 -166q0 -94 -53.5 -156.5t-200.5 -134.5q-159 -78 -203 -132t-44 -169v-12h489v-96h-610v90q0 155 60 232.5t235 162.5q69 34 109 58.5t61.5 49.5t28 47.5t6.5 57.5q0 69 -51.5 97t-166.5 28q-116 0 -268 -16z" />
    <glyph glyph-name="three.numerator" horiz-adv-x="854" 
d="M391 610q-137 0 -266 25v86q196 -16 256 -16q125 0 178 37.5t53 136.5v16q0 36 -6 60.5t-23 47.5t-53 34.5t-92 11.5h-276v92h278q55 0 91.5 12.5t53 37t22 48.5t5.5 59v11q0 80 -49.5 111.5t-179.5 31.5q-54 0 -258 -16v84q34 8 115 17t151 9q178 0 261 -52t83 -179v-12
q0 -159 -129 -209q129 -45 129 -201v-16q0 -140 -83 -203.5t-261 -63.5z" />
    <glyph glyph-name="four.numerator" horiz-adv-x="919" 
d="M674 629h-123v239h-461v101l465 563h119v-571h147v-93h-147v-239zM555 961v430l-348 -430h348z" />
    <glyph glyph-name="five.numerator" horiz-adv-x="866" 
d="M711 1436h-428l-25 -265h139q184 0 267.5 -58t83.5 -202v-18q0 -148 -87.5 -215.5t-267.5 -67.5q-151 0 -270 29v86q152 -20 256 -20q135 0 189.5 42.5t54.5 143.5v20q0 98 -52.5 133t-187.5 35h-244l41 453h531v-96z" />
    <glyph glyph-name="six.numerator" horiz-adv-x="915" 
d="M750 1520v-88q-148 18 -269 18q-77 0 -126.5 -16t-75.5 -50.5t-35.5 -76t-10.5 -105.5v-45q122 29 232 29q56 0 100 -5.5t88.5 -21.5t73.5 -42t47.5 -71t18.5 -106v-43q0 -79 -28.5 -137.5t-77.5 -89.5t-105 -45.5t-121 -14.5q-82 0 -142.5 17t-108.5 57.5t-72.5 114.5
t-24.5 180v213q0 180 81 267t279 87q144 0 277 -26zM670 897v41q0 96 -54 129t-159 33q-117 0 -224 -25v-108q0 -78 16.5 -131t48.5 -81.5t71 -40.5t92 -12q95 0 152 48t57 147z" />
    <glyph glyph-name="seven.numerator" horiz-adv-x="847" 
d="M121 1436v96h620v-111l-426 -792h-135l441 807h-500z" />
    <glyph glyph-name="eight.numerator" horiz-adv-x="946" 
d="M821 879q0 -69 -19 -119t-49.5 -79t-79 -46t-96.5 -22t-114 -5q-63 0 -110 5t-95 22t-78.5 45.5t-49.5 79t-19 119.5v14q0 149 120 203q-116 53 -116 198v13q0 57 18.5 99.5t49 68.5t77 41.5t96.5 21.5t113 6q61 0 109.5 -6t94.5 -21.5t76.5 -41.5t49 -68.5t18.5 -99.5
v-13q0 -144 -115 -198q119 -55 119 -203v-14zM698 881v12q0 78 -33 119t-112 41h-172q-81 0 -114.5 -41t-33.5 -119v-12q0 -107 58 -145t178 -38q115 0 172 38t57 145zM696 1292v13q0 85 -58 117t-175 32q-113 0 -170 -32t-57 -117v-13q0 -151 145 -151h172q143 0 143 151z
" />
    <glyph glyph-name="nine.numerator" horiz-adv-x="915" 
d="M156 637v88q153 -18 268 -18q77 0 127 16t76 50.5t35.5 76.5t9.5 104v47q-115 -28 -232 -28q-70 0 -123 9.5t-102 34.5t-75.5 76t-26.5 126v43q0 64 19.5 114t51.5 81.5t76.5 52t90.5 28.5t98 8q81 0 140.5 -17t107 -56.5t72 -113t24.5 -179.5v-213q0 -179 -82 -268
t-279 -89q-111 0 -276 27zM672 1083v109q0 150 -58 207t-168 57q-95 0 -152.5 -47.5t-57.5 -146.5v-41q0 -96 54 -129t159 -33q122 0 223 24z" />
    <glyph glyph-name="comma.numerator" horiz-adv-x="425" 
d="M322 805l-127 -293h-105l105 293h127z" />
    <glyph glyph-name="period.numerator" horiz-adv-x="339" 
d="M229 623h-116v182h116v-182z" />
    <glyph glyph-name="cent.numerator" horiz-adv-x="753" 
d="M659 631q-96 -18 -184 -21v-155h-104v161q-137 20 -208 114.5t-71 289.5v115q0 363 279 401v152h104v-148q83 -3 184 -18v-99q-147 13 -206 13q-131 0 -185.5 -68.5t-54.5 -232.5v-115q0 -166 53 -234.5t187 -68.5q108 0 206 10v-96z" />
    <glyph glyph-name="dollar.numerator" horiz-adv-x="804" 
d="M115 639v94q6 0 61.5 -5t105 -8t99.5 -3q203 0 203 143q0 56 -33 87.5t-121 70.5l-127 55q-107 47 -160 101t-53 149q0 197 256 221v154h111v-152q140 -3 223 -22v-97q-166 19 -264 19q-201 0 -201 -121q0 -52 34 -86.5t109 -62.5l129 -50q114 -43 168 -102.5t54 -157.5
q0 -112 -68 -173.5t-184 -74.5v-157h-111v151q-111 3 -231 27z" />
    <glyph glyph-name="hyphen.numerator" horiz-adv-x="536" 
d="M424 971h-311v94h311v-94z" />
    <glyph glyph-name="parenleft.numerator" horiz-adv-x="512" 
d="M420 479h-121q-71 88 -124.5 227t-53.5 316q0 172 54 311t126 228h121q-176 -245 -176 -539q0 -304 174 -543z" />
    <glyph glyph-name="parenright.numerator" horiz-adv-x="512" 
d="M389 1012q0 -171 -53.5 -309t-124.5 -224h-119q172 236 172 533v10q0 299 -176 539h121q72 -89 126 -228t54 -311v-10z" />
    <glyph glyph-name="parenleft.cap" horiz-adv-x="569" 
d="M479 0h-121q-96 127 -165.5 332.5t-69.5 433.5v10q0 226 69 428t166 334h121q-231 -332 -231 -762v-10q0 -223 61.5 -418t169.5 -348z" />
    <glyph glyph-name="parenright.cap" horiz-adv-x="569" 
d="M465 766q0 -229 -69.5 -434.5t-166.5 -331.5h-118q229 331 229 766v10q0 428 -229 762h118q98 -131 167 -333t69 -429v-10z" />
    <glyph glyph-name="bracketleft.cap" horiz-adv-x="677" 
d="M559 0h-366v1522h366v-109h-242v-1307h242v-106z" />
    <glyph glyph-name="bracketright.cap" horiz-adv-x="677" 
d="M500 0h-365v106h242v1307h-242v109h365v-1522z" />
    <glyph glyph-name="braceleft.cap" horiz-adv-x="724" 
d="M618 0h-88q-75 0 -128.5 12.5t-85.5 33.5t-50 56t-24 72t-6 90v199q0 100 -25 148.5t-102 103.5v92q77 55 102 103.5t25 148.5v196q0 54 6 92t24 73.5t50 56t85.5 33t128.5 12.5h88v-111h-88q-58 0 -91.5 -7.5t-51 -28.5t-22.5 -47t-5 -73v-196q0 -111 -30.5 -177.5
t-106.5 -121.5q77 -56 108 -121.5t31 -175.5v-199q0 -47 4.5 -72.5t21.5 -46.5t50.5 -28.5t91.5 -7.5h88v-109z" />
    <glyph glyph-name="braceright.cap" horiz-adv-x="724" 
d="M608 715q-76 -55 -100.5 -103.5t-24.5 -148.5v-199q0 -53 -6 -90.5t-24.5 -72t-51 -55.5t-86.5 -33.5t-129 -12.5h-86v109h86q58 0 91.5 7.5t50.5 28.5t21.5 46.5t4.5 72.5v199q0 109 32 175t108 122q-77 55 -107.5 122t-30.5 177v196q0 47 -5 73t-22.5 47t-51 28.5
t-91.5 7.5h-86v111h86q75 0 129 -12.5t86.5 -33.5t51 -56t24.5 -73t6 -92v-196q0 -100 24.5 -148.5t100.5 -103.5v-92z" />
    <glyph glyph-name="exclamdown.cap" horiz-adv-x="473" 
d="M168 1522h137v-260h-137v260zM297 1130l12 -1175h-145l14 1175h119z" />
    <glyph glyph-name="questiondown.cap" horiz-adv-x="927" 
d="M547 -68q-201 0 -307.5 73t-106.5 243v12q0 107 44.5 192.5t166.5 204.5q72 72 112.5 119t62 92.5t27 82t5.5 96.5v79h131v-79q0 -92 -13 -150.5t-60 -131t-142 -163.5q-119 -113 -158 -182t-39 -160v-12q0 -113 71 -155t216 -42q84 0 311 25v-103q-164 -41 -321 -41z
M682 1255h-135v267h135v-267z" />
    <glyph glyph-name="guillemotleft.cap" horiz-adv-x="1255" 
d="M440 381l-325 424l325 422h160l-319 -422l319 -424h-160zM651 805l330 422h160l-324 -422l324 -424h-160z" />
    <glyph glyph-name="guillemotright.cap" horiz-adv-x="1255" 
d="M1141 805l-326 -424h-160l320 424l-320 422h160zM274 1227l330 -422l-330 -424h-159l323 424l-323 422h159z" />
    <glyph glyph-name="guilsinglleft.cap" horiz-adv-x="716" 
d="M602 381h-160l-327 424l327 422h160l-321 -422z" />
    <glyph glyph-name="guilsinglright.cap" horiz-adv-x="716" 
d="M604 805l-330 -424h-159l323 424l-323 422h159z" />
    <glyph glyph-name="hyphen.cap" horiz-adv-x="747" 
d="M604 752h-463v114h463v-114z" />
    <glyph glyph-name="endash.cap" horiz-adv-x="966" 
d="M827 682h-690v115h690v-115z" />
    <glyph glyph-name="emdash.cap" horiz-adv-x="1286" 
d="M1151 682h-1014v115h1014v-115z" />
    <glyph glyph-name="periodcentered.cap" horiz-adv-x="458" 
d="M297 674h-135v266h135v-266z" />
    <glyph glyph-name="at.cap" horiz-adv-x="1685" 
d="M1579 979q0 -653 -715 -653q-208 0 -301.5 74.5t-93.5 238.5q0 62 8 152q12 117 44.5 197t85 124.5t116 63t147.5 18.5q157 0 299 -37l-71 -702q375 78 375 524q0 473 -549 473q-284 0 -444.5 -132.5t-221.5 -424.5q-35 -146 -35 -324q0 -244 134 -370.5t423 -126.5
q96 0 200 7t142 13v-80q-192 -28 -342 -28q-334 0 -498.5 151t-164.5 436q0 185 35 334q64 327 252 482t520 155q329 0 492 -148.5t163 -416.5zM1032 1071q-82 12 -160 12q-58 0 -99 -11t-78 -41.5t-60 -90.5t-33 -152q-10 -120 -10 -149q0 -117 61.5 -163t208.5 -46
q37 0 107 4z" />
    <glyph glyph-name="T_h" horiz-adv-x="2189" 
d="M2032 0h-134v700q0 185 -54.5 254.5t-190.5 69.5q-167 0 -355 -94v-930h-133v1399h-475v-1399h-137v1399h-492v123h1237v-484q201 103 379 103q187 0 271 -105t84 -331v-705z" />
    <glyph glyph-name="A.alt" horiz-adv-x="1316" 
d="M47 0l477 1403l-127 8v111h357l514 -1522h-146l-178 539h-577l-181 -539h-139zM901 664l-172 510q-32 91 -65 235h-15q-30 -125 -65 -235l-176 -510h493z" />
    <glyph glyph-name="B.alt" horiz-adv-x="1277" 
d="M174 0v1399l-117 10v113q86 0 245.5 3t262.5 3q119 0 207.5 -10t164 -36t122 -69t72.5 -110.5t26 -159.5v-19q0 -53 -12.5 -101.5t-39 -94.5t-75.5 -82t-115 -55q89 -25 146.5 -80.5t80.5 -121.5t23 -147v-28q0 -99 -28 -172.5t-77.5 -121t-127 -76.5t-166.5 -40.5
t-205 -11.5q-103 0 -225.5 3.5t-161.5 4.5zM1028 414v28q0 64 -16 112.5t-55 91t-115 65t-187 22.5h-344v-614q234 -6 250 -6q122 0 204.5 13.5t144 47t90 92.5t28.5 148zM1020 1124v19q0 56 -12.5 97.5t-39.5 70.5t-62 47.5t-89.5 28.5t-112.5 14t-139 4q-86 0 -254 -4
v-549h344q89 0 155 15t105.5 39t63.5 60.5t32.5 74t8.5 83.5z" />
    <glyph glyph-name="C.alt" horiz-adv-x="1126" 
d="M1065 119v-115q-198 -31 -354 -31q-113 0 -202 21t-164.5 71t-125.5 130t-78 200.5t-28 278.5v174q0 158 28 278t78 199t125.5 129t164.5 71t202 21q192 0 354 -33v-264h-109l-14 164q-153 10 -231 10q-240 0 -350.5 -131.5t-110.5 -443.5v-174q0 -312 110.5 -445
t350.5 -133q112 0 354 23z" />
    <glyph glyph-name="D.alt" horiz-adv-x="1349" 
d="M174 -2v1401l-117 10v113q90 0 255 3t272 3q337 0 495 -170t158 -506v-180q0 -339 -155.5 -509.5t-497.5 -170.5q-103 0 -240 3t-170 3zM1100 672v180q0 153 -33 260t-101 171.5t-164 93t-229 28.5q-98 0 -262 -4v-1280q152 -8 262 -8q268 0 397.5 129t129.5 430z" />
    <glyph glyph-name="E.alt" horiz-adv-x="1163" 
d="M1051 1399h-740v-543h690v-125h-690v-610h740v-121h-877v1403l-117 6v113h994v-123z" />
    <glyph glyph-name="F.alt" horiz-adv-x="1142" 
d="M174 0v1403l-117 6v113h994v-123h-740v-543h690v-125h-690v-731h-137z" />
    <glyph glyph-name="G.alt" horiz-adv-x="1267" 
d="M1135 10q-238 -37 -422 -37q-600 0 -600 695v186q0 133 21.5 240t62 182t94 128t122.5 84t142 44.5t158 13.5q171 0 422 -35v-266h-109l-14 164q-168 14 -281 14q-92 0 -162.5 -15t-132 -53.5t-101.5 -102t-62.5 -163.5t-22.5 -235v-186q0 -161 31.5 -273t95.5 -176.5
t149.5 -92.5t202.5 -28q158 0 268 11v557l-235 10v108h373v-774z" />
    <glyph glyph-name="H.alt" horiz-adv-x="1449" 
d="M1276 0h-137v748h-828v-748h-137v1403l-117 6v113h254v-650h828v650h137v-1522z" />
    <glyph glyph-name="I.alt" horiz-adv-x="491" 
d="M430 0h-369v111l117 6v1286l-117 6v113h369v-113l-115 -6v-1286l115 -6v-111z" />
    <glyph glyph-name="J.alt" horiz-adv-x="491" 
d="M430 1409l-117 -6v-1518q0 -82 -12.5 -138t-43.5 -99t-87 -63.5t-141 -20.5q-74 0 -142 14v105q47 -2 133 -2q54 0 86 11.5t47.5 40.5t20 61.5t4.5 90.5v1518l-117 6v113h369v-113z" />
    <glyph glyph-name="K.alt" horiz-adv-x="1230" 
d="M1200 0h-188l-690 745v-745h-138v1403l-116 6v113h254v-723l698 723h178l-723 -748z" />
    <glyph glyph-name="M.alt" horiz-adv-x="1619" 
d="M1446 0h-135v1104q0 65 8 237h-4q-8 -17 -103 -202l-317 -598h-172l-313 598q-16 33 -103 202h-4q6 -129 6 -237v-1104h-135v1403l-117 6v113h297l363 -699q8 -16 90 -182h4q13 27 90 184l367 697h178v-1522z" />
    <glyph glyph-name="N.alt" horiz-adv-x="1417" 
d="M1243 -2h-194l-641 1182q-76 144 -109 213h-2q6 -126 6 -263v-1130h-129v1403l-117 6v113h312l643 -1170q25 -46 104 -209h2q-6 144 -6 267v1112h131v-1524z" />
    <glyph glyph-name="P.alt" horiz-adv-x="1208" 
d="M307 0h-137v1403l-115 6v113q81 0 237.5 4t244.5 4q113 0 199.5 -12t162 -42t124 -79t76 -125.5t27.5 -179.5v-27q0 -103 -27.5 -180t-77 -127.5t-125 -82t-164 -44.5t-200.5 -13q-69 0 -225 3v-621zM307 741q68 -2 225 -2q241 0 349 71.5t108 254.5v27
q-1 94 -27.5 155.5t-85 96.5t-138.5 49t-201 14q-101 0 -230 -6v-660z" />
    <glyph glyph-name="Q.alt" horiz-adv-x="1374" 
d="M1262 680q0 -332 -131 -506.5t-375 -196.5v-354h-135v354q-246 22 -377 196t-131 507v160q0 355 148 530.5t427 175.5q277 0 425.5 -176t148.5 -530v-160zM1124 680v160q0 161 -31.5 276t-91.5 181t-137 96t-176 30q-79 0 -144 -18t-120.5 -60.5t-93.5 -109t-59 -166.5
t-21 -229v-160q0 -584 438 -584q99 0 176 30t136.5 96t91.5 181.5t32 276.5z" />
    <glyph glyph-name="R.alt" horiz-adv-x="1273" 
d="M1219 0h-162l-379 621q-68 -3 -143 -3q-133 0 -224 3v-621h-137v1403l-117 6v113q68 0 222 4t251 4q112 0 200.5 -12.5t165 -43t127 -80t79 -126t28.5 -178.5v-17q0 -180 -76.5 -280.5t-230.5 -143.5zM991 1073v17q0 93 -27.5 155t-87.5 97.5t-142.5 50t-203.5 14.5
q-45 0 -117.5 -2.5l-101.5 -3.5v-660q68 -2 224 -2q240 0 348 75t108 259z" />
    <glyph glyph-name="S.alt" horiz-adv-x="1171" 
d="M145 10v111q255 -29 422 -29q174 0 263.5 66.5t89.5 216.5q0 111 -58 176t-213 139l-207 96q-167 78 -248 170t-81 238q0 180 121.5 266t361.5 86q222 0 412 -37v-262h-107l-18 166q-117 12 -283 12q-173 0 -261.5 -52.5t-88.5 -178.5q0 -100 58 -163.5t196 -129.5
l207 -94q125 -60 197 -115t111.5 -132.5t39.5 -184.5q0 -198 -124 -300t-368 -102q-120 0 -239 12t-183 25z" />
    <glyph glyph-name="U.alt" horiz-adv-x="1398" 
d="M1235 653q0 -341 -130.5 -509.5t-404.5 -168.5q-277 0 -406.5 168t-129.5 510v752l-121 6v111h258v-854q0 -308 87.5 -439t311.5 -131q222 0 311 132.5t89 437.5v854h135v-869z" />
    <glyph glyph-name="Z.alt" horiz-adv-x="1236" 
d="M1141 121v-121h-1045v150l867 1249h-713l-12 -152h-109v275h981v-150l-864 -1251h895z" />
    <glyph glyph-name="a.alt" horiz-adv-x="1087" 
d="M938 0h-129v80q-178 -107 -371 -107q-165 0 -248.5 78t-83.5 242v31q0 84 22.5 144t62 98t104.5 60t140 30t179 8h189v94q0 86 -10.5 134.5t-44.5 80.5t-89 42.5t-151 10.5q-92 0 -209 -8l-12 -125h-105v209q212 39 336 39q132 0 215 -22t128 -72.5t61 -117t16 -171.5
v-758zM803 178v381h-189q-86 0 -142.5 -5.5t-104 -20t-73.5 -41t-40 -67.5t-14 -101v-39q0 -111 57.5 -159t167.5 -48q94 0 187 31.5t151 68.5z" />
    <glyph glyph-name="b.alt" horiz-adv-x="1144" 
d="M1032 500q0 -281 -116.5 -404t-368.5 -123q-158 0 -383 25v1466l-115 9v110h248v-508q144 68 305 68q223 0 326.5 -118.5t103.5 -381.5v-143zM897 500v143q0 214 -70.5 297.5t-238.5 83.5q-62 0 -145 -13.5t-146 -43.5v-863q120 -12 252 -12q187 0 267.5 89.5t80.5 318.5
z" />
    <glyph glyph-name="c.alt" horiz-adv-x="954" 
d="M862 8q-162 -35 -305 -35q-229 0 -336.5 126t-107.5 397v122q0 268 109 395.5t335 127.5q161 0 305 -35v-217h-106l-13 125q-85 10 -168 10t-140.5 -18t-101.5 -62.5t-64.5 -125t-20.5 -200.5v-122q0 -123 20.5 -203.5t64 -125t100.5 -62t142 -17.5q87 0 287 23v-103z
" />
    <glyph glyph-name="d.alt" horiz-adv-x="1144" 
d="M981 0h-129v63q-163 -90 -330 -90q-205 0 -307 122t-102 384v137q0 148 31.5 251.5t94 162.5t144 85t192.5 26q119 0 273 -25v348l-129 6v113h262v-1583zM848 170v834q-167 22 -264 22q-88 0 -146.5 -17.5t-103.5 -62.5t-65.5 -126t-20.5 -204v-137q0 -210 69.5 -300.5
t227.5 -90.5q135 0 303 82z" />
    <glyph glyph-name="g.alt" horiz-adv-x="1126" 
d="M1036 -92q0 -171 -112.5 -264t-364.5 -93q-130 0 -222 24.5t-145.5 72.5t-77.5 111.5t-24 148.5q0 153 109 254q-97 51 -97 157q0 115 113 191q-86 89 -86 258q0 65 10 116.5t38.5 101t76 82.5t126.5 53t185 20h459v-94l-145 -13q50 -30 82 -98t32 -168q0 -84 -22 -148.5
t-71 -114.5t-134.5 -76t-204.5 -26q-173 0 -266 52q-74 -52 -74 -123q0 -45 26.5 -66.5t84.5 -21.5h223q100 0 170.5 -7.5t132.5 -29t99 -59t58 -97t21 -143.5zM905 -90q0 91 -30 137.5t-103.5 66t-216.5 19.5h-244q-88 -78 -88 -223q0 -63 13.5 -105.5t49 -76.5t103 -50
t170.5 -16q100 0 168.5 16.5t107 49.5t54.5 77t16 105zM866 768q0 50 -6.5 86.5t-25.5 71.5t-52 57t-88.5 35.5t-132.5 13.5q-79 0 -135.5 -14t-88.5 -36.5t-50.5 -59t-23.5 -71t-5 -83.5t6.5 -85t25.5 -70.5t52 -55.5t88 -34t131 -13q94 0 156.5 18.5t94 55.5t43 79.5
t11.5 104.5z" />
    <glyph glyph-name="h.alt" horiz-adv-x="1206" 
d="M1032 0h-135v700q0 184 -55 254t-191 70q-166 0 -354 -94v-930h-133v1464l-115 6v113h248v-545q201 103 379 103q186 0 271 -105t85 -331v-705z" />
    <glyph glyph-name="i.alt" horiz-adv-x="483" 
d="M309 0h-135v993l-113 6v113h248v-1112zM311 1329h-137v254h137v-254z" />
    <glyph glyph-name="j.alt" horiz-adv-x="483" 
d="M309 -152q0 -163 -54.5 -230t-197.5 -67q-59 0 -133 9v100q82 -4 121 -4q80 0 104.5 40t24.5 152v1145l-113 6v113h248v-1264zM311 1327h-137v256h137v-256z" />
    <glyph glyph-name="k.alt" horiz-adv-x="997" 
d="M969 0h-178l-494 563v-563h-133v1464l-113 6v113h246v-979l491 508h177l-519 -526z" />
    <glyph glyph-name="l.alt" horiz-adv-x="475" 
d="M305 0h-133v1464l-115 6v113h248v-1583z" />
    <glyph glyph-name="m.alt" horiz-adv-x="1710" 
d="M1554 0h-135v743q0 61 -3 98t-13.5 76t-31 59.5t-57 34t-89.5 13.5q-141 0 -314 -104q15 -76 15 -177v-743h-135v743q0 63 -2.5 99.5t-12.5 76t-29.5 59.5t-54.5 33t-86 13q-130 0 -309 -104v-920h-133v993l-115 6v113h248v-88q169 117 338 117q182 0 248 -125
q186 125 358 125q62 0 111 -13t81.5 -33t56 -53t35.5 -63.5t19 -75.5t8.5 -78.5t1.5 -81.5v-743z" />
    <glyph glyph-name="n.alt" 
d="M1032 0h-135v705q0 181 -48.5 250t-180.5 69q-148 0 -371 -106v-918h-133v993l-113 6v113h246v-90q222 119 383 119q106 0 176 -27t108 -85t53 -134.5t15 -189.5v-705z" />
    <glyph glyph-name="p.alt" horiz-adv-x="1146" 
d="M295 -428h-131v1421l-115 6v113h242v-80q75 48 166.5 78.5t179.5 30.5q203 0 299 -125.5t96 -409.5v-82q0 -123 -22 -217.5t-61 -157.5t-99 -102.5t-130.5 -56.5t-160.5 -17q-99 0 -264 27v-428zM899 524v82q0 230 -65 323t-216 93q-130 0 -323 -94v-815q170 -25 264 -25
q86 0 146 20t105.5 68t67 134t21.5 214z" />
    <glyph glyph-name="r.alt" horiz-adv-x="739" 
d="M295 0h-131v993l-113 6v113h244v-90q166 119 418 119v-121q-103 0 -217.5 -25t-200.5 -77v-918z" />
    <glyph glyph-name="s.alt" horiz-adv-x="960" 
d="M115 14v107q231 -33 354 -33q148 0 210 46.5t62 135.5q0 84 -47.5 128t-201.5 108l-78 33q-166 69 -240 143t-74 188q0 271 398 271q95 0 193.5 -12.5t144.5 -26.5v-211h-107l-14 121q-118 12 -211 12q-143 0 -205.5 -33t-62.5 -121q0 -75 48 -119t183 -102l78 -33
q192 -82 262 -151.5t70 -192.5q0 -61 -20 -112t-64.5 -94.5t-126 -68t-193.5 -24.5q-100 0 -201.5 13.5t-156.5 27.5z" />
    <glyph glyph-name="u.alt" 
d="M891 1112h133v-1112h-133v90q-226 -117 -395 -117q-100 0 -167.5 30t-104 89.5t-51.5 135t-15 180.5v585l-115 6v113h246v-704q0 -180 49.5 -250t181.5 -70q145 0 371 109v915z" />
    <glyph glyph-name="y.alt" horiz-adv-x="1191" 
d="M1028 -41q0 -104 -19 -176t-66.5 -126t-132 -80t-210.5 -26q-156 0 -387 33v101q226 -19 387 -19q92 0 149 15.5t89 53t43.5 89t11.5 135.5v55q-138 -41 -264 -41q-239 0 -355 118.5t-116 393.5v627h133v-627q0 -221 78 -309t262 -88q127 0 264 39v985h133v-1153z" />
    <glyph glyph-name="z.alt" horiz-adv-x="980" 
d="M887 111v-111h-801v147l653 852h-510l-12 -108h-106v221h774v-137l-662 -864h664z" />
    <glyph glyph-name="a.alt2" horiz-adv-x="1144" 
d="M981 0h-129v63q-163 -90 -330 -90q-202 0 -305.5 127.5t-103.5 376.5v141q0 148 31.5 250.5t94.5 161.5t146 85t197 26q197 0 399 -27v-1114zM848 170v844q-156 12 -264 12q-88 0 -147 -17.5t-104 -62.5t-66 -125.5t-21 -202.5v-141q0 -195 72.5 -292t226.5 -97
q143 0 303 82z" />
    <glyph glyph-name="u.alt2" horiz-adv-x="1181" 
d="M1024 530q0 -139 -22 -239t-72 -173t-134.5 -109t-205.5 -36q-234 0 -334 139t-100 418v582h133v-582q0 -231 67 -335.5t234 -104.5t234 104.5t67 335.5v582h133v-582z" />
    <glyph glyph-name="Aacute.alt" horiz-adv-x="1316" 
d="M979 1931l-301 -315h-137l276 315h162zM47 0l477 1403l-127 8v111h357l514 -1522h-146l-178 539h-577l-181 -539h-139zM901 664l-172 510q-32 91 -65 235h-15q-30 -125 -65 -235l-176 -510h493z" />
    <glyph glyph-name="Acircumflex.alt" horiz-adv-x="1316" 
d="M1024 1616h-137l-232 237l-231 -237h-137l282 315h172zM47 0l477 1403l-127 8v111h357l514 -1522h-146l-178 539h-577l-181 -539h-139zM901 664l-172 510q-32 91 -65 235h-15q-30 -125 -65 -235l-176 -510h493z" />
    <glyph glyph-name="Adieresis.alt" horiz-adv-x="1316" 
d="M952 1657h-123v244h123v-244zM483 1901v-244h-125v244h125zM47 0l477 1403l-127 8v111h357l514 -1522h-146l-178 539h-577l-181 -539h-139zM901 664l-172 510q-32 91 -65 235h-15q-30 -125 -65 -235l-176 -510h493z" />
    <glyph glyph-name="Agrave.alt" horiz-adv-x="1316" 
d="M788 1616h-137l-303 315h164zM47 0l477 1403l-127 8v111h357l514 -1522h-146l-178 539h-577l-181 -539h-139zM901 664l-172 510q-32 91 -65 235h-15q-30 -125 -65 -235l-176 -510h493z" />
    <glyph glyph-name="Aring.alt" horiz-adv-x="1316" 
d="M891 1823q0 -110 -64 -165.5t-168 -55.5q-107 0 -172 55t-65 166t65 166t172 55q104 0 168 -55.5t64 -165.5zM799 1823q0 73 -39 105t-101 32q-143 0 -143 -137q0 -72 39.5 -104.5t103.5 -32.5q62 0 101 33t39 104zM47 0l477 1403l-127 8v111h357l514 -1522h-146
l-178 539h-577l-181 -539h-139zM901 664l-172 510q-32 91 -65 235h-15q-30 -125 -65 -235l-176 -510h493z" />
    <glyph glyph-name="Atilde.alt" horiz-adv-x="1316" 
d="M1044 1860q0 -125 -41 -189.5t-141 -64.5q-53 0 -97.5 21.5t-98.5 68.5l-84 80q-41 38 -67 52.5t-60 14.5q-53 0 -70.5 -38.5t-17.5 -116.5v-70h-101v70q0 251 189 251q55 0 94.5 -18.5t93.5 -65.5l86 -79q40 -39 68.5 -55.5t62.5 -16.5q22 0 38 7.5t25 20.5t14.5 34
t7 42t1.5 52v69h98v-69zM47 0l477 1403l-127 8v111h357l514 -1522h-146l-178 539h-577l-181 -539h-139zM901 664l-172 510q-32 91 -65 235h-15q-30 -125 -65 -235l-176 -510h493z" />
    <glyph glyph-name="Ccedilla.alt" horiz-adv-x="1126" 
d="M776 -139l-274 -289h-142l248 289h168zM1065 119v-115q-198 -31 -354 -31q-113 0 -202 21t-164.5 71t-125.5 130t-78 200.5t-28 278.5v174q0 158 28 278t78 199t125.5 129t164.5 71t202 21q192 0 354 -33v-264h-109l-14 164q-153 10 -231 10q-240 0 -350.5 -131.5
t-110.5 -443.5v-174q0 -312 110.5 -445t350.5 -133q112 0 354 23z" />
    <glyph glyph-name="Eacute.alt" horiz-adv-x="1163" 
d="M932 1931l-301 -315h-137l274 315h164zM1051 1399h-740v-543h690v-125h-690v-610h740v-121h-877v1403l-117 6v113h994v-123z" />
    <glyph glyph-name="Ecircumflex.alt" horiz-adv-x="1163" 
d="M965 1616h-138l-231 237l-231 -237h-138l283 315h172zM1051 1399h-740v-543h690v-125h-690v-610h740v-121h-877v1403l-117 6v113h994v-123z" />
    <glyph glyph-name="Edieresis.alt" horiz-adv-x="1163" 
d="M872 1655h-120v243h120v-243zM403 1898v-243h-122v243h122zM1051 1399h-740v-543h690v-125h-690v-610h740v-121h-877v1403l-117 6v113h994v-123z" />
    <glyph glyph-name="Egrave.alt" horiz-adv-x="1163" 
d="M696 1616h-137l-301 315h164zM1051 1399h-740v-543h690v-125h-690v-610h740v-121h-877v1403l-117 6v113h994v-123z" />
    <glyph glyph-name="Eth.alt" horiz-adv-x="1349" 
d="M1237 672q0 -339 -155.5 -509.5t-497.5 -170.5q-17 0 -410 6v733h-117v121h117v547l-117 10v113q92 0 258.5 3t268.5 3q337 0 495 -170t158 -506v-180zM311 731v-610q152 -8 262 -8q268 0 397.5 129t129.5 430v180q0 153 -33 260t-101 171.5t-164 93t-229 28.5
q-98 0 -262 -4v-549h338v-121h-338z" />
    <glyph glyph-name="Iacute.alt" horiz-adv-x="491" 
d="M539 1931l-301 -315h-138l277 315h162zM430 0h-369v111l117 6v1286l-117 6v113h369v-113l-115 -6v-1286l115 -6v-111z" />
    <glyph glyph-name="Icircumflex.alt" horiz-adv-x="491" 
d="M614 1616h-137l-231 237l-232 -237h-137l283 315h172zM430 0h-369v111l117 6v1286l-117 6v113h369v-113l-115 -6v-1286l115 -6v-111z" />
    <glyph glyph-name="Idieresis.alt" horiz-adv-x="491" 
d="M541 1657h-123v244h123v-244zM72 1901v-244h-125v244h125zM430 0h-369v111l117 6v1286l-117 6v113h369v-113l-115 -6v-1286l115 -6v-111z" />
    <glyph glyph-name="Igrave.alt" horiz-adv-x="491" 
d="M399 1616h-137l-301 315h162zM430 0h-369v111l117 6v1286l-117 6v113h369v-113l-115 -6v-1286l115 -6v-111z" />
    <glyph glyph-name="Ntilde.alt" horiz-adv-x="1417" 
d="M1096 1858q0 -124 -41 -188t-142 -64q-54 0 -98.5 21t-97.5 69l-84 78q-40 39 -66.5 54t-60.5 15q-36 0 -56.5 -21.5t-26 -52.5t-5.5 -83v-70h-101v70q0 123 44.5 188t144.5 65q54 0 93.5 -19.5t94.5 -66.5l86 -79q40 -39 68.5 -55.5t62.5 -16.5q22 0 38 7.5t25 20.5
t14.5 34t7 42t1.5 52v69h99v-69zM1243 -2h-194l-641 1182q-76 144 -109 213h-2q6 -126 6 -263v-1130h-129v1403l-117 6v113h312l643 -1170q25 -46 104 -209h2q-6 144 -6 267v1112h131v-1524z" />
    <glyph glyph-name="Scaron.alt" horiz-adv-x="1171" 
d="M219 1931h137l232 -239l231 239h137l-282 -315h-172zM567 -27q-120 0 -239 12t-183 25v111q255 -29 422 -29q174 0 263.5 66.5t89.5 216.5q0 111 -58 176t-213 139l-207 96q-167 78 -248 170t-81 238q0 180 121.5 266t361.5 86q222 0 412 -37v-262h-107l-18 166
q-117 12 -283 12q-173 0 -261.5 -52.5t-88.5 -178.5q0 -100 58 -163.5t196 -129.5l207 -94q125 -60 197 -115t111.5 -132.5t39.5 -184.5q0 -198 -124 -300t-368 -102z" />
    <glyph glyph-name="Uacute.alt" horiz-adv-x="1398" 
d="M1024 1931l-301 -315h-137l276 315h162zM1235 653q0 -341 -130.5 -509.5t-404.5 -168.5q-277 0 -406.5 168t-129.5 510v752l-121 6v111h258v-854q0 -308 87.5 -439t311.5 -131q222 0 311 132.5t89 437.5v854h135v-869z" />
    <glyph glyph-name="Ucircumflex.alt" horiz-adv-x="1398" 
d="M1063 1616h-137l-232 237l-231 -237h-137l282 315h172zM1235 653q0 -341 -130.5 -509.5t-404.5 -168.5q-277 0 -406.5 168t-129.5 510v752l-121 6v111h258v-854q0 -308 87.5 -439t311.5 -131q222 0 311 132.5t89 437.5v854h135v-869z" />
    <glyph glyph-name="Udieresis.alt" horiz-adv-x="1398" 
d="M991 1657h-121v244h121v-244zM522 1901v-244h-123v244h123zM1235 653q0 -341 -130.5 -509.5t-404.5 -168.5q-277 0 -406.5 168t-129.5 510v752l-121 6v111h258v-854q0 -308 87.5 -439t311.5 -131q222 0 311 132.5t89 437.5v854h135v-869z" />
    <glyph glyph-name="Ugrave.alt" horiz-adv-x="1398" 
d="M795 1616h-138l-303 315h164zM1235 653q0 -341 -130.5 -509.5t-404.5 -168.5q-277 0 -406.5 168t-129.5 510v752l-121 6v111h258v-854q0 -308 87.5 -439t311.5 -131q222 0 311 132.5t89 437.5v854h135v-869z" />
    <glyph glyph-name="Zcaron.alt" horiz-adv-x="1236" 
d="M264 1931h137l230 -239l233 239h137l-282 -315h-172zM1141 121v-121h-1045v150l867 1249h-713l-12 -152h-109v275h981v-150l-864 -1251h895z" />
    <glyph glyph-name="aacute.alt" horiz-adv-x="1087" 
d="M872 1577l-303 -315h-135l275 315h163zM938 0h-129v80q-178 -107 -371 -107q-165 0 -248.5 78t-83.5 242v31q0 84 22.5 144t62 98t104.5 60t140 30t179 8h189v94q0 86 -10.5 134.5t-44.5 80.5t-89 42.5t-151 10.5q-92 0 -209 -8l-12 -125h-105v209q212 39 336 39
q132 0 215 -22t128 -72.5t61 -117t16 -171.5v-758zM803 178v381h-189q-86 0 -142.5 -5.5t-104 -20t-73.5 -41t-40 -67.5t-14 -101v-39q0 -111 57.5 -159t167.5 -48q94 0 187 31.5t151 68.5z" />
    <glyph glyph-name="acircumflex.alt" horiz-adv-x="1087" 
d="M930 1262h-137l-232 237l-231 -237h-137l282 315h172zM938 0h-129v80q-178 -107 -371 -107q-165 0 -248.5 78t-83.5 242v31q0 84 22.5 144t62 98t104.5 60t140 30t179 8h189v94q0 86 -10.5 134.5t-44.5 80.5t-89 42.5t-151 10.5q-92 0 -209 -8l-12 -125h-105v209
q212 39 336 39q132 0 215 -22t128 -72.5t61 -117t16 -171.5v-758zM803 178v381h-189q-86 0 -142.5 -5.5t-104 -20t-73.5 -41t-40 -67.5t-14 -101v-39q0 -111 57.5 -159t167.5 -48q94 0 187 31.5t151 68.5z" />
    <glyph glyph-name="adieresis.alt" horiz-adv-x="1087" 
d="M852 1315h-121v244h121v-244zM383 1559v-244h-123v244h123zM938 0h-129v80q-178 -107 -371 -107q-165 0 -248.5 78t-83.5 242v31q0 84 22.5 144t62 98t104.5 60t140 30t179 8h189v94q0 86 -10.5 134.5t-44.5 80.5t-89 42.5t-151 10.5q-92 0 -209 -8l-12 -125h-105v209
q212 39 336 39q132 0 215 -22t128 -72.5t61 -117t16 -171.5v-758zM803 178v381h-189q-86 0 -142.5 -5.5t-104 -20t-73.5 -41t-40 -67.5t-14 -101v-39q0 -111 57.5 -159t167.5 -48q94 0 187 31.5t151 68.5z" />
    <glyph glyph-name="agrave.alt" horiz-adv-x="1087" 
d="M680 1262h-137l-303 315h163zM938 0h-129v80q-178 -107 -371 -107q-165 0 -248.5 78t-83.5 242v31q0 84 22.5 144t62 98t104.5 60t140 30t179 8h189v94q0 86 -10.5 134.5t-44.5 80.5t-89 42.5t-151 10.5q-92 0 -209 -8l-12 -125h-105v209q212 39 336 39q132 0 215 -22
t128 -72.5t61 -117t16 -171.5v-758zM803 178v381h-189q-86 0 -142.5 -5.5t-104 -20t-73.5 -41t-40 -67.5t-14 -101v-39q0 -111 57.5 -159t167.5 -48q94 0 187 31.5t151 68.5z" />
    <glyph glyph-name="ampersand.alt" horiz-adv-x="1492" 
d="M1368 0h-174l-127 127q-164 -154 -455 -154q-101 0 -183.5 19t-152 60.5t-108.5 117.5t-39 180v12q2 138 69 234t224 180l-21 21q-59 59 -93 98.5t-65 89t-44 101.5t-13 116v19q0 325 430 325q205 0 311.5 -76.5t106.5 -248.5v-19q0 -73 -20.5 -129t-73 -109t-121.5 -99
t-186 -111l428 -428q96 164 96 458v39h121v-39q0 -361 -123 -553l213 -211v-20zM979 217l-467 471q-125 -64 -184 -138.5t-60 -187.5v-12q0 -71 27.5 -123t77 -81t108.5 -42.5t131 -13.5q237 0 367 127zM899 1204v17q0 62 -20 103.5t-59.5 63.5t-87.5 30.5t-116 8.5
q-67 0 -116.5 -8.5t-91 -30.5t-63 -63.5t-21.5 -103.5v-19q0 -68 21 -119.5t57 -94t124 -130.5l17 -16q85 44 134.5 73t97.5 63.5t72 66.5t38 71.5t14 87.5z" />
    <glyph glyph-name="aring.alt" horiz-adv-x="1087" 
d="M797 1456q0 -111 -64 -166t-170 -55t-171.5 55.5t-65.5 165.5t65.5 165.5t171.5 55.5t170 -55t64 -166zM702 1456q0 73 -38.5 105t-100.5 32q-141 0 -141 -137t141 -137q62 0 100.5 32t38.5 105zM938 0h-129v80q-178 -107 -371 -107q-165 0 -248.5 78t-83.5 242v31
q0 84 22.5 144t62 98t104.5 60t140 30t179 8h189v94q0 86 -10.5 134.5t-44.5 80.5t-89 42.5t-151 10.5q-92 0 -209 -8l-12 -125h-105v209q212 39 336 39q132 0 215 -22t128 -72.5t61 -117t16 -171.5v-758zM803 178v381h-189q-86 0 -142.5 -5.5t-104 -20t-73.5 -41t-40 -67.5
t-14 -101v-39q0 -111 57.5 -159t167.5 -48q94 0 187 31.5t151 68.5z" />
    <glyph glyph-name="atilde.alt" horiz-adv-x="1087" 
d="M946 1509q0 -124 -41 -188t-141 -64q-54 0 -99 21.5t-98 69.5l-84 77q-41 39 -67 54.5t-60 15.5q-36 0 -56.5 -21.5t-26 -53t-5.5 -83.5v-69h-100v69q0 123 44 188.5t144 65.5q54 0 94.5 -19.5t94.5 -66.5l86 -80q40 -38 68 -54.5t63 -16.5q36 0 56 21t25 51.5t5 82.5v70
h98v-70zM938 0h-129v80q-178 -107 -371 -107q-165 0 -248.5 78t-83.5 242v31q0 84 22.5 144t62 98t104.5 60t140 30t179 8h189v94q0 86 -10.5 134.5t-44.5 80.5t-89 42.5t-151 10.5q-92 0 -209 -8l-12 -125h-105v209q212 39 336 39q132 0 215 -22t128 -72.5t61 -117
t16 -171.5v-758zM803 178v381h-189q-86 0 -142.5 -5.5t-104 -20t-73.5 -41t-40 -67.5t-14 -101v-39q0 -111 57.5 -159t167.5 -48q94 0 187 31.5t151 68.5z" />
    <glyph glyph-name="ccedilla.alt" horiz-adv-x="954" 
d="M678 -139l-275 -289h-139l248 289h166zM862 8q-162 -35 -305 -35q-229 0 -336.5 126t-107.5 397v122q0 268 109 395.5t335 127.5q161 0 305 -35v-217h-106l-13 125q-85 10 -168 10t-140.5 -18t-101.5 -62.5t-64.5 -125t-20.5 -200.5v-122q0 -123 20.5 -203.5t64 -125
t100.5 -62t142 -17.5q87 0 287 23v-103z" />
    <glyph glyph-name="dotlessi.alt" horiz-adv-x="483" 
d="M309 0h-135v993l-113 6v113h248v-1112z" />
    <glyph glyph-name="iacute.alt" horiz-adv-x="483" 
d="M309 0h-135v993l-113 6v113h248v-1112zM545 1577l-301 -315h-138l277 315h162z" />
    <glyph glyph-name="icircumflex.alt" horiz-adv-x="483" 
d="M309 0h-135v993l-113 6v113h248v-1112zM610 1262h-137l-231 237l-232 -237h-137l283 315h172z" />
    <glyph glyph-name="idieresis.alt" horiz-adv-x="483" 
d="M309 0h-135v993l-113 6v113h248v-1112zM541 1315h-121v244h121v-244zM72 1559v-244h-123v244h123z" />
    <glyph glyph-name="igrave.alt" horiz-adv-x="483" 
d="M309 0h-135v993l-113 6v113h248v-1112zM369 1262h-138l-301 315h162z" />
    <glyph glyph-name="lslash.alt" horiz-adv-x="475" 
d="M453 948l-148 -145v-803h-133v670l-147 -142v164l147 144v628l-115 6v113h248v-616l148 145v-164z" />
    <glyph glyph-name="ntilde.alt" 
d="M991 1509q0 -124 -41 -188t-141 -64q-55 0 -100 21.5t-97 69.5l-86 77q-39 39 -65.5 54.5t-61.5 15.5q-51 0 -68.5 -39.5t-17.5 -118.5v-69h-100v69q0 123 43.5 188.5t142.5 65.5q55 0 96 -19.5t93 -66.5l88 -80q41 -39 68 -55t61 -16q53 0 70.5 38.5t17.5 116.5v70h98
v-70zM1032 0h-135v705q0 181 -48.5 250t-180.5 69q-148 0 -371 -106v-918h-133v993l-113 6v113h246v-90q222 119 383 119q106 0 176 -27t108 -85t53 -134.5t15 -189.5v-705z" />
    <glyph glyph-name="scaron.alt" horiz-adv-x="960" 
d="M113 1577h137l231 -240l232 240h137l-283 -315h-172zM115 14v107q231 -33 354 -33q148 0 210 46.5t62 135.5q0 84 -47.5 128t-201.5 108l-78 33q-166 69 -240 143t-74 188q0 271 398 271q95 0 193.5 -12.5t144.5 -26.5v-211h-107l-14 121q-118 12 -211 12
q-143 0 -205.5 -33t-62.5 -121q0 -75 48 -119t183 -102l78 -33q192 -82 262 -151.5t70 -192.5q0 -61 -20 -112t-64.5 -94.5t-126 -68t-193.5 -24.5q-100 0 -201.5 13.5t-156.5 27.5z" />
    <glyph glyph-name="uacute.alt" 
d="M932 1577l-303 -315h-135l274 315h164zM891 1112h133v-1112h-133v90q-226 -117 -395 -117q-100 0 -167.5 30t-104 89.5t-51.5 135t-15 180.5v585l-115 6v113h246v-704q0 -180 49.5 -250t181.5 -70q145 0 371 109v915z" />
    <glyph glyph-name="ucircumflex.alt" 
d="M963 1262h-138l-233 237l-230 -237h-137l283 315h172zM891 1112h133v-1112h-133v90q-226 -117 -395 -117q-100 0 -167.5 30t-104 89.5t-51.5 135t-15 180.5v585l-115 6v113h246v-704q0 -180 49.5 -250t181.5 -70q145 0 371 109v915z" />
    <glyph glyph-name="udieresis.alt" 
d="M881 1315h-121v244h121v-244zM412 1559v-244h-123v244h123zM891 1112h133v-1112h-133v90q-226 -117 -395 -117q-100 0 -167.5 30t-104 89.5t-51.5 135t-15 180.5v585l-115 6v113h246v-704q0 -180 49.5 -250t181.5 -70q145 0 371 109v915z" />
    <glyph glyph-name="ugrave.alt" 
d="M709 1262h-138l-301 315h162zM891 1112h133v-1112h-133v90q-226 -117 -395 -117q-100 0 -167.5 30t-104 89.5t-51.5 135t-15 180.5v585l-115 6v113h246v-704q0 -180 49.5 -250t181.5 -70q145 0 371 109v915z" />
    <glyph glyph-name="yacute.alt" horiz-adv-x="1191" 
d="M1028 -41q0 -104 -19 -176t-66.5 -126t-132 -80t-210.5 -26q-156 0 -387 33v101q226 -19 387 -19q92 0 149 15.5t89 53t43.5 89t11.5 135.5v55q-138 -41 -264 -41q-239 0 -355 118.5t-116 393.5v627h133v-627q0 -221 78 -309t262 -88q127 0 264 39v985h133v-1153z
M938 1577l-301 -315h-137l274 315h164z" />
    <glyph glyph-name="ydieresis.alt" horiz-adv-x="1191" 
d="M1028 -41q0 -104 -19 -176t-66.5 -126t-132 -80t-210.5 -26q-156 0 -387 33v101q226 -19 387 -19q92 0 149 15.5t89 53t43.5 89t11.5 135.5v55q-138 -41 -264 -41q-239 0 -355 118.5t-116 393.5v627h133v-627q0 -221 78 -309t262 -88q127 0 264 39v985h133v-1153z
M903 1315h-123v244h123v-244zM434 1559v-244h-125v244h125z" />
    <glyph glyph-name="zcaron.alt" horiz-adv-x="980" 
d="M135 1577h137l230 -240l233 240h137l-282 -315h-172zM887 111v-111h-801v147l653 852h-510l-12 -108h-106v221h774v-137l-662 -864h664z" />
    <glyph glyph-name="two.alt" horiz-adv-x="1196" 
d="M1057 121v-121h-922v147q0 91 10 161t35.5 129.5t58.5 105t90 92t119 86t156 90.5q139 77 208.5 132.5t96.5 110.5t27 136q0 129 -89.5 183t-295.5 54q-103 0 -279 -18l-14 -172h-104v266l34 6q35 6 72 11t88 11.5t106 10.5t103 4q264 0 390 -85.5t126 -270.5
q0 -100 -33.5 -174t-118.5 -148t-241 -159q-107 -57 -172.5 -100t-116 -89.5t-74.5 -99t-35.5 -116t-11.5 -154.5v-29h787z" />
    <glyph glyph-name="three.alt" horiz-adv-x="1196" 
d="M1069 401q0 -224 -127.5 -326t-392.5 -102q-170 0 -402 41v107q18 -1 93 -10t154 -15t153 -6q206 0 295.5 70.5t89.5 240.5v60q0 47 -4.5 81.5t-21.5 72.5t-46 62t-81.5 40t-125.5 16h-450v117h450q72 0 124.5 16t82 40t46 62.5t21.5 74t5 83.5v29q0 102 -34 159.5
t-117.5 85t-233.5 27.5q-131 0 -275 -12l-14 -174h-106v266q46 10 170 24.5t227 14.5q276 0 398 -90t122 -301v-29q0 -261 -205 -335q205 -72 205 -330v-60z" />
    <glyph glyph-name="five.alt" horiz-adv-x="1189" 
d="M1065 422q0 -233 -129.5 -341t-407.5 -108q-215 0 -413 47v107q15 -2 72.5 -9t103 -12t113 -9.5t122.5 -4.5q226 0 315 76.5t89 253.5v55q0 175 -93.5 241t-326.5 66h-363l66 738h793v-281h-107l-14 158h-555l-45 -496h231q284 0 416.5 -98t132.5 -328v-55z" />
    <glyph glyph-name="six.alt" horiz-adv-x="1282" 
d="M1155 453q0 -111 -32 -198t-82 -139t-118.5 -85t-134.5 -45.5t-137 -12.5q-92 0 -164 14t-142.5 54t-116.5 106t-74.5 176.5t-28.5 258.5v393q0 143 27.5 245t90.5 177t171.5 112t265.5 37q111 0 229.5 -14.5t184.5 -28.5v-262h-109l-14 172q-177 14 -289 14
q-107 0 -183 -21t-121.5 -57t-71.5 -95.5t-35 -123t-9 -153.5v-96q88 24 198.5 38.5t192.5 14.5t149 -9t135 -35.5t114 -70t75 -118.5t29 -175v-73zM1018 453v69q0 75 -19 129.5t-49.5 86.5t-80 51t-100.5 25.5t-120 6.5q-210 0 -387 -47v-203q0 -137 27 -232.5t80 -148.5
t121 -75.5t161 -22.5q166 0 266.5 89.5t100.5 271.5z" />
    <glyph glyph-name="seven.alt" horiz-adv-x="1150" 
d="M1065 1376l-672 -1376h-153l696 1399h-705l-12 -158h-108v281h954v-146z" />
    <glyph glyph-name="dotlessj" horiz-adv-x="483" 
d="M309 -152q0 -163 -54.5 -230t-197.5 -67q-59 0 -133 9v100q82 -4 121 -4q80 0 104.5 40t24.5 152v1264h135v-1264z" />
    <glyph glyph-name="zero.tab" horiz-adv-x="1312" 
d="M1176 641q0 -339 -134.5 -503.5t-384.5 -164.5q-251 0 -384.5 164.5t-133.5 503.5v238q0 339 133.5 503t384.5 164q250 0 384.5 -164t134.5 -503v-238zM1038 641v238q0 548 -381 548t-381 -548v-238q0 -551 381 -551t381 551z" />
    <glyph glyph-name="one.tab" horiz-adv-x="1312" 
d="M1126 0h-890v113l378 8v1270l-378 -113v121l411 133h103v-1411l376 -8v-113z" />
    <glyph glyph-name="two.tab" horiz-adv-x="1312" 
d="M1106 0h-920v147q0 109 16.5 190t47 143.5t91 119t130 103t182.5 108.5q203 112 268.5 186.5t65.5 192.5q0 129 -90.5 183t-296.5 54q-189 0 -385 -32v108q209 43 393 43q263 0 389.5 -85.5t126.5 -270.5q0 -148 -83 -252t-312 -229q-89 -48 -147 -83.5t-107 -76
t-76.5 -77.5t-47 -87t-26 -104.5t-6.5 -130.5v-29h787v-121z" />
    <glyph glyph-name="three.tab" horiz-adv-x="1312" 
d="M1122 401q0 -224 -127 -326t-393 -102q-103 0 -219.5 14t-181.5 27v105q268 -29 401 -29q206 0 295.5 70.5t89.5 240.5v60q0 47 -4.5 81.5t-21.5 72.5t-46.5 62t-82 40t-125.5 16h-449v117h449q72 0 124.5 16t82 40t46.5 62.5t22 74t5 83.5v29q0 101 -34.5 159
t-118.5 85.5t-234 27.5q-156 0 -395 -26v106q46 10 170 24.5t227 14.5q276 0 399 -90.5t123 -300.5v-29q0 -261 -206 -335q204 -72 204 -330v-60z" />
    <glyph glyph-name="four.tab" horiz-adv-x="1312" 
d="M1212 424h-243v-424h-138v424h-737v139l717 961h158v-981h243v-119zM831 543v798l-598 -798h598z" />
    <glyph glyph-name="five.tab" horiz-adv-x="1312" 
d="M1130 422q0 -233 -129 -341t-407 -108q-121 0 -236.5 15.5t-177.5 29.5v109q11 -1 57.5 -7t79.5 -10t82 -8.5t98 -7t95 -2.5q153 0 241.5 35t125 105.5t36.5 189.5v55q0 175 -93.5 241t-326.5 66h-362l66 738h792v-123h-676l-45 -496h232q283 0 415.5 -98t132.5 -328v-55
z" />
    <glyph glyph-name="seven.tab" horiz-adv-x="1312" 
d="M1141 1376l-672 -1376h-154l697 1399h-826v123h955v-146z" />
    <glyph glyph-name="six.tab" horiz-adv-x="1312" 
d="M1171 453q0 -81 -16.5 -148.5t-45 -116t-68.5 -86.5t-84 -62t-95 -39.5t-98.5 -21.5t-97.5 -6q-64 0 -118 7t-109 25t-98.5 47t-82 76.5t-64.5 110t-40.5 149.5t-14.5 194v393q0 143 27.5 245t90.5 177t171.5 112t265.5 37q111 0 229.5 -14.5t184.5 -28.5v-106
q-240 30 -410 30q-107 0 -183.5 -21t-122.5 -57t-72.5 -95.5t-35 -123t-8.5 -153.5v-96q88 24 198.5 38.5t195.5 14.5q82 0 148.5 -9t135 -35.5t114 -70t74.5 -118.5t29 -175v-73zM1034 453v69q0 75 -19 129.5t-50 86.5t-80.5 51t-100.5 25.5t-120 6.5q-209 0 -388 -47v-203
q0 -137 27.5 -232.5t81 -148.5t121.5 -75.5t160 -22.5q166 0 267 89.5t101 271.5z" />
    <glyph glyph-name="eight.tab" horiz-adv-x="1312" 
d="M1184 432q0 -84 -14 -151.5t-38 -115t-62 -82.5t-80 -56t-98.5 -33t-110 -16.5t-122.5 -4.5h-10q-68 0 -122 4.5t-110.5 17t-98 33.5t-79.5 56t-62 83t-38 115.5t-14 151.5v15q0 135 46.5 219t145.5 125q-186 75 -186 327v21q0 94 26.5 165t71 116t112 72.5t141.5 38.5
t167 11h10q93 0 167 -11t141.5 -38.5t112.5 -72.5t71.5 -116t26.5 -165v-21q0 -252 -187 -327q99 -41 146 -125t47 -217v-19zM1047 432v19q0 141 -54 211.5t-192 70.5h-293q-137 0 -191.5 -71t-54.5 -213v-15q0 -85 17 -146t47.5 -99t80.5 -60.5t106.5 -30.5t135.5 -8h10
q99 0 165.5 13.5t119.5 50t78 105t25 173.5zM1042 1120v21q0 84 -25 141t-76.5 88.5t-118.5 44t-163 12.5h-10q-96 0 -163 -12.5t-118.5 -44t-76.5 -88.5t-25 -141v-21q0 -61 11 -106.5t37 -83.5t75 -58t119 -20h293q135 0 188 70t53 198z" />
    <glyph glyph-name="nine.tab" horiz-adv-x="1312" 
d="M1155 543q0 -143 -27.5 -245t-90.5 -177.5t-171.5 -112.5t-265.5 -37q-111 0 -229.5 14.5t-184.5 28.5v109q264 -33 410 -33q90 0 158 13.5t114 42.5t76 65.5t46 90.5t22 109t6 130v96q-87 -24 -197 -37.5t-196 -13.5q-83 0 -149 8.5t-134 34.5t-113.5 69.5t-74.5 118
t-29 174.5v76q0 111 32 197.5t82 138t118.5 85t134.5 46t137 12.5q64 0 118 -7t109 -24.5t98.5 -47t82 -76.5t64 -109.5t40 -149.5t14.5 -194v-395zM1018 743v203q0 111 -18 194t-50.5 137.5t-82 88t-107 47.5t-131.5 14q-108 0 -189 -36t-130.5 -118.5t-49.5 -205.5v-72
q0 -75 19 -129.5t50 -86.5t80.5 -51t101 -25.5t120.5 -6.5q198 0 387 47z" />
    <glyph glyph-name="dieresisacute" horiz-adv-x="925" 
d="M141 1317h-121v244h121v-244zM270 1262l244 340h164l-270 -340h-138zM915 1317h-120v244h120v-244z" />
    <glyph glyph-name="middot" horiz-adv-x="534" 
d="M338 614h-137v283h137v-283z" />
    <glyph glyph-name="dieresisgrave" horiz-adv-x="925" 
d="M915 1317h-120v244h120v-244zM422 1602l244 -340h-138l-270 340h164zM141 1317h-121v244h121v-244z" />
    <glyph glyph-name="threequartersemdash" horiz-adv-x="1751" 
d="M1622 541h-1468v114h1468v-114z" />
    <glyph glyph-name="overscore" horiz-adv-x="1177" 
d="M1188 1688h-1198v90h1198v-90z" />
    <glyph glyph-name="franc.taboldstyle" horiz-adv-x="1144" 
d="M424 0h-135v252h-96v106h96v777h678v-125h-543v-361h510v-119h-510v-172h268v-106h-268v-252z" />
    <glyph glyph-name="lira.taboldstyle" horiz-adv-x="1153" 
d="M971 1124v-114q-141 16 -275 16q-153 0 -204.5 -56.5t-51.5 -221.5v-46h404v-98h-404v-143h404v-99h-404v-43q0 -119 -63 -200h594v-119h-746v102q45 50 62.5 100.5t17.5 116.5v43h-129v99h129v143h-129v98h129v46q0 217 82.5 309t292.5 92q159 0 291 -25z" />
    <glyph glyph-name="currency.taboldstyle" horiz-adv-x="1259" 
d="M1130 256l-96 -96l-157 155q-107 -79 -246 -79q-142 0 -250 81l-158 -157l-94 96l156 156q-80 112 -80 247q0 140 80 248l-156 158l94 94l160 -155q110 81 246 81q138 0 250 -81l153 155l98 -94l-157 -158q82 -114 82 -248q0 -135 -80 -247zM940 659q0 129 -91 221.5
t-220 92.5q-125 0 -216 -92t-91 -222q0 -128 90.5 -219.5t216.5 -91.5q127 0 217.5 91t93.5 220z" />
    <glyph glyph-name="peseta.taboldstyle" horiz-adv-x="1089" 
d="M301 0h-131v752h-100v106h100v275q161 16 319 16q203 0 310.5 -66.5t124.5 -224.5h100v-106h-100q-17 -160 -128 -233t-313 -73q-45 0 -182 9v-455zM795 795v22q0 123 -74.5 169t-237.5 46q-114 0 -182 -6v-457q80 -6 178 -6q160 0 238 54t78 178z" />
    <glyph glyph-name="undercommaaccent" horiz-adv-x="1017" 
d="M604 -139l-194 -289h-125l164 289h155z" />
    <glyph glyph-name="DieresisAcute" horiz-adv-x="925" 
d="M141 1683h-121v244h121v-244zM270 1628l244 340h164l-270 -340h-138zM915 1683h-120v244h120v-244z" />
    <glyph glyph-name="DieresisGrave" horiz-adv-x="925" 
d="M915 1683h-120v244h120v-244zM422 1968l244 -340h-138l-270 340h164zM141 1683h-121v244h121v-244z" />
    <glyph glyph-name="dblGrave" horiz-adv-x="899" 
d="M762 1262h-137l-301 315h163zM88 1577l277 -315h-138l-303 315h164z" />
    <glyph glyph-name="dblgrave" horiz-adv-x="899" 
d="M762 1262h-137l-301 315h163zM88 1577l277 -315h-138l-303 315h164z" />
    <glyph glyph-name="T_h.caron" horiz-adv-x="2189" 
d="M715 1614h-172l-283 315h137l232 -239l231 239h137zM2032 0h-134v700q0 185 -54.5 254.5t-190.5 69.5q-167 0 -355 -94v-930h-133v1399h-475v-1399h-137v1399h-492v123h1237v-484q201 103 379 103q187 0 271 -105t84 -331v-705z" />
    <glyph glyph-name="T_h.commaaccent" horiz-adv-x="2189" 
d="M711 -139l-195 -289h-127l164 289h158zM2032 0h-134v700q0 185 -54.5 254.5t-190.5 69.5q-167 0 -355 -94v-930h-133v1399h-475v-1399h-137v1399h-492v123h1237v-484q201 103 379 103q187 0 271 -105t84 -331v-705z" />
    <glyph glyph-name="i.dot" horiz-adv-x="491" 
d="M311 0h-133v1112h133v-1112zM313 1329h-135v254h135v-254z" />
    <glyph glyph-name="Amacron.alt" horiz-adv-x="1316" 
d="M1008 1706h-703v106h703v-106zM47 0l477 1403l-127 8v111h357l514 -1522h-146l-178 539h-577l-181 -539h-139zM901 664l-172 510q-32 91 -65 235h-15q-30 -125 -65 -235l-176 -510h493z" />
    </font>
</defs>
</svg>
